<svg width="50" height="50" viewBox="0 0 50 50" fill="none" xmlns="http://www.w3.org/2000/svg">
<path d="M25.5954 5.64281C27.1231 7.94043 29.3125 11.3333 31.4898 15.0357C38.1662 26.3928 39.1646 31.1071 39.1646 32.8928C39.1646 36.4543 37.735 39.8699 35.1903 42.3882C32.6456 44.9066 29.1942 46.3214 25.5954 46.3214C21.9966 46.3214 18.5452 44.9066 16.0004 42.3882C13.4557 39.8699 12.0261 36.4543 12.0261 32.8928C12.0261 31.0952 13.0245 26.3809 19.7129 15.0357C21.8782 11.3333 24.0676 7.89281 25.5954 5.64281ZM25.5954 1.19043C25.5954 1.19043 9.52393 24.119 9.52393 32.9047C9.52393 37.1229 11.2172 41.1683 14.2311 44.1511C17.2451 47.1338 21.3329 48.8095 25.5954 48.8095C29.8578 48.8095 33.9456 47.1338 36.9596 44.1511C39.9735 41.1683 41.6668 37.1229 41.6668 32.9047C41.6668 24.119 25.5954 1.19043 25.5954 1.19043Z" fill="#0D728E"/>
<path d="M26.0888 43.7856C23.0896 43.7793 20.2153 42.5966 18.0957 40.4968C15.9762 38.397 14.7842 35.5513 14.781 32.5832C14.781 32.2564 14.9122 31.943 15.1457 31.712C15.3792 31.4809 15.6959 31.3511 16.0261 31.3511C16.3563 31.3511 16.673 31.4809 16.9065 31.712C17.1399 31.943 17.2711 32.2564 17.2711 32.5832C17.2743 34.8966 18.2043 37.1143 19.8573 38.7501C21.5102 40.3859 23.7512 41.3063 26.0888 41.3094C26.4206 41.3094 26.7388 41.4398 26.9734 41.672C27.208 41.9042 27.3398 42.2191 27.3398 42.5475C27.3398 42.8759 27.208 43.1908 26.9734 43.423C26.7388 43.6552 26.4206 43.7856 26.0888 43.7856Z" fill="#0D728E"/>
</svg>
