<svg width="100" height="100" viewBox="0 0 100 100" fill="none" xmlns="http://www.w3.org/2000/svg">
<path d="M51.1905 11.286C54.246 15.8812 58.6247 22.6669 62.9794 30.0717C76.3321 52.786 78.329 62.2145 78.329 65.786C78.329 72.9089 75.4698 79.7401 70.3803 84.7768C65.2909 89.8135 58.3881 92.6431 51.1905 92.6431C43.9929 92.6431 37.0901 89.8135 32.0006 84.7768C26.9111 79.7401 24.0519 72.9089 24.0519 65.786C24.0519 62.1907 26.0488 52.7621 39.4256 30.0717C43.7562 22.6669 48.135 15.786 51.1905 11.286ZM51.1905 2.38121C51.1905 2.38121 19.0476 48.2383 19.0476 65.8097C19.0476 74.2462 22.4341 82.337 28.462 88.3025C34.49 94.2679 42.6657 97.6193 51.1905 97.6193C59.7153 97.6193 67.8909 94.2679 73.9189 88.3025C79.9469 82.337 83.3333 74.2462 83.3333 65.8097C83.3333 48.2383 51.1905 2.38121 51.1905 2.38121Z" fill="white"/>
<path d="M52.1772 87.5715C46.1789 87.5589 40.4303 85.1936 36.1911 80.994C31.952 76.7943 29.568 71.1028 29.5616 65.1668C29.5616 64.5132 29.824 63.8864 30.291 63.4243C30.758 62.9621 31.3913 62.7025 32.0518 62.7025C32.7122 62.7025 33.3456 62.9621 33.8125 63.4243C34.2795 63.8864 34.5419 64.5132 34.5419 65.1668C34.5482 69.7935 36.4083 74.2289 39.7142 77.5005C43.02 80.7721 47.5019 82.6129 52.1772 82.6192C52.8408 82.6192 53.4772 82.88 53.9464 83.3444C54.4157 83.8088 54.6793 84.4386 54.6793 85.0953C54.6793 85.7521 54.4157 86.3819 53.9464 86.8463C53.4772 87.3107 52.8408 87.5715 52.1772 87.5715Z" fill="white"/>
</svg>
