<svg width="120" height="121" viewBox="0 0 120 121" fill="none" xmlns="http://www.w3.org/2000/svg">
<path d="M95 20.0785H85V10.0785H75V20.0785H45V10.0785H35V20.0785H25C19.485 20.0785 15 24.5635 15 30.0785V100.078C15 105.593 19.485 110.078 25 110.078H95C100.515 110.078 105 105.593 105 100.078V30.0785C105 24.5635 100.515 20.0785 95 20.0785ZM95.01 100.078H25V40.0785H95L95.01 100.078Z" fill="#007934"/>
<path d="M55 87.1485L83.535 58.6135L76.465 51.5435L55 73.0085L43.535 61.5435L36.465 68.6135L55 87.1485Z" fill="#007934"/>
</svg>
