<svg width="40" height="40" viewBox="0 0 40 40" fill="none" xmlns="http://www.w3.org/2000/svg">
<path d="M37.0811 19.019L20.5811 2.51897C20.375 2.31409 20.0962 2.1991 19.8056 2.1991C19.515 2.1991 19.2362 2.31409 19.0301 2.51897L2.53013 19.019C2.34992 19.2294 2.25575 19.5001 2.26645 19.7769C2.27714 20.0538 2.3919 20.3164 2.58781 20.5123C2.78371 20.7082 3.04633 20.823 3.32317 20.8337C3.60001 20.8443 3.8707 20.7502 4.08113 20.57L19.8001 4.85097L35.5191 20.581C35.7296 20.7612 36.0002 20.8553 36.2771 20.8447C36.5539 20.834 36.8165 20.7192 37.0124 20.5233C37.2083 20.3274 37.3231 20.0648 37.3338 19.7879C37.3445 19.5111 37.2503 19.2404 37.0701 19.03L37.0811 19.019Z" fill="#007934"/>
<path d="M30.8001 35.2H25.3001V24.2H14.3001V35.2H8.8001V19.8L6.6001 22V35.2C6.6001 35.7835 6.83188 36.343 7.24446 36.7556C7.65704 37.1682 8.21662 37.4 8.8001 37.4H16.5001V26.4H23.1001V37.4H30.8001C31.3836 37.4 31.9432 37.1682 32.3557 36.7556C32.7683 36.343 33.0001 35.7835 33.0001 35.2V21.736L30.8001 19.536V35.2Z" fill="#007934"/>
</svg>
