<svg width="100" height="100" viewBox="0 0 100 100" fill="none" xmlns="http://www.w3.org/2000/svg">
<mask id="mask0_637_1146" style="mask-type:alpha" maskUnits="userSpaceOnUse" x="4" y="12" width="92" height="76">
<path fill-rule="evenodd" clip-rule="evenodd" d="M4.16675 20.8333C4.16675 16.231 7.89771 12.5 12.5001 12.5H87.5001C92.1025 12.5 95.8334 16.231 95.8334 20.8333V79.1667C95.8334 83.7691 92.1025 87.5 87.5001 87.5H12.5001C7.89771 87.5 4.16675 83.7691 4.16675 79.1667V20.8333ZM87.5001 20.8333H12.5001V79.1667H87.5001V20.8333Z" fill="white"/>
<path d="M35.4168 52.0832C37.627 52.0832 39.7466 51.2052 41.3094 49.6424C42.8722 48.0796 43.7502 45.96 43.7502 43.7498C43.7502 41.5397 42.8722 39.4201 41.3094 37.8573C39.7466 36.2945 37.627 35.4165 35.4168 35.4165C33.2067 35.4165 31.0871 36.2945 29.5243 37.8573C27.9615 39.4201 27.0835 41.5397 27.0835 43.7498C27.0835 45.96 27.9615 48.0796 29.5243 49.6424C31.0871 51.2052 33.2067 52.0832 35.4168 52.0832Z" fill="white"/>
<path fill-rule="evenodd" clip-rule="evenodd" d="M26.5779 34.9112C28.9221 32.567 32.1015 31.25 35.4167 31.25C38.732 31.25 41.9114 32.567 44.2556 34.9112C46.5998 37.2554 47.9167 40.4348 47.9167 43.75C47.9167 47.0652 46.5998 50.2446 44.2556 52.5888C41.9114 54.933 38.732 56.25 35.4167 56.25C32.1015 56.25 28.9221 54.933 26.5779 52.5888C24.2337 50.2446 22.9167 47.0652 22.9167 43.75C22.9167 40.4348 24.2337 37.2554 26.5779 34.9112ZM35.4167 47.9167C36.5218 47.9167 37.5816 47.4777 38.363 46.6963C39.1444 45.9149 39.5834 44.8551 39.5834 43.75C39.5834 42.6449 39.1444 41.5851 38.363 40.8037C37.5816 40.0223 36.5218 39.5833 35.4167 39.5833C34.3117 39.5833 33.2519 40.0223 32.4705 40.8037C31.6891 41.5851 31.2501 42.6449 31.2501 43.75C31.2501 44.8551 31.6891 45.9149 32.4705 46.6963C33.2519 47.4777 34.3117 47.9167 35.4167 47.9167Z" fill="white"/>
<path fill-rule="evenodd" clip-rule="evenodd" d="M54.1667 41.6667C54.1667 39.3655 56.0321 37.5 58.3333 37.5H75C77.3012 37.5 79.1667 39.3655 79.1667 41.6667C79.1667 43.9679 77.3012 45.8333 75 45.8333H58.3333C56.0321 45.8333 54.1667 43.9679 54.1667 41.6667ZM23.6316 52.7982C26.7572 49.6726 30.9964 47.9167 35.4167 47.9167C39.8369 47.9167 44.0762 49.6726 47.2018 52.7982C50.3274 55.9238 52.0833 60.1631 52.0833 64.5833C52.0833 66.8845 50.2179 68.75 47.9167 68.75C45.6155 68.75 43.75 66.8845 43.75 64.5833C43.75 62.3732 42.872 60.2536 41.3092 58.6908C39.7464 57.128 37.6268 56.25 35.4167 56.25C33.2065 56.25 31.0869 57.128 29.5241 58.6908C27.9613 60.2536 27.0833 62.3732 27.0833 64.5833C27.0833 66.8845 25.2179 68.75 22.9167 68.75C20.6155 68.75 18.75 66.8845 18.75 64.5833C18.75 60.1631 20.5059 55.9238 23.6316 52.7982ZM58.3333 58.3333C58.3333 56.0321 60.1988 54.1667 62.5 54.1667H75C77.3012 54.1667 79.1667 56.0321 79.1667 58.3333C79.1667 60.6345 77.3012 62.5 75 62.5H62.5C60.1988 62.5 58.3333 60.6345 58.3333 58.3333Z" fill="white"/>
</mask>
<g mask="url(#mask0_637_1146)">
<path d="M0 0H100V100H0V0Z" fill="white"/>
</g>
</svg>
