<svg width="120" height="120" viewBox="0 0 120 120" fill="none" xmlns="http://www.w3.org/2000/svg">
<g clip-path="url(#clip0_428_188)">
<path d="M74.5598 1.51099V29.5316H102.676L74.5598 1.51099Z" fill="#007934"/>
<path d="M103.881 41.1502C103.881 40.1366 103.765 39.123 103.682 37.7715H100.084C92.266 37.7715 84.4481 37.7847 76.6208 37.7715C68.617 37.7527 66.2801 35.382 66.2632 27.26C66.2463 19.3238 66.1806 11.3877 66.3045 3.45336C66.3495 0.998173 65.8221 -0.034206 63.0666 -0.000419081C50.9765 0.145991 38.8751 0.0277367 26.7925 0.0765401C18.6667 0.10845 14.2857 4.5871 14.2857 12.7635C14.2857 44.298 14.2857 75.8325 14.2857 107.367C14.2857 115.596 18.6161 119.985 26.7737 119.99C48.3511 120.005 69.9291 119.999 91.5077 119.971C93.068 120.004 94.6247 119.809 96.129 119.393C101.486 117.757 103.862 113.939 103.872 106.937C103.904 85.0094 103.904 63.0811 103.872 41.1521M80.358 80.1497C70.3758 88.3431 60.48 96.6415 50.3871 104.692C49.6577 105.153 48.8307 105.436 47.9722 105.52C47.1137 105.604 46.2475 105.486 45.4429 105.175C44.6283 104.76 44.3167 101.91 44.831 100.561C47.4457 93.7753 50.4115 87.1249 53.4335 79.9996C52.1196 79.8532 51.1454 79.6598 50.1674 79.6486C46.5241 79.6092 42.8657 79.8175 39.243 79.5359C37.8052 79.4233 35.502 78.4942 35.2843 77.5444C35.2173 76.7273 35.3343 75.9056 35.6266 75.1396C35.919 74.3737 36.3793 73.683 36.9736 73.1183C42.6893 68.1084 48.6301 63.3576 54.4978 58.5261C58.7587 55.016 63.0347 51.5247 67.2899 48.0146C68.8385 46.7344 70.7756 45.5876 72.1947 47.4083C72.6624 48.144 72.965 48.9723 73.0817 49.8363C73.1983 50.7002 73.1263 51.5792 72.8704 52.4125C70.6179 58.3459 67.9375 64.116 65.4279 69.9517C65.1107 70.6894 64.8742 71.4534 64.3843 72.818C69.1989 72.818 73.4692 72.5984 77.6982 72.925C78.6211 72.9738 79.525 73.2062 80.3569 73.6088C81.1888 74.0114 81.9319 74.5759 82.5429 75.2694C83.7798 77.2065 81.9666 78.8358 80.358 80.161" fill="#007934"/>
</g>
<defs>
<clipPath id="clip0_428_188">
<rect width="120" height="120" fill="white"/>
</clipPath>
</defs>
</svg>
