<svg width="120" height="120" viewBox="0 0 120 120" fill="none" xmlns="http://www.w3.org/2000/svg">
<g clip-path="url(#clip0_428_363)">
<path d="M74.6652 1.51196L102.831 29.5324H74.6652V1.51196Z" fill="#007934"/>
<path d="M104.036 41.1516C104.036 40.1383 103.92 39.125 103.837 37.7728H100.233C92.4016 37.7728 84.5734 37.7856 76.7397 37.7728C68.7218 37.7543 66.3802 35.3777 66.3617 27.2713C66.3433 19.3363 66.2807 11.3976 66.4023 3.4644C66.441 0.99933 65.9122 -0.0323892 63.1524 0.000773169C51.0407 0.148162 38.9272 0.0284085 26.8137 0.0763097C18.6742 0.109472 14.2857 4.58824 14.2857 12.7628C14.2857 44.2953 14.2857 75.8297 14.2857 107.366C14.2857 115.594 18.6245 119.982 26.7953 119.99C48.4123 120.004 70.0293 119.998 91.6462 119.969C93.2078 119.999 94.7655 119.803 96.2706 119.385C101.637 117.749 104.008 113.93 104.029 106.929C104.062 85.0015 104.062 63.0738 104.029 41.1461M50.5322 102.952C47.4162 101.601 44.7039 99.4647 42.6602 96.7522C40.6165 94.0397 39.3112 90.8435 38.872 87.4758C38.0171 82.5346 39.6089 78.1424 41.6042 73.8424C45.7103 65.402 50.5218 57.3235 55.9874 49.6928C56.252 49.1783 56.6449 48.7408 57.1281 48.4226C57.6113 48.1045 58.1685 47.9165 58.7457 47.8768C59.3229 47.8372 59.9005 47.9472 60.4227 48.1963C60.9449 48.4453 61.394 48.825 61.7264 49.2985C68.0033 58.385 74.1475 67.5673 78.0699 77.9858C78.7556 80.1949 79.3002 82.4452 79.7004 84.7233C78.805 99.7072 64.1859 109.042 50.5322 102.942" fill="#007934"/>
<path d="M58.6294 93.6316C57.1491 93.4363 55.7126 92.9915 54.3809 92.3161C52.9908 91.539 51.8327 90.4058 51.0255 89.0329C50.2183 87.6601 49.7912 86.0971 49.7879 84.5045C49.6903 83.0785 48.7765 82.2624 47.6287 82.3803C47.3327 82.4231 47.0487 82.5266 46.7946 82.6842C46.5404 82.8418 46.3215 83.0501 46.1515 83.2962C45.9815 83.5423 45.8641 83.8207 45.8067 84.1142C45.7492 84.4077 45.753 84.71 45.8176 85.0019C45.8766 85.516 45.9724 86.0263 46.035 86.5403C46.5143 89.5039 47.9918 92.2146 50.2228 94.2234C52.4537 96.2322 55.3041 97.4183 58.3014 97.5852C60.0554 97.6129 61.006 96.9994 60.9894 95.7282C60.971 94.2156 59.978 93.8489 58.6275 93.6334" fill="#007934"/>
</g>
<defs>
<clipPath id="clip0_428_363">
<rect width="120" height="120" fill="white"/>
</clipPath>
</defs>
</svg>
