<svg xmlns="http://www.w3.org/2000/svg" xmlns:xlink="http://www.w3.org/1999/xlink" viewBox="0 0 532.35 105.34"><defs><style>.cls-1{fill:url(#linear-gradient);}.cls-2{fill:#4fb412;fill-rule:evenodd;}</style><linearGradient id="linear-gradient" x1="281.25" y1="-242.26" x2="281.25" y2="-305.16" gradientTransform="translate(547.42 -209.6) rotate(180)" gradientUnits="userSpaceOnUse"><stop offset="0" stop-color="#fff"/><stop offset="1" stop-color="#f6f6f6"/></linearGradient></defs><g id="Layer_2" data-name="Layer 2"><g id="Capa_1" data-name="Capa 1"><path id="Path_44" data-name="Path 44" class="cls-1" d="M0,0S237.27,236.61,532.35.6C532.57,1.63,0,0,0,0Z"/><g id="logo-epm-remate"><path id="Path_33" data-name="Path 33" class="cls-2" d="M289,24.51a5.25,5.25,0,0,0,5.25,5.25h0a5.25,5.25,0,0,0,5.25-5.25h0a5.25,5.25,0,0,0-10.5,0m-.52,0a5.77,5.77,0,0,1,5.77-5.77h0a5.77,5.77,0,1,1-5.77,5.77Z"/><path id="Path_34" data-name="Path 34" class="cls-2" d="M292.16,27.36h.78V24.84h.86l1.46,2.52h1l-1.62-2.6a1.55,1.55,0,0,0,1.4-1.51c0-.72-.37-1.6-1.84-1.6h-2Zm.78-5h1c.61,0,1.22.14,1.22.92s-.61.92-1.22.92h-1Z"/><path id="Path_35" data-name="Path 35" class="cls-2" d="M259.53,51.83V44.58a7.26,7.26,0,0,0-7.25-7.26h0A7.26,7.26,0,0,0,245,44.57h0v7.23a3.43,3.43,0,0,1-3.43,3.42,3.36,3.36,0,0,1-3.41-3.31v-.11l0-6.72c0-10,7.37-14.81,14-14.81a13.34,13.34,0,0,1,10.64,5.08,13.71,13.71,0,0,1,10.66-5.08c8.32,0,14.51,7.16,14.83,15.46.29,7.45-2.7,19.87-18.6,26.1a3.37,3.37,0,0,1-4.27-2.13,3.42,3.42,0,0,1-.17-1.27,3.55,3.55,0,0,1,2.77-3.27,18.51,18.51,0,0,0,13.84-19.91c-.67-4.54-3.35-7.86-8.23-7.93a7.25,7.25,0,0,0-7.49,7v7.49a3.32,3.32,0,0,1-3.25,3.4h-.09A3.29,3.29,0,0,1,259.52,52v-.17"/></g></g></g></svg>