<svg width="100" height="100" viewBox="0 0 100 100" fill="none" xmlns="http://www.w3.org/2000/svg">
<path d="M52.6442 0C54.6372 0.324248 56.6614 0.490327 58.6074 1.00438C73.3786 4.91118 83.2729 14.0297 87.04 29.1982C89.2674 38.1822 87.8137 46.9528 84.2421 55.399C82.0068 60.6898 78.6775 65.253 75.1527 69.7055C67.7124 79.1008 60.3424 88.5356 52.9334 97.9626C52.7536 98.1919 52.5739 98.4213 52.3941 98.6506C50.9405 100.446 48.9241 100.454 47.5017 98.6506C44.9148 95.3765 42.3357 92.0866 39.7566 88.7966C33.6214 80.9751 27.3613 73.2485 21.3981 65.2926C14.966 56.7197 11.5506 47.016 11.9336 36.1418C12.3009 25.6552 16.4822 16.9242 24.1726 9.91726C29.8388 4.75301 36.5053 1.66869 44.0238 0.442876C45.0945 0.268889 46.173 0.142353 47.2516 0C49.0413 0 50.8467 0 52.6442 0ZM49.9245 92.3159C50.1667 92.0391 50.323 91.873 50.4559 91.699C57.9353 82.1772 65.4381 72.6633 72.894 63.1177C78.5055 55.9447 82.0068 47.9176 82.2491 38.6409C82.4367 31.373 80.475 24.7457 76.1062 18.9409C66.3603 5.99464 48.9397 2.10366 34.6453 9.61673C23.0315 15.7221 16.404 28.0831 17.7561 41.1875C18.5455 48.8587 21.3825 55.7312 26.017 61.797C31.8005 69.3654 37.7402 76.7994 43.6174 84.2967C45.6885 86.9381 47.7674 89.5796 49.9245 92.3159Z" fill="white"/>
<path d="M34.3937 39.8667C33.7919 40.0802 33.323 40.3096 32.8306 40.3966C31.588 40.6101 30.3531 39.9221 29.8139 38.7753C29.2355 37.5337 29.5013 36.213 30.6032 35.2482C33.3621 32.8519 36.1444 30.4872 38.911 28.1068C41.8028 25.6235 44.7023 23.1402 47.6018 20.6649C49.3212 19.186 50.5717 19.1781 52.2911 20.657C57.8557 25.4337 63.4203 30.2104 69.0005 34.9793C69.8915 35.7385 70.4854 36.6242 70.3447 37.8421C70.1103 39.8667 68.0939 40.9818 66.2416 40.1514C66.0463 40.0644 65.8509 39.9537 65.4992 39.7718C65.4992 40.2542 65.4992 40.5943 65.4992 40.9344C65.4992 45.3948 65.4992 49.8552 65.4992 54.3076C65.4992 56.7988 64.4363 57.8665 61.9666 57.8665C53.9558 57.8665 45.9528 57.8665 37.9419 57.8665C35.4332 57.8665 34.4015 56.7988 34.3937 54.2206C34.3937 49.7919 34.3937 45.371 34.3937 40.9423C34.3937 40.6022 34.3937 40.2621 34.3937 39.8667ZM49.9465 26.3274C46.7812 29.04 43.6863 31.6735 40.6304 34.3545C40.3491 34.5997 40.2084 35.1374 40.2006 35.5408C40.1693 40.6813 40.185 45.8218 40.185 50.9623C40.185 51.2787 40.185 51.595 40.185 51.9193C46.7499 51.9193 53.1899 51.9193 59.5829 51.9193C59.6454 51.8086 59.6767 51.7769 59.6767 51.7532C59.6923 46.2252 59.7079 40.6892 59.6923 35.1612C59.6923 34.8844 59.4969 34.5364 59.2859 34.3466C56.2066 31.6893 53.1117 29.0479 49.9465 26.3274Z" fill="white"/>
</svg>
