<svg width="50" height="50" viewBox="0 0 50 50" fill="none" xmlns="http://www.w3.org/2000/svg">
<path d="M21.3354 48.0275C22.2707 49.211 23.8336 49.9873 25.5887 49.9873C27.3438 49.9873 28.9068 49.211 29.842 48.0148H21.3354V48.0275Z" fill="#D4B012"/>
<path d="M29.8422 46.7167H21.1948C20.4774 46.7167 19.9009 46.1441 19.9009 45.4314C19.9009 44.7188 20.4774 44.1461 21.1948 44.1461H29.8422C30.5596 44.1461 31.1361 44.7188 31.1361 45.4314C31.1361 46.1441 30.5596 46.7167 29.8422 46.7167Z" fill="#D4B012"/>
<path d="M29.8422 42.7972H21.1948C20.4774 42.7972 19.9009 42.2245 19.9009 41.5118C19.9009 40.7992 20.4774 40.2265 21.1948 40.2265H29.8422C30.5596 40.2265 31.1361 40.7992 31.1361 41.5118C31.1361 42.2245 30.5596 42.7972 29.8422 42.7972Z" fill="#D4B012"/>
<path d="M39.2199 22.7539C39.0533 22.7539 38.8868 22.7284 38.7202 22.6521C38.0669 22.3848 37.7466 21.6213 38.0284 20.9722C39.5273 17.3835 39.3992 13.0058 37.6954 9.81164C34.3645 3.58868 26.7676 0.890793 20.3877 3.65231C15.3145 5.85389 12.5473 9.58257 12.163 14.7493C11.9964 17.0018 12.3167 19.0888 13.1238 20.9595C13.4057 21.6085 13.0982 22.3721 12.4448 22.6521C11.7915 22.932 11.0228 22.6266 10.741 21.9776C9.76733 19.7124 9.37019 17.2181 9.57517 14.5584C10.0236 8.46269 13.4057 3.86865 19.35 1.29802C26.9597 -1.99798 36.0299 1.20894 39.9757 8.61541C42.0639 12.5095 42.2305 17.6253 40.4113 21.9649C40.2063 22.4612 39.7195 22.7539 39.2199 22.7539Z" fill="#D4B012"/>
<path d="M15.5447 16.4291C15.5447 16.4291 15.4422 16.4291 15.391 16.4291C14.6864 16.34 14.1739 15.7038 14.2508 15.0038C14.4558 13.324 14.9554 11.7715 15.7369 10.3971C17.3511 7.58464 19.9261 5.82847 23.3594 5.19217C24.064 5.06491 24.743 5.52304 24.8711 6.22297C24.9992 6.92289 24.538 7.59736 23.8334 7.72462C21.1431 8.22093 19.2215 9.51897 17.9788 11.6696C17.3511 12.7641 16.9667 13.9476 16.813 15.3092C16.7361 15.9583 16.1725 16.4419 15.5319 16.4419L15.5447 16.4291Z" fill="#D4B012"/>
<path d="M34.3258 27.4497C34.2489 27.5261 34.1592 27.6024 34.0824 27.6661C33.6468 28.0351 33.224 28.4169 32.8141 28.7859C32.5322 29.0405 32.2632 29.295 31.9814 29.5368C30.3159 31.013 29.432 32.6673 29.3039 34.6144C29.2654 35.0852 29.2142 35.5688 29.1501 36.0906V36.2051C28.8555 36.2051 28.5736 36.2051 28.2918 36.2051H21.9375C21.8222 35.2761 21.7069 34.3853 21.6044 33.5963C21.4379 32.3746 20.8358 31.2675 19.8237 30.2749C19.1575 29.6258 18.4785 29.0023 17.8124 28.4042C17.5049 28.1242 17.2102 27.8569 16.9156 27.577C16.8643 27.5388 16.8259 27.4879 16.7747 27.4497H34.3386M39.1811 24.8791H11.8809C12.5983 26.5462 13.6616 28.086 15.1477 29.4604C16.1085 30.3512 17.0821 31.2166 18.0173 32.1201C18.5298 32.6164 18.9397 33.2145 19.0422 33.9399C19.2088 35.1616 19.3625 36.396 19.4906 37.6177C19.5675 38.4194 19.9262 38.763 20.7333 38.763C21.297 38.763 21.8606 38.763 22.4243 38.763C23.4492 38.763 24.4741 38.763 25.499 38.763H25.8193C26.6392 38.763 27.4591 38.763 28.279 38.763C28.9836 38.763 29.6754 38.763 30.38 38.763C31.1486 38.763 31.5073 38.394 31.5842 37.6559C31.6739 36.7014 31.8148 35.747 31.8917 34.7926C31.9942 33.3927 32.6988 32.3492 33.7108 31.4584C34.4026 30.8475 35.0816 30.2112 35.7862 29.6131C37.2979 28.3151 38.4253 26.6734 39.1811 24.8791Z" fill="#D4B012"/>
</svg>
