<svg width="100" height="100" viewBox="0 0 100 100" fill="none" xmlns="http://www.w3.org/2000/svg">
<path d="M42.6711 96.0549C44.5416 98.422 47.6674 99.9745 51.1777 99.9745C54.6879 99.9745 57.8138 98.4219 59.6842 96.0295H42.6711V96.0549Z" fill="white"/>
<path d="M59.6846 93.4334H42.3897C40.9549 93.4334 39.8019 92.2881 39.8019 90.8628C39.8019 89.4375 40.9549 88.2921 42.3897 88.2921H59.6846C61.1194 88.2921 62.2724 89.4375 62.2724 90.8628C62.2724 92.2881 61.1194 93.4334 59.6846 93.4334Z" fill="white"/>
<path d="M59.6846 85.5944H42.3897C40.9549 85.5944 39.8019 84.4491 39.8019 83.0238C39.8019 81.5985 40.9549 80.4531 42.3897 80.4531H59.6846C61.1194 80.4531 62.2724 81.5985 62.2724 83.0238C62.2724 84.4491 61.1194 85.5944 59.6846 85.5944Z" fill="white"/>
<path d="M78.4396 45.5077C78.1065 45.5077 77.7735 45.4568 77.4404 45.3041C76.1336 44.7696 75.4931 43.2425 76.0568 41.9445C79.0546 34.7671 78.7983 26.0117 75.3906 19.6233C68.7289 7.17734 53.535 1.78157 40.7752 7.3046C30.6289 11.7078 25.0945 19.1651 24.3259 29.4985C23.9928 34.0035 24.6333 38.1776 26.2475 41.919C26.8112 43.217 26.1963 44.7441 24.8895 45.3041C23.5828 45.864 22.0455 45.2532 21.4818 43.9551C19.5345 39.4247 18.7403 34.4362 19.1502 29.1168C20.047 16.9254 26.8112 7.73728 38.6998 2.59602C53.9193 -3.99598 72.0597 2.41786 79.9513 17.2308C84.1277 25.019 84.4608 35.2506 80.8225 43.9297C80.4125 44.9223 79.4389 45.5077 78.4396 45.5077Z" fill="white"/>
<path d="M31.0897 32.8582C31.0897 32.8582 30.8847 32.8582 30.7822 32.8582C29.373 32.6801 28.3481 31.4075 28.5018 30.0077C28.9118 26.648 29.9111 23.5429 31.474 20.7941C34.7024 15.1693 39.8524 11.6569 46.7191 10.3843C48.1283 10.1298 49.4863 11.0461 49.7425 12.4459C49.9987 13.8458 49.0763 15.1947 47.6671 15.4492C42.2865 16.4419 38.4432 19.0379 35.9579 23.3393C34.7024 25.5281 33.9337 27.8952 33.6262 30.6185C33.4725 31.9165 32.3451 32.8837 31.064 32.8837L31.0897 32.8582Z" fill="white"/>
<path d="M68.6517 54.8996C68.4979 55.0523 68.3186 55.205 68.1649 55.3322C67.2937 56.0703 66.4482 56.8339 65.6283 57.572C65.0646 58.081 64.5265 58.5901 63.9628 59.0736C60.632 62.026 58.864 65.3348 58.6078 69.2289C58.531 70.1706 58.4285 71.1378 58.3004 72.1813V72.4104C57.7111 72.4104 57.1474 72.4104 56.5837 72.4104H43.8751C43.6445 70.5524 43.414 68.7708 43.209 67.1928C42.8759 64.7494 41.6717 62.5351 39.6475 60.5498C38.3152 59.2518 36.9572 58.0047 35.6248 56.8084C35.0099 56.2485 34.4206 55.714 33.8313 55.1541C33.7288 55.0777 33.652 54.9759 33.5495 54.8996H68.6773M78.3624 49.7583H23.7618C25.1967 53.0925 27.3233 56.1721 30.2955 58.9209C32.2171 60.7026 34.1644 62.4333 36.0348 64.2403C37.0597 65.233 37.8796 66.4292 38.0846 67.88C38.4177 70.3233 38.7251 72.7921 38.9813 75.2355C39.1351 76.839 39.8525 77.5262 41.4667 77.5262C42.594 77.5262 43.7214 77.5262 44.8488 77.5262C46.8986 77.5262 48.9483 77.5262 50.9981 77.5262H51.6386C53.2784 77.5262 54.9183 77.5262 56.5581 77.5262C57.9673 77.5262 59.3509 77.5262 60.7601 77.5262C62.2974 77.5262 63.0148 76.7881 63.1685 75.3119C63.3479 73.403 63.6297 71.4941 63.7835 69.5852C63.9885 66.7855 65.3977 64.6985 67.4218 62.9169C68.8054 61.6952 70.1634 60.4226 71.5726 59.2264C74.596 56.6303 76.8507 53.347 78.3624 49.7583Z" fill="white"/>
</svg>
