<svg width="120" height="121" viewBox="0 0 120 121" fill="none" xmlns="http://www.w3.org/2000/svg">
<path d="M108.405 36.4344H25.5395C22.4697 36.4435 19.5282 37.667 17.3575 39.8377C15.1868 42.0084 13.9633 44.9499 13.9542 48.0197V95.3973C13.9633 98.4672 15.1868 101.409 17.3575 103.579C19.5282 105.75 22.4697 106.974 25.5395 106.983H109.254C115.627 106.983 119.99 101.769 119.99 95.3973V48.0197C119.981 44.9499 118.757 42.0084 116.587 39.8377C114.416 37.667 111.475 36.4435 108.405 36.4344ZM18.2072 49.764V48.0197C18.2092 46.0749 18.9827 44.2103 20.3579 42.8351C21.7331 41.4599 23.5977 40.6865 25.5425 40.6845H108.405C110.35 40.6865 112.214 41.4599 113.589 42.8351C114.965 44.2103 115.738 46.0749 115.74 48.0197V49.764H18.2072ZM25.5425 102.733C23.5978 102.73 21.7334 101.957 20.3583 100.582C18.9832 99.2064 18.2096 97.342 18.2072 95.3973V58.5343H115.74V95.3973C115.74 99.0426 113.512 102.733 109.254 102.733H25.5425Z" fill="white"/>
<path d="M109.184 91.5505L108.984 91.7685C107.098 93.8219 106.168 94.2519 105.718 94.2519C105.561 94.2396 105.41 94.1834 105.283 94.0897C105.156 93.9959 105.058 93.8685 105 93.7218C104.748 93.2121 104.63 92.647 104.655 92.0791C104.71 91.0206 104.869 89.9702 105.131 88.9431L106.56 83.2953C106.937 81.9768 107.173 80.6224 107.265 79.2544C107.319 78.3797 107.028 77.5188 106.454 76.8561C106.162 76.5646 105.811 76.3378 105.425 76.1902C105.039 76.0425 104.627 75.9774 104.214 75.9989C103.254 76.0847 102.324 76.376 101.486 76.8532C100.648 77.3304 99.9231 77.9823 99.3596 78.7645C97.5363 81.0332 95.9478 83.4808 94.6183 86.0699L95.3052 82.9698C95.5874 81.7703 95.7657 80.5487 95.8383 79.3186C95.8383 76.6306 94.2569 76.0631 92.9308 76.0631C91.2463 76.0631 89.3468 77.2578 87.292 79.6307C85.0485 82.3208 83.229 85.3378 81.8965 88.5773L80.6421 95.5601L80.5346 96.0469C80.557 95.9603 80.5794 95.8722 80.6003 95.7841L80.5734 95.9424L80.6735 96.1201C81.1095 94.4446 81.6053 92.9333 82.0742 91.6401C82.5269 90.3862 83.0463 89.1574 83.6303 87.959C84.2407 86.725 84.9162 85.5241 85.6538 84.3616C86.5991 82.7526 87.7419 81.2682 89.0556 79.9428C89.7155 79.1624 90.631 78.6417 91.639 78.4734C92.0706 78.4734 92.5649 78.6137 92.5649 79.7128C92.5493 80.2562 92.4812 80.7968 92.3618 81.3271L89.2706 97.2147L92.1946 96.2829L92.2364 96.1335C92.7922 94.0064 93.4861 91.9178 94.3136 89.8809C95.1285 87.9937 96.0653 86.1615 97.1181 84.3959C97.8179 83.1937 98.5925 82.0366 99.4373 80.9314C99.9774 80.2076 100.617 79.564 101.338 79.0199C101.774 78.6723 102.304 78.4642 102.86 78.4226C103.013 78.4127 103.166 78.4341 103.31 78.4854C103.454 78.5368 103.586 78.617 103.698 78.7212C103.8 78.8275 103.879 78.9537 103.931 79.0919C103.982 79.2301 104.004 79.3774 103.996 79.5247C103.978 80.0715 103.909 80.6154 103.79 81.1494L103.583 82.3993L102.294 89.6077C102.044 90.7142 101.89 91.8404 101.834 92.9736C101.8 93.9997 102.079 95.0119 102.634 95.8752C102.846 96.2396 103.148 96.5437 103.51 96.7583C103.873 96.973 104.284 97.091 104.706 97.1012C105.442 97.0434 106.134 96.7258 106.658 96.2052C107.726 95.2129 108.724 94.1476 109.644 93.0169L110.131 92.4196L109.184 91.5505Z" fill="white"/>
<path d="M80.3644 97.1101C80.3644 97.1101 80.8706 93.1065 81.4605 84.2107C81.9369 77.0218 80.0687 74.513 80.0687 74.513C82.5984 76.4931 83.5109 78.7152 83.6109 82.8189C84.3501 80.8964 85.343 79.0814 86.5632 77.422C88.3 74.7982 93.8119 66.8059 110.118 63.9028C110.118 63.9028 95.0753 66.9537 88.5673 78.7257C84.2979 85.1739 80.5824 96.1977 80.3659 97.1101" fill="white"/>
</svg>
