<svg width="120" height="120" viewBox="0 0 120 120" fill="none" xmlns="http://www.w3.org/2000/svg">
<path d="M47.5 52.5H60C61.3261 52.5 62.5979 51.9732 63.5356 51.0355C64.4733 50.0978 65 48.8261 65 47.5C65 46.1739 64.4733 44.9021 63.5356 43.9644C62.5979 43.0268 61.3261 42.5 60 42.5H55V40C55 38.6739 54.4733 37.4021 53.5356 36.4644C52.5979 35.5268 51.3261 35 50 35C48.674 35 47.4022 35.5268 46.4645 36.4644C45.5268 37.4021 45 38.6739 45 40V42.75C41.9622 43.3668 39.2618 45.0905 37.4233 47.5863C35.5848 50.0821 34.7392 53.172 35.0508 56.2562C35.3623 59.3404 36.8087 62.1988 39.1092 64.2766C41.4097 66.3543 44.4002 67.5031 47.5 67.5H52.5C53.1631 67.5 53.799 67.7634 54.2678 68.2322C54.7367 68.7011 55 69.3369 55 70C55 70.663 54.7367 71.2989 54.2678 71.7678C53.799 72.2366 53.1631 72.5 52.5 72.5H40C38.674 72.5 37.4022 73.0268 36.4645 73.9645C35.5268 74.9021 35 76.1739 35 77.5C35 78.8261 35.5268 80.0978 36.4645 81.0355C37.4022 81.9732 38.674 82.5 40 82.5H45V85C45 86.3261 45.5268 87.5978 46.4645 88.5355C47.4022 89.4732 48.674 90 50 90C51.3261 90 52.5979 89.4732 53.5356 88.5355C54.4733 87.5978 55 86.3261 55 85V82.25C58.0379 81.6331 60.7382 79.9095 62.5768 77.4137C64.4153 74.9179 65.2609 71.8279 64.9493 68.7437C64.6378 65.6596 63.1914 62.8011 60.8909 60.7234C58.5904 58.6457 55.5999 57.4969 52.5 57.5H47.5C46.837 57.5 46.2011 57.2366 45.7323 56.7677C45.2634 56.2989 45 55.663 45 55C45 54.3369 45.2634 53.7011 45.7323 53.2322C46.2011 52.7634 46.837 52.5 47.5 52.5ZM105 60H90V15C90.0035 14.1189 89.7742 13.2526 89.3352 12.4887C88.8961 11.7248 88.2631 11.0905 87.5 10.65C86.74 10.2111 85.8777 9.9801 85 9.9801C84.1224 9.9801 83.2601 10.2111 82.5 10.65L67.5 19.25L52.5 10.65C51.7399 10.2111 50.8777 9.9801 50 9.9801C49.1224 9.9801 48.2601 10.2111 47.5 10.65L32.5 19.25L17.5 10.65C16.7399 10.2111 15.8777 9.9801 15 9.9801C14.1224 9.9801 13.2601 10.2111 12.5 10.65C11.737 11.0905 11.1039 11.7248 10.6649 12.4887C10.2259 13.2526 9.99654 14.1189 10 15V95C10 98.9782 11.5804 102.794 14.3934 105.607C17.2065 108.42 21.0218 110 25 110H95C98.9783 110 102.794 108.42 105.607 105.607C108.42 102.794 110 98.9782 110 95V65C110 63.6739 109.473 62.4021 108.536 61.4645C107.598 60.5268 106.326 60 105 60ZM25 100C23.674 100 22.4022 99.4732 21.4645 98.5355C20.5268 97.5978 20 96.3261 20 95V23.65L30 29.35C30.7717 29.753 31.6294 29.9635 32.5 29.9635C33.3707 29.9635 34.2284 29.753 35 29.35L50 20.75L65 29.35C65.7717 29.753 66.6294 29.9635 67.5 29.9635C68.3707 29.9635 69.2284 29.753 70 29.35L80 23.65V95C80.0136 96.7057 80.3179 98.3966 80.9 100H25ZM100 95C100 96.3261 99.4733 97.5978 98.5356 98.5355C97.5979 99.4732 96.3261 100 95 100C93.674 100 92.4022 99.4732 91.4645 98.5355C90.5268 97.5978 90 96.3261 90 95V70H100V95Z" fill="#007934"/>
</svg>
