<svg width="70" height="70" viewBox="0 0 70 70" fill="none" xmlns="http://www.w3.org/2000/svg">
<path d="M35 70C41.9223 70 48.6892 67.9473 54.445 64.1014C60.2007 60.2556 64.6867 54.7894 67.3358 48.3939C69.9848 41.9985 70.678 34.9612 69.3275 28.1719C67.977 21.3825 64.6436 15.1461 59.7487 10.2513C54.8539 5.35644 48.6175 2.02301 41.8282 0.672531C35.0388 -0.677952 28.0015 0.0151649 21.6061 2.66423C15.2107 5.3133 9.74441 9.79934 5.89856 15.5551C2.05271 21.3108 0 28.0777 0 35C0 44.2826 3.68749 53.185 10.2513 59.7487C13.5013 62.9988 17.3597 65.5769 21.6061 67.3358C25.8525 69.0947 30.4037 70 35 70ZM22.085 28.49L32.585 18.48C32.7368 18.3319 32.9149 18.2132 33.11 18.13C33.2747 17.9814 33.4642 17.8629 33.67 17.78C34.0889 17.5948 34.542 17.4992 35 17.4992C35.458 17.4992 35.911 17.5948 36.33 17.78C36.7596 17.9466 37.1521 18.1964 37.485 18.515L47.985 29.015C48.6441 29.6741 49.0143 30.568 49.0143 31.5C49.0143 32.4321 48.6441 33.326 47.985 33.985C47.3259 34.6441 46.4321 35.0143 45.5 35.0143C44.5679 35.0143 43.6741 34.6441 43.015 33.985L38.5 29.435V49C38.5 49.9283 38.1312 50.8185 37.4749 51.4749C36.8185 52.1313 35.9283 52.5 35 52.5C34.0717 52.5 33.1815 52.1313 32.5251 51.4749C31.8687 50.8185 31.5 49.9283 31.5 49V29.19L26.915 33.565C26.242 34.2055 25.3422 34.5524 24.4134 34.5295C23.4846 34.5065 22.603 34.1155 21.9625 33.4425C21.322 32.7695 20.9751 31.8697 20.9981 30.9409C21.021 30.0121 21.412 29.1305 22.085 28.49Z" fill="#8B8D8E"/>
</svg>
