<svg xmlns="http://www.w3.org/2000/svg" xmlns:xlink="http://www.w3.org/1999/xlink" viewBox="0 0 1643.74 207.65"><defs><style>.cls-1{fill:#008c6b;}.cls-2{fill:#005b27;}.cls-3{fill:#007934;}.cls-4{fill:#4fb412;}.cls-5{fill:#1f8834;}.cls-6{fill:#d58a00;}.cls-7{fill:url(#linear-gradient);}</style><linearGradient id="linear-gradient" x1="244.8" y1="105.74" x2="244.8" y2="81.22" gradientUnits="userSpaceOnUse"><stop offset="0" stop-color="#4fb412" stop-opacity="0"/><stop offset="1" stop-color="#4fb412"/></linearGradient></defs><g id="Layer_2" data-name="Layer 2"><g id="Capa_1" data-name="Capa 1"><path class="cls-1" d="M1183.77,68.73c0,12.25-4,22.19-9,22.19s-9-9.94-9-22.19,9-22.2,9-22.2S1183.77,56.47,1183.77,68.73Z"/><path class="cls-1" d="M1201,68.73c0,12.25-4,22.19-9,22.19s-9-9.94-9-22.19,9-22.2,9-22.2S1201,56.47,1201,68.73Z"/><path class="cls-1" d="M209.29,90.92c0,12.26-4,22.19-9,22.19s-9-9.93-9-22.19,9-22.19,9-22.19S209.29,78.66,209.29,90.92Z"/><polygon class="cls-2" points="253.79 46.9 238.48 96.98 269.09 96.98 253.79 46.9"/><polygon class="cls-2" points="273.65 46.9 258.35 96.98 288.96 96.98 273.65 46.9"/><path id="Path_44" data-name="Path 44" class="cls-3" d="M1643.61,207.52l.13-81.5S910.22-32.28,0,125.55l.3,82.1Z"/><rect class="cls-4" x="1197.23" y="50.06" width="49.13" height="35.43"/><path class="cls-3" d="M1211.67,64.62h0a4.92,4.92,0,0,1,4.92,4.92V86a0,0,0,0,1,0,0h-9.83a0,0,0,0,1,0,0V69.54a4.92,4.92,0,0,1,4.92-4.92Z"/><path class="cls-3" d="M1229.17,62.51h0a4.92,4.92,0,0,1,4.92,4.92V70.7a0,0,0,0,1,0,0h-9.83a0,0,0,0,1,0,0V67.43a4.92,4.92,0,0,1,4.92-4.92Z"/><polygon class="cls-5" points="1262.74 29.82 1213.61 29.82 1197.23 50.06 1246.36 50.06 1262.74 29.82"/><path class="cls-1" d="M1258.92,80.25a6.32,6.32,0,0,1,3.14.84,6.31,6.31,0,0,1,12.22-1.61,6.21,6.21,0,0,1,6.31-.66V50.06l-17.85-20.24-16.38,20.24V85.49h6.34A6.32,6.32,0,0,1,1258.92,80.25Z"/><ellipse class="cls-4" cx="1284.94" cy="52.5" rx="11.57" ry="16.17"/><rect class="cls-6" x="1283.56" y="58.58" width="3.11" height="30.12"/><path class="cls-6" d="M1177.48,12.61a8.22,8.22,0,0,1-.16,1.58,8.14,8.14,0,0,1,8.47.58,8.13,8.13,0,1,0-12.41-9.22A8.15,8.15,0,0,1,1177.48,12.61Z"/><path class="cls-7" d="M226.09,94.91l2,.35,4,.7,3.94,1,2,.49,1.93.62c1.27.43,2.56.8,3.81,1.28a75.17,75.17,0,0,1,14.17,7c.63.38,1.24.79,1.84,1.21h18l.12-.13c-.44-.4-.73-.61-1.07-.88s-.65-.48-1-.72c-.64-.47-1.28-.9-1.92-1.31s-1.29-.84-1.94-1.22-1.29-.78-1.95-1.14c-1.33-.69-2.62-1.43-4-2s-2.67-1.27-4.05-1.79a82.93,82.93,0,0,0-16.72-4.83c-1.41-.26-2.84-.4-4.26-.61L239,92.64l-2.13-.14-4.25-.27-4.24,0h-2.11c-.7,0-1.41.11-2.11.16l-4.18.34a18.18,18.18,0,0,0-2.08.26l-2.07.32-4.11.65,4.16.1,2.06,0a17.66,17.66,0,0,1,2.06.12l4.11.41C224.74,94.76,225.42,94.81,226.09,94.91Z"/></g></g></svg>