<svg width="100" height="100" viewBox="0 0 100 100" fill="none" xmlns="http://www.w3.org/2000/svg">
<path d="M49.9034 97.6192C36.4795 97.6192 25.958 91.2201 25.958 83.0619C26.0008 80.6755 26.8541 78.38 28.3696 76.5749C28.7404 76.1083 29.2758 75.8126 29.8581 75.7528C30.4405 75.693 31.022 75.874 31.4748 76.256C31.9276 76.638 32.2146 77.1897 32.2727 77.7897C32.3307 78.3898 32.155 78.989 31.7843 79.4555C30.9063 80.444 30.3993 81.7227 30.3544 83.0619C30.3544 87.8996 38.2081 93.0892 49.9034 93.0892C61.5987 93.0892 69.4737 87.8996 69.4737 83.0619C69.4146 81.5947 68.8201 80.2046 67.8091 79.1697C67.4214 78.7206 67.2227 78.1312 67.2567 77.5312C67.2907 76.9312 67.5547 76.3696 67.9905 75.9701C68.4263 75.5706 68.9983 75.3659 69.5807 75.401C70.163 75.436 70.708 75.708 71.0957 76.1571C72.8205 78.0239 73.8095 80.4852 73.8701 83.0619C73.8701 91.2201 63.3487 97.6192 49.9034 97.6192Z" fill="white"/>
<path d="M49.9048 89.4168C42.1151 89.4168 35.5419 86.1183 35.5419 82.2041C35.5209 81.9153 35.5552 81.6251 35.6431 81.35C35.7309 81.075 35.8705 80.8204 36.0538 80.6009C36.424 80.1576 36.95 79.884 37.516 79.8402C38.082 79.7965 38.6417 79.9862 39.0719 80.3676C39.5022 80.7491 39.7678 81.291 39.8102 81.8742C40.3864 82.6439 43.6517 84.8869 49.7981 84.8869C55.9445 84.8869 59.2312 82.6879 59.7861 81.8742C59.8285 81.2735 60.1008 80.7148 60.5431 80.321C60.9853 79.9272 61.5613 79.7305 62.1443 79.7742C62.7273 79.818 63.2696 80.0985 63.6518 80.5542C64.034 81.0099 64.2249 81.6034 64.1824 82.2041C64.2892 86.1183 57.6946 89.4168 49.9048 89.4168Z" fill="white"/>
<path d="M49.9034 97.6192C36.4795 97.6192 25.958 91.2201 25.958 83.0619C26.0008 80.6755 26.8541 78.38 28.3696 76.5749C28.7404 76.1083 29.2758 75.8126 29.8581 75.7528C30.4405 75.693 31.022 75.874 31.4748 76.256C31.9276 76.638 32.2146 77.1897 32.2727 77.7897C32.3307 78.3898 32.155 78.989 31.7843 79.4555C30.9063 80.444 30.3993 81.7227 30.3544 83.0619C30.3544 87.8996 38.2081 93.0892 49.9034 93.0892C61.5987 93.0892 69.4737 87.8996 69.4737 83.0619C69.4146 81.5947 68.8201 80.2046 67.8091 79.1697C67.4214 78.7206 67.2227 78.1312 67.2567 77.5312C67.2907 76.9312 67.5547 76.3696 67.9905 75.9701C68.4263 75.5706 68.9983 75.3659 69.5807 75.401C70.163 75.436 70.708 75.708 71.0957 76.1571C72.8205 78.0239 73.8095 80.4852 73.8701 83.0619C73.8701 91.2201 63.3487 97.6192 49.9034 97.6192Z" fill="white"/>
<path d="M49.9048 89.4168C42.1151 89.4168 35.5419 86.1183 35.5419 82.2041C35.5209 81.9153 35.5552 81.6251 35.6431 81.35C35.7309 81.075 35.8705 80.8204 36.0538 80.6009C36.424 80.1576 36.95 79.884 37.516 79.8402C38.082 79.7965 38.6417 79.9862 39.0719 80.3676C39.5022 80.7491 39.7678 81.291 39.8102 81.8742C40.3864 82.6439 43.6517 84.8869 49.7981 84.8869C55.9445 84.8869 59.2312 82.6879 59.7861 81.8742C59.8285 81.2735 60.1008 80.7148 60.5431 80.321C60.9853 79.9272 61.5613 79.7305 62.1443 79.7742C62.7273 79.818 63.2696 80.0985 63.6518 80.5542C64.034 81.0099 64.2249 81.6034 64.1824 82.2041C64.2892 86.1183 57.6946 89.4168 49.9048 89.4168Z" fill="white"/>
<path d="M53.8952 78.29H52.1452C51.4319 78.2877 50.7194 78.2436 50.011 78.158C34.837 76.4208 23.3338 60.9839 23.8247 42.9742C24.4223 20.4566 39.4682 6.03125 54.0019 3.39247L59.8282 2.38094L56.1574 6.97681C53.2962 10.4986 51.4271 14.7615 50.7536 19.3016C50.08 23.8417 50.6278 28.4853 52.3372 32.727C54.2183 29.9257 56.6879 27.5972 59.5625 25.9145C62.437 24.2318 65.6426 23.2382 68.9411 23.0074L72.9106 22.6776L70.9899 26.2619C70.1176 27.8688 69.5729 29.6422 69.3893 31.4735C69.0513 35.0096 69.9939 38.5496 72.0356 41.413C75.2079 46.24 76.6354 52.061 76.0692 57.8614C75.4874 63.4925 72.8968 68.7003 68.7997 72.4749C64.7026 76.2495 59.3911 78.3218 53.8952 78.29ZM49.3921 9.39571C39.7243 13.4858 28.6479 24.2389 28.0504 43.0842C27.6235 58.4771 37.6755 72.2647 50.4592 73.7161C51.0567 73.7161 51.6543 73.76 52.2519 73.848C56.9265 74.2552 61.5704 72.7627 65.1913 69.6892C68.8122 66.6157 71.1231 62.2051 71.6301 57.3996C72.1025 52.6652 70.9469 47.9101 68.3648 43.9638C65.6984 40.2365 64.4804 35.6168 64.9502 31.0118C65.0588 30.0087 65.2444 29.016 65.5051 28.0431C62.916 28.7578 60.5216 30.0779 58.5081 31.9009C56.4946 33.7239 54.9161 36.0006 53.8952 38.5543L52.1665 42.7543L50.0323 38.7522L49.4774 37.6527L49.3494 37.3668C49.1146 36.8611 48.9439 36.4432 48.7732 36.0474C46.9175 31.8449 46.0092 27.2641 46.1164 22.6484C46.2236 18.0327 47.3435 13.5019 49.3921 9.39571Z" fill="white"/>
<path d="M39.19 62.9191C38.8765 62.9197 38.5667 62.849 38.2827 62.7122C37.9986 62.5753 37.7474 62.3757 37.5467 62.1275C33.6354 57.2299 31.4734 51.0978 31.4216 44.7555C31.4216 44.1723 31.6465 43.613 32.0467 43.2006C32.4469 42.7882 32.9898 42.5565 33.5558 42.5565C34.1218 42.5565 34.6647 42.7882 35.0649 43.2006C35.4651 43.613 35.69 44.1723 35.69 44.7555C35.746 50.0898 37.5596 55.246 40.8333 59.3788C41.013 59.601 41.1484 59.8575 41.2317 60.1337C41.3151 60.4099 41.3447 60.7004 41.3189 60.9884C41.2931 61.2764 41.2125 61.5563 41.0816 61.8122C40.9506 62.068 40.772 62.2947 40.5559 62.4793C40.1633 62.7835 39.6809 62.9389 39.19 62.9191Z" fill="white"/>
<path d="M49.9034 97.6192C36.4795 97.6192 25.958 91.2201 25.958 83.0619C26.0008 80.6755 26.8541 78.38 28.3696 76.5749C28.7404 76.1083 29.2758 75.8126 29.8581 75.7528C30.4405 75.693 31.022 75.874 31.4748 76.256C31.9276 76.638 32.2146 77.1897 32.2727 77.7897C32.3307 78.3898 32.155 78.989 31.7843 79.4555C30.9063 80.444 30.3993 81.7227 30.3544 83.0619C30.3544 87.8996 38.2081 93.0892 49.9034 93.0892C61.5987 93.0892 69.4737 87.8996 69.4737 83.0619C69.4146 81.5947 68.8201 80.2046 67.8091 79.1697C67.4214 78.7206 67.2227 78.1312 67.2567 77.5312C67.2907 76.9312 67.5547 76.3696 67.9905 75.9701C68.4263 75.5706 68.9983 75.3659 69.5807 75.401C70.163 75.436 70.708 75.708 71.0957 76.1571C72.8205 78.0239 73.8095 80.4852 73.8701 83.0619C73.8701 91.2201 63.3487 97.6192 49.9034 97.6192Z" fill="white"/>
<path d="M49.9048 89.4168C42.1151 89.4168 35.5419 86.1183 35.5419 82.2041C35.5209 81.9153 35.5552 81.6251 35.6431 81.35C35.7309 81.075 35.8705 80.8204 36.0538 80.6009C36.424 80.1576 36.95 79.884 37.516 79.8402C38.082 79.7965 38.6417 79.9862 39.0719 80.3676C39.5022 80.7491 39.7678 81.291 39.8102 81.8742C40.3864 82.6439 43.6517 84.8869 49.7981 84.8869C55.9445 84.8869 59.2312 82.6879 59.7861 81.8742C59.8285 81.2735 60.1008 80.7148 60.5431 80.321C60.9853 79.9272 61.5613 79.7305 62.1443 79.7742C62.7273 79.818 63.2696 80.0985 63.6518 80.5542C64.034 81.0099 64.2249 81.6034 64.1824 82.2041C64.2892 86.1183 57.6946 89.4168 49.9048 89.4168Z" fill="white"/>
</svg>
