<svg width="50" height="50" viewBox="0 0 50 50" fill="none" xmlns="http://www.w3.org/2000/svg">
<path d="M24.9517 48.8095C18.2397 48.8095 12.979 45.61 12.979 41.5309C13.0004 40.3377 13.4271 39.1899 14.1848 38.2874C14.3702 38.0541 14.6379 37.9062 14.9291 37.8763C15.2202 37.8464 15.511 37.9369 15.7374 38.1279C15.9638 38.3189 16.1073 38.5948 16.1363 38.8948C16.1654 39.1948 16.0775 39.4944 15.8921 39.7277C15.4532 40.2219 15.1997 40.8613 15.1772 41.5309C15.1772 43.9498 19.1041 46.5446 24.9517 46.5446C30.7993 46.5446 34.7369 43.9498 34.7369 41.5309C34.7073 40.7973 34.41 40.1022 33.9045 39.5848C33.7107 39.3602 33.6113 39.0655 33.6283 38.7655C33.6454 38.4655 33.7773 38.1848 33.9952 37.985C34.2132 37.7853 34.4992 37.6829 34.7903 37.7004C35.0815 37.7179 35.354 37.8539 35.5479 38.0785C36.4103 39.0119 36.9047 40.2425 36.9351 41.5309C36.9351 45.61 31.6743 48.8095 24.9517 48.8095Z" fill="#7BB928"/>
<path d="M24.9523 44.7083C21.0574 44.7083 17.7708 43.0591 17.7708 41.102C17.7603 40.9576 17.7775 40.8125 17.8214 40.6749C17.8653 40.5374 17.9351 40.4101 18.0268 40.3004C18.2119 40.0787 18.4749 39.9419 18.7579 39.92C19.0409 39.8981 19.3207 39.993 19.5359 40.1837C19.751 40.3745 19.8838 40.6454 19.905 40.937C20.1931 41.3219 21.8257 42.4434 24.8989 42.4434C27.9722 42.4434 29.6155 41.3438 29.8929 40.937C29.9141 40.6367 30.0503 40.3573 30.2714 40.1604C30.4925 39.9635 30.7805 39.8652 31.072 39.887C31.3635 39.9089 31.6347 40.0492 31.8258 40.277C32.0169 40.5049 32.1123 40.8016 32.0911 41.102C32.1445 43.0591 28.8472 44.7083 24.9523 44.7083Z" fill="#7BB928"/>
<path d="M24.9517 48.8095C18.2397 48.8095 12.979 45.61 12.979 41.5309C13.0004 40.3377 13.4271 39.1899 14.1848 38.2874C14.3702 38.0541 14.6379 37.9062 14.9291 37.8763C15.2202 37.8464 15.511 37.9369 15.7374 38.1279C15.9638 38.3189 16.1073 38.5948 16.1363 38.8948C16.1654 39.1948 16.0775 39.4944 15.8921 39.7277C15.4532 40.2219 15.1997 40.8613 15.1772 41.5309C15.1772 43.9498 19.1041 46.5446 24.9517 46.5446C30.7993 46.5446 34.7369 43.9498 34.7369 41.5309C34.7073 40.7973 34.41 40.1022 33.9045 39.5848C33.7107 39.3602 33.6113 39.0655 33.6283 38.7655C33.6454 38.4655 33.7773 38.1848 33.9952 37.985C34.2132 37.7853 34.4992 37.6829 34.7903 37.7004C35.0815 37.7179 35.354 37.8539 35.5479 38.0785C36.4103 39.0119 36.9047 40.2425 36.9351 41.5309C36.9351 45.61 31.6743 48.8095 24.9517 48.8095Z" fill="#7BB928"/>
<path d="M24.9523 44.7083C21.0574 44.7083 17.7708 43.0591 17.7708 41.102C17.7603 40.9576 17.7775 40.8125 17.8214 40.6749C17.8653 40.5374 17.9351 40.4101 18.0268 40.3004C18.2119 40.0787 18.4749 39.9419 18.7579 39.92C19.0409 39.8981 19.3207 39.993 19.5359 40.1837C19.751 40.3745 19.8838 40.6454 19.905 40.937C20.1931 41.3219 21.8257 42.4434 24.8989 42.4434C27.9722 42.4434 29.6155 41.3438 29.8929 40.937C29.9141 40.6367 30.0503 40.3573 30.2714 40.1604C30.4925 39.9635 30.7805 39.8652 31.072 39.887C31.3635 39.9089 31.6347 40.0492 31.8258 40.277C32.0169 40.5049 32.1123 40.8016 32.0911 41.102C32.1445 43.0591 28.8472 44.7083 24.9523 44.7083Z" fill="#7BB928"/>
<path d="M26.9476 39.1449H26.0726C25.716 39.1438 25.3597 39.1218 25.0055 39.079C17.4185 38.2104 11.6669 30.4919 11.9124 21.4871C12.2111 10.2283 19.7341 3.01559 27.0009 1.6962L29.9141 1.19043L28.0787 3.48837C26.6481 5.24927 25.7136 7.3807 25.3768 9.65076C25.04 11.9208 25.3139 14.2426 26.1686 16.3634C27.1092 14.9628 28.344 13.7985 29.7812 12.9572C31.2185 12.1159 32.8213 11.619 34.4705 11.5037L36.4553 11.3388L35.4949 13.1309C35.0588 13.9343 34.7865 14.821 34.6946 15.7367C34.5257 17.5048 34.9969 19.2747 36.0178 20.7064C37.604 23.1199 38.3177 26.0305 38.0346 28.9306C37.7437 31.7462 36.4484 34.3501 34.3998 36.2374C32.3513 38.1247 29.6955 39.1609 26.9476 39.1449ZM24.696 4.69782C19.8621 6.74287 14.324 12.1194 14.0252 21.542C13.8118 29.2385 18.8377 36.1323 25.2296 36.858C25.5284 36.858 25.8271 36.88 26.1259 36.924C28.4633 37.1276 30.7852 36.3813 32.5957 34.8446C34.4061 33.3078 35.5615 31.1025 35.8151 28.6998C36.0512 26.3325 35.4734 23.955 34.1824 21.9819C32.8492 20.1182 32.2402 17.8084 32.4751 15.5058C32.5294 15.0043 32.6222 14.508 32.7525 14.0215C31.458 14.3789 30.2608 15.0389 29.2541 15.9504C28.2473 16.8619 27.458 18.0003 26.9476 19.2771L26.0833 21.3771L25.0162 19.376L24.7387 18.8263L24.6747 18.6834C24.5573 18.4305 24.4719 18.2216 24.3866 18.0237C23.4587 15.9224 23.0046 13.632 23.0582 11.3242C23.1118 9.01633 23.6717 6.75093 24.696 4.69782Z" fill="#7BB928"/>
<path d="M19.5951 31.4594C19.4384 31.4596 19.2835 31.4243 19.1414 31.3559C18.9994 31.2875 18.8738 31.1877 18.7735 31.0636C16.8178 28.6147 15.7368 25.5487 15.7109 22.3776C15.7109 22.086 15.8234 21.8063 16.0235 21.6001C16.2236 21.3939 16.495 21.2781 16.778 21.2781C17.061 21.2781 17.3324 21.3939 17.5326 21.6001C17.7327 21.8063 17.8451 22.086 17.8451 22.3776C17.8731 25.0447 18.7799 27.6228 20.4168 29.6892C20.5066 29.8003 20.5743 29.9286 20.616 30.0667C20.6577 30.2048 20.6725 30.35 20.6596 30.494C20.6467 30.638 20.6064 30.778 20.5409 30.9059C20.4754 31.0338 20.3861 31.1472 20.2781 31.2395C20.0818 31.3916 19.8405 31.4692 19.5951 31.4594Z" fill="#7BB928"/>
<path d="M24.9517 48.8095C18.2397 48.8095 12.979 45.61 12.979 41.5309C13.0004 40.3377 13.4271 39.1899 14.1848 38.2874C14.3702 38.0541 14.6379 37.9062 14.9291 37.8763C15.2202 37.8464 15.511 37.9369 15.7374 38.1279C15.9638 38.3189 16.1073 38.5948 16.1363 38.8948C16.1654 39.1948 16.0775 39.4944 15.8921 39.7277C15.4532 40.2219 15.1997 40.8613 15.1772 41.5309C15.1772 43.9498 19.1041 46.5446 24.9517 46.5446C30.7993 46.5446 34.7369 43.9498 34.7369 41.5309C34.7073 40.7973 34.41 40.1022 33.9045 39.5848C33.7107 39.3602 33.6113 39.0655 33.6283 38.7655C33.6454 38.4655 33.7773 38.1848 33.9952 37.985C34.2132 37.7853 34.4992 37.6829 34.7903 37.7004C35.0815 37.7179 35.354 37.8539 35.5479 38.0785C36.4103 39.0119 36.9047 40.2425 36.9351 41.5309C36.9351 45.61 31.6743 48.8095 24.9517 48.8095Z" fill="#7BB928"/>
<path d="M24.9523 44.7083C21.0574 44.7083 17.7708 43.0591 17.7708 41.102C17.7603 40.9576 17.7775 40.8125 17.8214 40.6749C17.8653 40.5374 17.9351 40.4101 18.0268 40.3004C18.2119 40.0787 18.4749 39.9419 18.7579 39.92C19.0409 39.8981 19.3207 39.993 19.5359 40.1837C19.751 40.3745 19.8838 40.6454 19.905 40.937C20.1931 41.3219 21.8257 42.4434 24.8989 42.4434C27.9722 42.4434 29.6155 41.3438 29.8929 40.937C29.9141 40.6367 30.0503 40.3573 30.2714 40.1604C30.4925 39.9635 30.7805 39.8652 31.072 39.887C31.3635 39.9089 31.6347 40.0492 31.8258 40.277C32.0169 40.5049 32.1123 40.8016 32.0911 41.102C32.1445 43.0591 28.8472 44.7083 24.9523 44.7083Z" fill="#7BB928"/>
</svg>
