<svg id="Group_338" data-name="Group 338" xmlns="http://www.w3.org/2000/svg" xmlns:xlink="http://www.w3.org/1999/xlink" width="777.143" height="778.922" viewBox="0 0 777.143 778.922">
  <defs>
    <clipPath id="clip-path">
      <rect id="Rectangle_233" data-name="Rectangle 233" width="777.143" height="778.922" fill="none"/>
    </clipPath>
    <clipPath id="clip-path-4">
      <rect id="Rectangle_230" data-name="Rectangle 230" width="34.907" height="41.932" fill="none"/>
    </clipPath>
  </defs>
  <g id="Group_337" data-name="Group 337" clip-path="url(#clip-path)">
    <rect id="Rectangle_221" data-name="Rectangle 221" width="774.988" height="778.922" transform="translate(2.155)" fill="#fff"/>
    <g id="Group_331" data-name="Group 331">
      <g id="Group_330" data-name="Group 330" clip-path="url(#clip-path)">
        <path id="Path_215" data-name="Path 215" d="M370.445,15.633v20.11l343.721-.11A15.409,15.409,0,0,1,729.574,51.04v651.4a15.321,15.321,0,0,1-3,9.109l-13.346-20.256-17.5,26.556h-.822l-17.493-26.556-17.5,26.556H659.1l-17.5-26.556-17.493,26.556h-.822l-17.5-26.556-17.5,26.556h-.819l-17.5-26.556-17.5,26.556h-.822L534.17,691.288l-17.5,26.556h-.819l-17.5-26.556-17.5,26.556h-.822l-17.493-26.556-17.5,26.556h-.822l-17.5-26.556-17.5,26.556h-.819l-17.5-26.556-17.493,26.556h-.822l-17.5-26.556-17.5,26.556H336.8L319.3,691.288l-17.5,26.556h-.822l-17.493-26.556L266,717.844h-.822l-17.5-26.556-17.493,26.556h-.822l-17.493-26.556-17.5,26.556h-.822l-17.5-26.556-17.5,26.556h-.822l-17.493-26.556-17.5,26.556h-.819l-17.5-26.556-17.5,26.556h-.822L68.626,691.288l-17.5,26.556h-.822l-17.5-26.556-13.77,20.9a15.342,15.342,0,0,1-3.482-9.753V31.041A15.409,15.409,0,0,1,30.969,15.633Zm0-5.139H30.969A20.569,20.569,0,0,0,10.422,31.041v671.4a20.579,20.579,0,0,0,4.646,13.01,5.133,5.133,0,0,0,3.975,1.882c.087,0,.177,0,.265-.005a5.137,5.137,0,0,0,4.027-2.306l9.478-14.386,13.2,20.041a5.137,5.137,0,0,0,4.291,2.311h.822a5.143,5.143,0,0,0,4.291-2.311l13.2-20.041,13.2,20.041a5.137,5.137,0,0,0,4.291,2.311h.822a5.137,5.137,0,0,0,4.291-2.311l13.2-20.041,13.2,20.041a5.145,5.145,0,0,0,4.294,2.311h.819a5.145,5.145,0,0,0,4.294-2.311l13.2-20.041,13.2,20.041a5.143,5.143,0,0,0,4.291,2.311h.822a5.145,5.145,0,0,0,4.294-2.311l13.2-20.041,13.2,20.041a5.144,5.144,0,0,0,4.294,2.311h.822a5.143,5.143,0,0,0,4.291-2.311l13.2-20.041,13.2,20.041a5.137,5.137,0,0,0,4.291,2.311h.822a5.137,5.137,0,0,0,4.291-2.311l13.2-20.041,13.2,20.041a5.14,5.14,0,0,0,4.291,2.311H266a5.14,5.14,0,0,0,4.291-2.311l13.2-20.041,13.2,20.041a5.137,5.137,0,0,0,4.291,2.311h.822a5.137,5.137,0,0,0,4.291-2.311l13.2-20.041,13.2,20.041a5.144,5.144,0,0,0,4.291,2.311h.822a5.145,5.145,0,0,0,4.294-2.311l13.2-20.041,13.2,20.041a5.137,5.137,0,0,0,4.291,2.311h.822a5.143,5.143,0,0,0,4.291-2.311l13.2-20.041,13.2,20.041a5.145,5.145,0,0,0,4.294,2.311h.819a5.145,5.145,0,0,0,4.294-2.311l13.2-20.041,13.2,20.041a5.137,5.137,0,0,0,4.291,2.311h.822a5.137,5.137,0,0,0,4.291-2.311l13.2-20.041,13.2,20.041a5.137,5.137,0,0,0,4.291,2.311h.822a5.137,5.137,0,0,0,4.291-2.311l13.2-20.041,13.2,20.041a5.144,5.144,0,0,0,4.294,2.311h.819a5.137,5.137,0,0,0,4.291-2.311l13.2-20.041,13.2,20.041a5.144,5.144,0,0,0,4.291,2.311h.822a5.137,5.137,0,0,0,4.291-2.311l13.2-20.041,13.2,20.041a5.144,5.144,0,0,0,4.294,2.311h.819a5.145,5.145,0,0,0,4.294-2.311l13.2-20.041L619,720.671a5.137,5.137,0,0,0,4.291,2.311h.822a5.137,5.137,0,0,0,4.291-2.311l13.2-20.041,13.2,20.041a5.144,5.144,0,0,0,4.294,2.311h.822a5.144,5.144,0,0,0,4.291-2.311l13.2-20.041,13.2,20.041a5.137,5.137,0,0,0,4.291,2.311h.822a5.137,5.137,0,0,0,4.291-2.311l13.2-20.041,9.052,13.741a5.146,5.146,0,0,0,4.16,2.311c.046,0,.09,0,.133,0a5.139,5.139,0,0,0,4.14-2.1,20.38,20.38,0,0,0,4-12.154V51.04a20.571,20.571,0,0,0-20.547-20.549l-338.583.11V15.633a5.139,5.139,0,0,0-5.139-5.139" transform="translate(16.342 16.455)" fill="#383838"/>
        <path id="Path_216" data-name="Path 216" d="M85.5,46.433a12.217,12.217,0,1,0,0,24.434,12.22,12.22,0,1,0,0-24.434m-.1-7.4A19.289,19.289,0,1,1,85.219,77.6a20.028,20.028,0,0,1-11.148-3.96l0,18.918c-.028,2.632-1.739,4.194-3.855,4.194a3.948,3.948,0,0,1-3.86-4.194V57.812A18.937,18.937,0,0,1,85.4,39.035" transform="translate(104.044 61.207)" fill="#007934"/>
        <path id="Path_217" data-name="Path 217" d="M68.783,45.807c-4.484.059-8.9,2.684-10.652,6.43a1.407,1.407,0,0,0,1.374,2.116H78c1.23,0,1.448-1.256.873-2.365a11.254,11.254,0,0,0-10.095-6.181M57.828,63.377c1.21,3.575,5.788,7.265,10.8,7.249a14.245,14.245,0,0,0,8.333-2.486c4.25-2.943,7.835,2.388,4.615,5.108a21.519,21.519,0,0,1-13.092,4.363c-10.793-.121-18.708-8.875-18.708-19.4A19.262,19.262,0,0,1,68.521,39.04,18.533,18.533,0,0,1,85.008,48.4c2.748,4.871,3.516,12.427-3.767,12.46h-22.1c-2.072,0-1.667,1.474-1.315,2.522" transform="translate(78.047 61.204)" fill="#007934"/>
        <path id="Path_218" data-name="Path 218" d="M107.656,40.622a7.188,7.188,0,1,1,7.188,7.188,7.19,7.19,0,0,1-7.188-7.188m.657.005a6.541,6.541,0,1,0,6.538-6.538,6.537,6.537,0,0,0-6.538,6.538" transform="translate(168.804 52.421)" fill="#007934"/>
        <path id="Path_219" data-name="Path 219" d="M110.438,35.691H111.7c.763,0,1.531.177,1.531,1.148s-.768,1.145-1.531,1.145h-1.266m-.968,3.983h.968V38.827h1.073l1.816,3.141h1.207l-2.021-3.251a1.9,1.9,0,0,0,1.744-1.877c0-.9-.46-2-2.278-2H109.47Z" transform="translate(171.649 54.635)" fill="#007934"/>
        <path id="Path_220" data-name="Path 220" d="M109.872,65.884V56.85a9.034,9.034,0,1,0-18.068,0v9.014a4.267,4.267,0,0,1-4.268,4.255,4.191,4.191,0,0,1-4.255-4.255l.046-8.379c.29-12.391,9.134-18.092,17.434-18.315a16.526,16.526,0,0,1,13.253,6.2,17.049,17.049,0,0,1,13.284-6.33c10.367,0,18.076,8.926,18.479,19.265.365,9.286-3.364,24.766-23.168,32.526a4.208,4.208,0,0,1-5.534-4.235,4.42,4.42,0,0,1,3.451-4.078A23.056,23.056,0,0,0,137.763,57.7c-.835-5.662-4.173-9.792-10.249-9.889a9.043,9.043,0,0,0-9.337,9.039v9.037a4.139,4.139,0,0,1-4.163,4.232,4.088,4.088,0,0,1-4.142-4.235" transform="translate(130.577 61.211)" fill="#7ad300"/>
        <rect id="Rectangle_222" data-name="Rectangle 222" width="149.162" height="34.403" transform="translate(220.075 32.077)" fill="#007934"/>
        <path id="Path_221" data-name="Path 221" d="M34.75,99.534a10.954,10.954,0,0,1-8.431-3.446,12.88,12.88,0,0,1-3.195-9.106,12.638,12.638,0,0,1,3.31-9.037,11.017,11.017,0,0,1,8.379-3.513,10.3,10.3,0,0,1,5.046,1.14q2.061,1.144,2.062,2.658a2.425,2.425,0,0,1-.688,1.71,2.127,2.127,0,0,1-1.615.734,9.766,9.766,0,0,1-2.106-.462,9.761,9.761,0,0,0-2.668-.467,5.147,5.147,0,0,0-4.242,2,8.358,8.358,0,0,0-1.59,5.37,7.92,7.92,0,0,0,1.618,5.241,5.427,5.427,0,0,0,4.381,1.931,8.381,8.381,0,0,0,2.9-.609,8.218,8.218,0,0,1,2.152-.614,2,2,0,0,1,1.5.719,2.328,2.328,0,0,1,.668,1.644q0,1.683-2.157,2.894a10.7,10.7,0,0,1-5.321,1.215" transform="translate(36.26 116.709)" fill="#007934"/>
        <path id="Path_222" data-name="Path 222" d="M30.888,86.216A9.4,9.4,0,0,1,33.4,79.462a8.455,8.455,0,0,1,6.4-2.65A8.4,8.4,0,0,1,46.2,79.454a10.44,10.44,0,0,1,0,13.536,8.39,8.39,0,0,1-6.389,2.648,8.44,8.44,0,0,1-6.4-2.655,9.438,9.438,0,0,1-2.517-6.767m5.442-.064a5.136,5.136,0,0,0,.963,3.254,3.17,3.17,0,0,0,5.02-.008,5.148,5.148,0,0,0,.963-3.246,4.91,4.91,0,0,0-.989-3.169,3.142,3.142,0,0,0-4.984-.008,4.951,4.951,0,0,0-.973,3.177" transform="translate(48.432 120.441)" fill="#007934"/>
        <path id="Path_223" data-name="Path 223" d="M38.835,91.379V80.8a5.155,5.155,0,0,1,.642-2.876,2.241,2.241,0,0,1,1.98-.937,2.463,2.463,0,0,1,1.42.416,3.578,3.578,0,0,1,1.094,1.261,5.049,5.049,0,0,1,1.957-1.353,7.536,7.536,0,0,1,2.689-.424,6.172,6.172,0,0,1,4.759,1.777,7.338,7.338,0,0,1,1.646,5.169v7.545a5.117,5.117,0,0,1-.652,2.886,2.565,2.565,0,0,1-3.978,0,5.159,5.159,0,0,1-.652-2.886V85.432a5.656,5.656,0,0,0-.657-3.138,2.475,2.475,0,0,0-2.175-.937,2.423,2.423,0,0,0-2.124.971,5.343,5.343,0,0,0-.681,3.038v6.014a5.159,5.159,0,0,1-.652,2.886,2.56,2.56,0,0,1-3.973,0,5.211,5.211,0,0,1-.642-2.886" transform="translate(60.893 120.56)" fill="#007934"/>
        <path id="Path_224" data-name="Path 224" d="M48.833,85.459h-.2a3.489,3.489,0,0,1-2.178-.609,1.983,1.983,0,0,1-.786-1.656,1.944,1.944,0,0,1,.786-1.661,4.422,4.422,0,0,1,2.373-.686v-2.3a5.15,5.15,0,0,1,.652-2.884,2.249,2.249,0,0,1,1.99-.948,2.2,2.2,0,0,1,1.962.948,5.154,5.154,0,0,1,.647,2.884v2.3h.457a4.137,4.137,0,0,1,2.437.621,1.991,1.991,0,0,1,.868,1.718,1.918,1.918,0,0,1-.837,1.7,4.452,4.452,0,0,1-2.5.573h-.421v9.324a5.248,5.248,0,0,1-.637,2.894,2.224,2.224,0,0,1-1.972.937,2.259,2.259,0,0,1-1.99-.945,5.159,5.159,0,0,1-.652-2.886Z" transform="translate(71.617 117.156)" fill="#007934"/>
        <path id="Path_225" data-name="Path 225" d="M50.82,91.379V80.8a5.155,5.155,0,0,1,.642-2.876,2.241,2.241,0,0,1,1.98-.937,2.463,2.463,0,0,1,1.42.416,3.578,3.578,0,0,1,1.094,1.261,5.911,5.911,0,0,1,1.726-1.328,4.129,4.129,0,0,1,1.841-.449,2.6,2.6,0,0,1,1.885.776A2.477,2.477,0,0,1,62.2,79.5c0,1.053-.963,1.934-2.9,2.64q-1.048.374-1.566.621a2.837,2.837,0,0,0-1.317,1.05,4.62,4.62,0,0,0-.326,2.093v5.478a5.159,5.159,0,0,1-.652,2.886,2.56,2.56,0,0,1-3.973,0,5.211,5.211,0,0,1-.642-2.886" transform="translate(79.686 120.56)" fill="#007934"/>
        <path id="Path_226" data-name="Path 226" d="M67.741,93.444a5.283,5.283,0,0,1-1.931,1.492,5.939,5.939,0,0,1-2.473.514,7.229,7.229,0,0,1-5.678-2.658,9.754,9.754,0,0,1-2.306-6.636,9.627,9.627,0,0,1,2.378-6.618,7.468,7.468,0,0,1,5.8-2.689,5.787,5.787,0,0,1,2.373.457,4.977,4.977,0,0,1,1.836,1.418,3.436,3.436,0,0,1,1.094-1.253,2.466,2.466,0,0,1,1.415-.424,2.2,2.2,0,0,1,1.954.927,5.163,5.163,0,0,1,.637,2.886V91.439a5.211,5.211,0,0,1-.642,2.886,2.2,2.2,0,0,1-1.949.945,2.431,2.431,0,0,1-1.482-.442,3.362,3.362,0,0,1-1.027-1.384m-6.946-7.352a4.844,4.844,0,0,0,.948,3.123A3.013,3.013,0,0,0,64.2,90.4a2.955,2.955,0,0,0,2.427-1.2,4.851,4.851,0,0,0,.945-3.107,4.654,4.654,0,0,0-.953-3.033A2.986,2.986,0,0,0,64.2,81.886a3.018,3.018,0,0,0-2.452,1.166,4.65,4.65,0,0,0-.958,3.04" transform="translate(86.793 120.501)" fill="#007934"/>
        <path id="Path_227" data-name="Path 227" d="M65.927,85.459h-.2a3.489,3.489,0,0,1-2.178-.609,1.983,1.983,0,0,1-.786-1.656,1.944,1.944,0,0,1,.786-1.661,4.422,4.422,0,0,1,2.373-.686v-2.3a5.15,5.15,0,0,1,.652-2.884,2.248,2.248,0,0,1,1.99-.948,2.2,2.2,0,0,1,1.962.948,5.154,5.154,0,0,1,.647,2.884v2.3h.457a4.137,4.137,0,0,1,2.437.621,1.991,1.991,0,0,1,.868,1.718,1.918,1.918,0,0,1-.837,1.7,4.451,4.451,0,0,1-2.5.573h-.421v9.324a5.248,5.248,0,0,1-.637,2.894,2.224,2.224,0,0,1-1.972.937,2.259,2.259,0,0,1-1.99-.945,5.159,5.159,0,0,1-.652-2.886Z" transform="translate(98.42 117.156)" fill="#007934"/>
        <path id="Path_228" data-name="Path 228" d="M67.509,86.216a9.4,9.4,0,0,1,2.517-6.754,9.045,9.045,0,0,1,12.786-.008,10.423,10.423,0,0,1,0,13.536,9.033,9.033,0,0,1-12.786-.008,9.438,9.438,0,0,1-2.517-6.767m5.444-.064a5.136,5.136,0,0,0,.963,3.254,3.168,3.168,0,0,0,5.018-.008,5.148,5.148,0,0,0,.963-3.246,4.923,4.923,0,0,0-.986-3.169,3.147,3.147,0,0,0-4.99-.008,4.949,4.949,0,0,0-.968,3.177" transform="translate(105.854 120.441)" fill="#007934"/>
        <path id="Path_229" data-name="Path 229" d="M75.076,80.732a2.877,2.877,0,0,1,.889-2.121,2.945,2.945,0,0,1,2.157-.878,3,3,0,0,1,3,3,2.975,2.975,0,0,1-.873,2.16,2.864,2.864,0,0,1-2.126.889,3,3,0,0,1-3.046-3.048m0,10.123a2.905,2.905,0,0,1,.894-2.144,2.947,2.947,0,0,1,2.152-.889,2.887,2.887,0,0,1,2.121.889,3.073,3.073,0,0,1,.005,4.3,2.886,2.886,0,0,1-2.126.881,3,3,0,0,1-3.046-3.033" transform="translate(117.719 121.885)" fill="#007934"/>
        <path id="Path_230" data-name="Path 230" d="M97.631,91.553,96.989,97.7l-3.089,0,.642-6.143-4.494,0L89.39,97.7H86.306l.652-6.145H82.333v-2.6h4.9l.6-5.642H83.3V80.7h4.815l.593-5.542h3.017L91.172,80.7h4.512l.6-5.542h3.053L98.773,80.7l4.592,0v2.6H98.488L97.9,88.947h4.527v2.6ZM95.4,83.3l-4.473,0-.6,5.642,4.489,0Z" transform="translate(129.098 117.849)" fill="#007934"/>
        <path id="Path_231" data-name="Path 231" d="M106.561,91.553l-.642,6.143-3.084,0,.637-6.143-4.494,0L98.325,97.7H95.236l.657-6.145h-4.63v-2.6h4.9l.6-5.642h-4.54V80.7h4.82l.588-5.542h3.023l-.555,5.542h4.512l.6-5.542h3.058l-.568,5.539,4.586,0v2.6h-4.871l-.591,5.642h4.527v2.6ZM104.334,83.3l-4.473,0-.6,5.642,4.489,0Z" transform="translate(143.1 117.849)" fill="#007934"/>
        <path id="Path_232" data-name="Path 232" d="M115.493,91.553l-.642,6.143-3.089,0,.642-6.143-4.494,0-.657,6.143h-3.084l.652-6.145H100.2v-2.6h4.9l.6-5.642h-4.54V80.7h4.815l.593-5.542h3.017l-.555,5.542h4.512l.6-5.542H117.2l-.568,5.539,4.592,0v2.6H116.35l-.585,5.642h4.527v2.6ZM113.261,83.3l-4.473,0-.6,5.642,4.489,0Z" transform="translate(157.106 117.849)" fill="#007934"/>
        <path id="Path_233" data-name="Path 233" d="M124.422,91.553,123.78,97.7l-3.084,0,.637-6.143-4.494,0-.652,6.143H113.1l.657-6.145h-4.63v-2.6h4.9l.6-5.642h-4.54V80.7h4.82l.588-5.542h3.023l-.555,5.542h4.512l.6-5.542h3.058l-.568,5.539,4.586,0v2.6h-4.871l-.591,5.642h4.527v2.6ZM122.2,83.3l-4.473,0-.6,5.642,4.489,0Z" transform="translate(171.106 117.849)" fill="#007934"/>
        <path id="Path_234" data-name="Path 234" d="M133.354,91.553l-.642,6.143-3.084,0,.637-6.143-4.494,0-.652,6.143h-3.089l.657-6.145h-4.63v-2.6h4.9l.6-5.642h-4.54V80.7h4.82l.588-5.542h3.023L126.9,80.7h4.512l.6-5.542h3.058L134.5,80.7l4.586,0v2.6h-4.872l-.591,5.642h4.527v2.6ZM131.127,83.3l-4.473,0-.6,5.642,4.489,0Z" transform="translate(185.112 117.849)" fill="#007934"/>
        <path id="Path_235" data-name="Path 235" d="M142.286,91.553l-.642,6.143-3.089,0,.642-6.143-4.494,0-.657,6.143h-3.084l.652-6.145h-4.625v-2.6h4.9l.6-5.642h-4.54V80.7h4.815l.593-5.542h3.017l-.555,5.542h4.512l.6-5.542H144l-.568,5.539,4.592,0v2.6h-4.877l-.586,5.642h4.527v2.6ZM140.054,83.3l-4.473,0-.6,5.642,4.489,0Z" transform="translate(199.117 117.849)" fill="#007934"/>
        <path id="Path_236" data-name="Path 236" d="M28.35,257.7H26.365a5.418,5.418,0,0,1-2.9-.616,2.094,2.094,0,0,1-.942-1.877,2.134,2.134,0,0,1,.953-1.916,5.328,5.328,0,0,1,2.894-.627h9.4a5.33,5.33,0,0,1,2.884.627,2.13,2.13,0,0,1,.963,1.916,2.091,2.091,0,0,1-.953,1.877,5.414,5.414,0,0,1-2.894.616H33.761v15.161a5.036,5.036,0,0,1-.665,2.884,2.332,2.332,0,0,1-2.036.948,2.334,2.334,0,0,1-2.039-.948,5.012,5.012,0,0,1-.67-2.884Z" transform="translate(35.308 396.178)" fill="#007934"/>
        <path id="Path_237" data-name="Path 237" d="M28.2,264.192a9.4,9.4,0,0,1,2.517-6.756,8.449,8.449,0,0,1,6.4-2.65,8.4,8.4,0,0,1,6.389,2.642,10.432,10.432,0,0,1,0,13.536,8.386,8.386,0,0,1-6.389,2.648,8.435,8.435,0,0,1-6.4-2.655,9.427,9.427,0,0,1-2.517-6.764m5.442-.064a5.133,5.133,0,0,0,.963,3.251,3.17,3.17,0,0,0,5.02-.008,5.14,5.14,0,0,0,.963-3.243,4.912,4.912,0,0,0-.989-3.171,3.144,3.144,0,0,0-4.987-.008,4.957,4.957,0,0,0-.971,3.179" transform="translate(44.225 399.502)" fill="#007934"/>
        <path id="Path_238" data-name="Path 238" d="M38.494,263.434h-.2a3.489,3.489,0,0,1-2.178-.611,1.985,1.985,0,0,1-.788-1.656,1.946,1.946,0,0,1,.788-1.661,4.445,4.445,0,0,1,2.373-.686v-2.3a5.132,5.132,0,0,1,.652-2.886,2.25,2.25,0,0,1,1.988-.948,2.212,2.212,0,0,1,1.965.948,5.181,5.181,0,0,1,.645,2.886v2.3H44.2a4.156,4.156,0,0,1,2.437.621,1.993,1.993,0,0,1,.871,1.718,1.924,1.924,0,0,1-.837,1.7,4.455,4.455,0,0,1-2.5.575h-.424v9.324a5.24,5.24,0,0,1-.634,2.892,2.226,2.226,0,0,1-1.975.937,2.254,2.254,0,0,1-1.988-.945,5.128,5.128,0,0,1-.652-2.884Z" transform="translate(55.402 396.217)" fill="#007934"/>
        <path id="Path_239" data-name="Path 239" d="M52.464,271.417a5.29,5.29,0,0,1-1.934,1.492,5.918,5.918,0,0,1-2.47.514,7.237,7.237,0,0,1-5.68-2.658,9.758,9.758,0,0,1-2.3-6.633,9.634,9.634,0,0,1,2.378-6.62,7.472,7.472,0,0,1,5.8-2.689,5.837,5.837,0,0,1,2.373.457,5,5,0,0,1,1.836,1.42,3.44,3.44,0,0,1,1.091-1.256,2.48,2.48,0,0,1,1.418-.424,2.205,2.205,0,0,1,1.954.927,5.169,5.169,0,0,1,.637,2.886v10.58a5.177,5.177,0,0,1-.645,2.884,2.2,2.2,0,0,1-1.947.945,2.456,2.456,0,0,1-1.484-.439,3.387,3.387,0,0,1-1.025-1.387m-6.946-7.35a4.841,4.841,0,0,0,.948,3.12,3.01,3.01,0,0,0,2.46,1.184,2.963,2.963,0,0,0,2.429-1.2,4.864,4.864,0,0,0,.945-3.1,4.661,4.661,0,0,0-.953-3.035,2.994,2.994,0,0,0-2.422-1.174,3.025,3.025,0,0,0-2.452,1.166,4.651,4.651,0,0,0-.955,3.043" transform="translate(62.839 399.562)" fill="#007934"/>
        <path id="Path_240" data-name="Path 240" d="M48.371,255.832a5.157,5.157,0,0,1,.652-2.9,2.254,2.254,0,0,1,1.99-.948,2.189,2.189,0,0,1,1.947.955,5.218,5.218,0,0,1,.645,2.892v18.03a5.241,5.241,0,0,1-.634,2.892,2.2,2.2,0,0,1-1.957.94,2.259,2.259,0,0,1-1.99-.945,5.144,5.144,0,0,1-.652-2.886Z" transform="translate(75.846 395.112)" fill="#007934"/>
        <path id="Path_241" data-name="Path 241" d="M51.5,258.705a2.879,2.879,0,0,1,.889-2.124,2.948,2.948,0,0,1,2.16-.876,2.994,2.994,0,0,1,3,3,2.962,2.962,0,0,1-.871,2.157,2.864,2.864,0,0,1-2.126.889,3,3,0,0,1-3.048-3.046m0,10.12a2.908,2.908,0,0,1,.9-2.144,2.947,2.947,0,0,1,2.152-.889,2.885,2.885,0,0,1,2.119.889,3.076,3.076,0,0,1,.008,4.3,2.886,2.886,0,0,1-2.126.881,2.956,2.956,0,0,1-2.17-.881,2.924,2.924,0,0,1-.878-2.152" transform="translate(80.753 400.946)" fill="#007934"/>
        <path id="Path_242" data-name="Path 242" d="M88.712,279.464a12.857,12.857,0,0,1-5-1.353c-1.235-.7-1.849-1.515-1.849-2.463a2.285,2.285,0,0,1,.724-1.762,2.771,2.771,0,0,1,1.949-.668,11.125,11.125,0,0,1,2.524.6,11.179,11.179,0,0,0,3.243.6,2.727,2.727,0,0,0,1.908-.7,2.429,2.429,0,0,0-.018-3.557,10.181,10.181,0,0,0-3.354-1.464,12.2,12.2,0,0,1-5.216-2.635,5.618,5.618,0,0,1-1.487-4.1,6.968,6.968,0,0,1,1.762-4.776,8.465,8.465,0,0,1,4.81-2.609v-1.659a2.365,2.365,0,0,1,.316-1.379,1.184,1.184,0,0,1,1.02-.431,1.231,1.231,0,0,1,1.035.39,2.432,2.432,0,0,1,.3,1.42v1.531a9.743,9.743,0,0,1,4.278,1.158,2.736,2.736,0,0,1,1.556,2.347,2.227,2.227,0,0,1-.642,1.687,2.5,2.5,0,0,1-1.787.609,8.534,8.534,0,0,1-2.07-.413,8.6,8.6,0,0,0-2.167-.416,3.028,3.028,0,0,0-1.923.562,1.784,1.784,0,0,0-.719,1.477q0,1.448,3.164,2.442c.488.154.871.275,1.14.362a11.5,11.5,0,0,1,4.974,2.876,6.224,6.224,0,0,1,1.564,4.327,7.525,7.525,0,0,1-2.047,5.316,8.3,8.3,0,0,1-5.321,2.573v2.2a2.328,2.328,0,0,1-.336,1.384,1.153,1.153,0,0,1-1,.457,1.192,1.192,0,0,1-1.027-.421,2.486,2.486,0,0,1-.308-1.42Z" transform="translate(128.366 393.749)" fill="#007934"/>
        <path id="Path_243" data-name="Path 243" d="M104.364,269.526l-.642,6.143-3.087,0,.639-6.143-4.494,0-.655,6.143H93.039l.655-6.145-4.628,0V266.92h4.9l.6-5.639h-4.54v-2.607l4.818,0,.591-5.544h3.02l-.555,5.542h4.512l.6-5.542h3.056l-.568,5.542H110.1v2.607h-4.874l-.588,5.642,4.527,0v2.606Zm-2.229-8.248-4.473,0-.6,5.642,4.489,0Z" transform="translate(139.655 396.91)" fill="#007934"/>
        <path id="Path_244" data-name="Path 244" d="M113.294,269.526l-.642,6.143-3.087,0,.639-6.143-4.494,0-.655,6.143h-3.087l.657-6.145-4.63,0V266.92H102.9l.6-5.639H98.964v-2.607l4.818,0,.591-5.544h3.023l-.557,5.542h4.512l.6-5.542h3.056l-.568,5.542h4.592v2.607h-4.877l-.586,5.642,4.527,0v2.606Zm-2.226-8.248-4.476,0-.6,5.642,4.489,0Z" transform="translate(153.658 396.91)" fill="#007934"/>
        <path id="Path_245" data-name="Path 245" d="M122.225,269.526l-.642,6.143-3.087,0,.639-6.143-4.494,0-.655,6.143H110.9l.655-6.145-4.628,0V266.92h4.9l.6-5.639H107.9v-2.607l4.818,0,.591-5.544h3.02l-.555,5.542h4.512l.6-5.542h3.056l-.568,5.542h4.589v2.607h-4.874l-.588,5.642,4.527,0v2.606ZM120,261.278l-4.473,0-.6,5.642,4.489,0Z" transform="translate(167.661 396.91)" fill="#007934"/>
        <path id="Path_246" data-name="Path 246" d="M120.885,262.541a2.37,2.37,0,0,1-4.741,0,2.245,2.245,0,0,1,.7-1.636,2.277,2.277,0,0,1,1.669-.7,2.342,2.342,0,0,1,1.669.668,2.209,2.209,0,0,1,.7,1.669" transform="translate(182.114 407.999)" fill="#007934"/>
        <path id="Path_247" data-name="Path 247" d="M134.3,269.526l-.642,6.143-3.087,0,.639-6.143-4.494,0-.655,6.143h-3.087l.655-6.145-4.628,0V266.92h4.9l.6-5.639h-4.54v-2.607l4.818,0,.591-5.544h3.02l-.555,5.542h4.512l.6-5.542h3.056l-.568,5.542h4.589v2.607h-4.874l-.588,5.642,4.527,0v2.606Zm-2.229-8.248-4.473,0-.6,5.642,4.489,0Z" transform="translate(186.596 396.91)" fill="#007934"/>
        <path id="Path_248" data-name="Path 248" d="M143.232,269.526l-.642,6.143-3.087,0,.639-6.143-4.494,0-.655,6.143h-3.087l.655-6.145-4.628,0V266.92h4.9l.6-5.639H128.9v-2.607l4.818,0,.591-5.544h3.02l-.555,5.542h4.512l.6-5.542h3.056l-.567,5.542h4.589v2.607h-4.874l-.588,5.642,4.527,0v2.606ZM141,261.278l-4.473,0-.6,5.642,4.489,0Z" transform="translate(200.6 396.91)" fill="#007934"/>
        <path id="Path_249" data-name="Path 249" d="M152.163,269.526l-.642,6.143-3.087,0,.639-6.143-4.494,0-.655,6.143h-3.087l.655-6.145-4.628,0V266.92h4.9l.6-5.639h-4.54v-2.607l4.818,0,.591-5.544h3.02l-.555,5.542h4.512l.6-5.542h3.056l-.568,5.542H157.9v2.607h-4.874l-.588,5.642,4.527,0v2.606Zm-2.229-8.248-4.473,0-.6,5.642,4.489,0Z" transform="translate(214.604 396.91)" fill="#007934"/>
        <path id="Path_250" data-name="Path 250" d="M287.663,249.684l5.2.544,0,2.609-5.2-.542,0,3.8,5.2.552,0,2.614-5.2-.555v3.919h-2.2v-4.152l-4.774-.511v3.842h-2.2v-4.075l-4.692-.5,0-2.555,4.692.473,0-3.821-4.692-.509,0-2.586,4.692.483,0-3.885h2.2v4.124l4.774.5v-3.831h2.2Zm-6.98,1.885,0,3.785,4.771.509v-3.8Z" transform="translate(429.299 383.893)" fill="#007934"/>
        <path id="Path_251" data-name="Path 251" d="M287.663,242.126l5.2.544,0,2.609-5.2-.542,0,3.8,5.2.552,0,2.614-5.2-.555v3.919h-2.2v-4.152l-4.774-.511v3.842h-2.2v-4.075l-4.692-.5,0-2.555,4.692.473,0-3.821-4.692-.508,0-2.586,4.692.483,0-3.885h2.2V241.4l4.774.5v-3.831h2.2Zm-6.98,1.885,0,3.785,4.771.508v-3.8Z" transform="translate(429.299 372.044)" fill="#007934"/>
        <path id="Path_252" data-name="Path 252" d="M287.663,234.57l5.2.544,0,2.609-5.2-.542,0,3.8,5.2.552,0,2.614-5.2-.555v3.919h-2.2v-4.152l-4.774-.511v3.842h-2.2v-4.075l-4.692-.5,0-2.555,4.692.472,0-3.821-4.692-.508,0-2.586,4.692.483,0-3.885h2.2v4.124l4.774.5v-3.831h2.2Zm-6.98,1.885,0,3.785,4.771.508v-3.8Z" transform="translate(429.299 360.194)" fill="#007934"/>
        <path id="Path_253" data-name="Path 253" d="M287.663,227.012l5.2.544,0,2.609-5.2-.542,0,3.8,5.2.552,0,2.614-5.2-.555v3.919h-2.2v-4.152l-4.774-.511v3.842h-2.2v-4.075l-4.692-.5,0-2.555,4.692.473,0-3.821-4.692-.508,0-2.586,4.692.483,0-3.885h2.2v4.124l4.774.5v-3.831h2.2Zm-6.98,1.885,0,3.785,4.771.508v-3.8Z" transform="translate(429.299 348.345)" fill="#007934"/>
        <path id="Path_254" data-name="Path 254" d="M287.663,219.457l5.2.544,0,2.609-5.2-.542,0,3.8,5.2.552,0,2.614-5.2-.555V232.4h-2.2v-4.152l-4.774-.511v3.842h-2.2V227.5l-4.692-.5,0-2.555,4.692.473,0-3.821-4.692-.508,0-2.586,4.692.483,0-3.885h2.2v4.124l4.774.5V215.4h2.2Zm-6.98,1.885,0,3.785,4.771.508v-3.8Z" transform="translate(429.299 336.497)" fill="#007934"/>
        <rect id="Rectangle_223" data-name="Rectangle 223" width="2.429" height="6.782" transform="translate(713.826 536.041)" fill="#007934"/>
        <path id="Path_255" data-name="Path 255" d="M287.663,203.452l5.2.544,0,2.609-5.2-.542,0,3.8,5.2.552,0,2.614-5.2-.555V216.4h-2.2v-4.152l-4.774-.511v3.842h-2.2V211.5l-4.692-.5,0-2.555,4.692.473,0-3.821-4.692-.508,0-2.586,4.692.483,0-3.885h2.2v4.124l4.774.5v-3.831h2.2Zm-6.98,1.885,0,3.785,4.771.508v-3.8Z" transform="translate(429.299 311.401)" fill="#007934"/>
        <path id="Path_256" data-name="Path 256" d="M287.663,195.895l5.2.544,0,2.609-5.2-.542,0,3.8,5.2.552,0,2.614-5.2-.555v3.919h-2.2v-4.152l-4.774-.511v3.842h-2.2v-4.075l-4.692-.5,0-2.555,4.692.473,0-3.821-4.692-.508,0-2.586,4.692.483,0-3.885h2.2v4.124l4.774.5v-3.831h2.2Zm-6.98,1.885,0,3.785,4.771.508v-3.8Z" transform="translate(429.299 299.552)" fill="#007934"/>
        <rect id="Rectangle_224" data-name="Rectangle 224" width="2.429" height="6.782" transform="translate(713.826 475.534)" fill="#007934"/>
        <path id="Path_257" data-name="Path 257" d="M287.663,179.89l5.2.544,0,2.609-5.2-.542,0,3.8,5.2.552,0,2.614-5.2-.555v3.919h-2.2v-4.152l-4.774-.511v3.842h-2.2v-4.075l-4.692-.5,0-2.555,4.692.473,0-3.821-4.692-.508,0-2.586,4.692.483,0-3.885h2.2v4.124l4.774.5V175.83h2.2Zm-6.98,1.885,0,3.785,4.771.508v-3.8Z" transform="translate(429.299 274.456)" fill="#007934"/>
        <path id="Path_258" data-name="Path 258" d="M287.663,172.333l5.2.544,0,2.609-5.2-.542,0,3.8,5.2.552,0,2.614-5.2-.555v3.919h-2.2v-4.152l-4.774-.511v3.842h-2.2v-4.075l-4.692-.5,0-2.555,4.692.473,0-3.821-4.692-.508,0-2.586,4.692.483,0-3.885h2.2V171.6l4.774.5v-3.831h2.2Zm-6.98,1.885,0,3.785,4.771.508v-3.8Z" transform="translate(429.299 262.607)" fill="#007934"/>
        <path id="Path_259" data-name="Path 259" d="M287.663,164.776l5.2.544,0,2.609-5.2-.542,0,3.8,5.2.552,0,2.614-5.2-.555v3.919h-2.2v-4.152l-4.774-.511V176.9h-2.2v-4.075l-4.692-.5,0-2.555,4.692.473,0-3.821-4.692-.508,0-2.586,4.692.483,0-3.885h2.2v4.124l4.774.5v-3.831h2.2Zm-6.98,1.885,0,3.785,4.771.508v-3.8Z" transform="translate(429.299 250.757)" fill="#007934"/>
        <path id="Path_260" data-name="Path 260" d="M287.663,157.219l5.2.544,0,2.609-5.2-.542,0,3.8,5.2.552,0,2.614-5.2-.555v3.919h-2.2v-4.152l-4.774-.511v3.842h-2.2v-4.075l-4.692-.5,0-2.555,4.692.473,0-3.821-4.692-.508,0-2.586,4.692.483,0-3.885h2.2v4.124l4.774.5v-3.831h2.2Zm-6.98,1.885,0,3.785,4.771.508v-3.8Z" transform="translate(429.299 238.908)" fill="#007934"/>
        <path id="Path_261" data-name="Path 261" d="M287.663,149.663l5.2.544,0,2.607-5.2-.542,0,3.806,5.2.549,0,2.617-5.2-.555v3.919h-2.2v-4.155l-4.774-.508v3.842h-2.2v-4.075l-4.692-.5,0-2.553,4.692.472,0-3.821-4.692-.508,0-2.589,4.692.485,0-3.885h2.2v4.124l4.774.5V145.6h2.2Zm-6.98,1.882,0,3.788,4.771.508v-3.8Z" transform="translate(429.299 227.06)" fill="#007934"/>
        <path id="Path_262" data-name="Path 262" d="M287.663,142.1l5.2.544,0,2.609-5.2-.542,0,3.8,5.2.552,0,2.614-5.2-.555v3.919h-2.2V150.9l-4.774-.511v3.842h-2.2v-4.075l-4.692-.5,0-2.555,4.692.473,0-3.821-4.692-.508,0-2.586,4.692.483,0-3.885h2.2v4.124l4.774.5v-3.831h2.2Zm-6.98,1.885,0,3.785,4.771.508v-3.8Z" transform="translate(429.299 215.209)" fill="#007934"/>
        <path id="Path_263" data-name="Path 263" d="M287.663,134.548l5.2.544,0,2.609-5.2-.542,0,3.8,5.2.552,0,2.614-5.2-.555v3.919h-2.2V143.34l-4.774-.511v3.842h-2.2V142.6l-4.692-.5,0-2.555,4.692.473,0-3.821-4.692-.508,0-2.586,4.692.483,0-3.885h2.2v4.124l4.774.5v-3.831h2.2Zm-6.98,1.885,0,3.785,4.771.508v-3.8Z" transform="translate(429.299 203.36)" fill="#007934"/>
        <path id="Path_264" data-name="Path 264" d="M287.663,126.992l5.2.544,0,2.609-5.2-.542,0,3.8,5.2.552,0,2.614-5.2-.555v3.919h-2.2v-4.152l-4.774-.511v3.842h-2.2V135.04l-4.692-.5,0-2.555,4.692.473,0-3.821-4.692-.508,0-2.586,4.692.483,0-3.885h2.2v4.124l4.774.5v-3.831h2.2Zm-6.98,1.885,0,3.785,4.771.508v-3.8Z" transform="translate(429.299 191.512)" fill="#007934"/>
        <path id="Path_265" data-name="Path 265" d="M287.663,119.434l5.2.544,0,2.609-5.2-.542,0,3.8,5.2.552,0,2.614-5.2-.555v3.919h-2.2v-4.152l-4.774-.511v3.842h-2.2v-4.075l-4.692-.5,0-2.555,4.692.473,0-3.821-4.692-.508,0-2.586,4.692.483,0-3.885h2.2V118.7l4.774.5v-3.831h2.2Zm-6.98,1.885,0,3.785,4.771.508v-3.8Z" transform="translate(429.299 179.661)" fill="#007934"/>
        <path id="Path_266" data-name="Path 266" d="M287.663,111.877l5.2.544,0,2.609-5.2-.542,0,3.8,5.2.552,0,2.614-5.2-.555v3.919h-2.2v-4.152l-4.774-.511V124h-2.2v-4.075l-4.692-.5,0-2.555,4.692.473,0-3.821-4.692-.508,0-2.586,4.692.483,0-3.885h2.2v4.124l4.774.5v-3.831h2.2Zm-6.98,1.885,0,3.785,4.771.508v-3.8Z" transform="translate(429.299 167.812)" fill="#007934"/>
        <path id="Path_267" data-name="Path 267" d="M287.663,104.321l5.2.544,0,2.609-5.2-.542,0,3.8,5.2.552,0,2.614-5.2-.555v3.919h-2.2v-4.152l-4.774-.511v3.842h-2.2v-4.075l-4.692-.5,0-2.555,4.692.472,0-3.821-4.692-.508,0-2.586,4.692.483,0-3.885h2.2v4.124l4.774.5V100.26h2.2Zm-6.98,1.885,0,3.785,4.771.508v-3.8Z" transform="translate(429.299 155.964)" fill="#007934"/>
        <path id="Path_268" data-name="Path 268" d="M287.663,96.763l5.2.544,0,2.609-5.2-.542,0,3.8,5.2.552,0,2.614-5.2-.555v3.919h-2.2v-4.152l-4.774-.511v3.842h-2.2v-4.075l-4.692-.5,0-2.555,4.692.473,0-3.821-4.692-.508,0-2.586,4.692.483,0-3.885h2.2v4.124l4.774.5V92.7h2.2Zm-6.98,1.885,0,3.785,4.771.508v-3.8Z" transform="translate(429.299 144.113)" fill="#007934"/>
        <path id="Path_269" data-name="Path 269" d="M287.663,89.207l5.2.544,0,2.609-5.2-.542,0,3.8,5.2.552,0,2.614-5.2-.555v3.919h-2.2V98l-4.774-.511v3.842h-2.2V97.255l-4.692-.5,0-2.555,4.692.473,0-3.821-4.692-.508,0-2.586,4.692.483,0-3.885h2.2v4.124l4.774.5V85.147h2.2Zm-6.98,1.885,0,3.785,4.771.508v-3.8Z" transform="translate(429.299 132.265)" fill="#007934"/>
        <path id="Path_270" data-name="Path 270" d="M287.663,81.65l5.2.544,0,2.609-5.2-.542,0,3.8,5.2.552,0,2.614-5.2-.555v3.919h-2.2V90.442l-4.774-.511v3.842h-2.2V89.7l-4.692-.5,0-2.555,4.692.473,0-3.821-4.692-.508,0-2.586,4.692.483,0-3.885h2.2V80.92l4.774.5V77.59h2.2Zm-6.98,1.885,0,3.785,4.771.508v-3.8Z" transform="translate(429.299 120.416)" fill="#007934"/>
        <path id="Path_271" data-name="Path 271" d="M287.663,74.093l5.2.544,0,2.609-5.2-.542,0,3.8,5.2.552,0,2.614-5.2-.555v3.919h-2.2V82.885l-4.774-.511v3.842h-2.2V82.141l-4.692-.5,0-2.555,4.692.473,0-3.821-4.692-.508,0-2.586,4.692.483,0-3.885h2.2v4.124l4.774.5V70.033h2.2Zm-6.98,1.885,0,3.785,4.771.508v-3.8Z" transform="translate(429.299 108.567)" fill="#007934"/>
        <path id="Path_272" data-name="Path 272" d="M287.663,66.536l5.2.544,0,2.609-5.2-.542,0,3.8,5.2.552,0,2.614-5.2-.555v3.919h-2.2V75.328l-4.774-.511v3.842h-2.2V74.584l-4.692-.5,0-2.555L278.48,72l0-3.821-4.692-.508,0-2.586,4.692.483,0-3.885h2.2v4.124l4.774.5V62.476h2.2Zm-6.98,1.885,0,3.785,4.771.508v-3.8Z" transform="translate(429.299 96.717)" fill="#007934"/>
        <path id="Path_273" data-name="Path 273" d="M287.663,58.979l5.2.544,0,2.609-5.2-.542,0,3.8,5.2.552,0,2.614-5.2-.555v3.919h-2.2V67.771l-4.774-.511V71.1h-2.2V67.027l-4.692-.5,0-2.555,4.692.473,0-3.821-4.692-.508,0-2.586,4.692.483,0-3.885h2.2v4.124l4.774.5V54.919h2.2Zm-6.98,1.885,0,3.785,4.771.508v-3.8Z" transform="translate(429.299 84.868)" fill="#007934"/>
        <path id="Path_274" data-name="Path 274" d="M287.663,51.422l5.2.544,0,2.609-5.2-.542,0,3.8,5.2.552,0,2.614-5.2-.555v3.919h-2.2V60.214l-4.774-.511v3.842h-2.2V59.47l-4.692-.5,0-2.555,4.692.473,0-3.821-4.692-.508,0-2.586,4.692.483,0-3.885h2.2v4.124l4.774.5V47.362h2.2Zm-6.98,1.885,0,3.785,4.771.508V53.8Z" transform="translate(429.299 73.019)" fill="#007934"/>
        <path id="Path_275" data-name="Path 275" d="M153.19,668.915a2.57,2.57,0,0,1-2.571-2.571V20.193a2.571,2.571,0,0,1,5.141,0V666.344a2.57,2.57,0,0,1-2.571,2.571" transform="translate(236.17 27.631)" fill="#383838"/>
        <path id="Path_276" data-name="Path 276" d="M185.927,99.669H29.089a5.177,5.177,0,1,1,0-10.354H185.927a5.177,5.177,0,0,1,0,10.354" transform="translate(37.494 140.046)" fill="#383838"/>
        <path id="Path_277" data-name="Path 277" d="M136.426,242.965H29.089a5.177,5.177,0,0,1,0-10.354H136.426a5.177,5.177,0,0,1,0,10.354" transform="translate(37.494 364.734)" fill="#383838"/>
        <path id="Path_278" data-name="Path 278" d="M173.117,242.965h-53.9a5.177,5.177,0,0,1,0-10.354h53.9a5.177,5.177,0,1,1,0,10.354" transform="translate(178.814 364.734)" fill="#383838"/>
        <path id="Path_279" data-name="Path 279" d="M132.217,107.761H29.089a5.177,5.177,0,0,1,0-10.354H132.217a5.177,5.177,0,0,1,0,10.354" transform="translate(37.494 152.734)" fill="#8a8c8d"/>
        <path id="Path_280" data-name="Path 280" d="M154.549,115.505H29.089a5.177,5.177,0,0,1,0-10.354h125.46a5.177,5.177,0,1,1,0,10.354" transform="translate(37.494 164.877)" fill="#8a8c8d"/>
        <path id="Path_281" data-name="Path 281" d="M102.559,121.891H29.089a5.177,5.177,0,0,1,0-10.354h73.47a5.177,5.177,0,1,1,0,10.354" transform="translate(37.494 174.89)" fill="#8a8c8d"/>
        <path id="Path_282" data-name="Path 282" d="M314.9,169.117H28.487a5.136,5.136,0,0,1-5.136-5.136V139.937a5.136,5.136,0,0,1,5.136-5.136H314.9a5.135,5.135,0,0,1,5.136,5.136v24.044a5.135,5.135,0,0,1-5.136,5.136" transform="translate(36.614 211.368)" fill="#7ad300"/>
        <path id="Path_283" data-name="Path 283" d="M314.557,139.879H26.854a2.568,2.568,0,0,1,0-5.136h287.7a2.568,2.568,0,0,1,0,5.136" transform="translate(38.08 211.277)" fill="#8a8c8d"/>
        <path id="Path_284" data-name="Path 284" d="M314.557,151.489H26.854a2.568,2.568,0,1,1,0-5.136h287.7a2.568,2.568,0,1,1,0,5.136" transform="translate(38.08 229.481)" fill="#8a8c8d"/>
        <path id="Path_285" data-name="Path 285" d="M314.557,163.1H26.854a2.568,2.568,0,1,1,0-5.136h287.7a2.568,2.568,0,1,1,0,5.136" transform="translate(38.08 247.686)" fill="#8a8c8d"/>
        <path id="Path_286" data-name="Path 286" d="M91.679,217.766a2.566,2.566,0,0,1-2.568-2.568V125.7a2.568,2.568,0,0,1,5.136,0v89.5a2.566,2.566,0,0,1-2.568,2.568" transform="translate(139.726 193.072)" fill="#8a8c8d"/>
        <path id="Path_287" data-name="Path 287" d="M131.967,145.508h-89.5a2.571,2.571,0,0,1,0-5.141h89.5a2.571,2.571,0,1,1,0,5.141" transform="translate(62.558 220.095)" fill="#383838"/>
        <path id="Path_288" data-name="Path 288" d="M131.966,132.865h-89.5a2.568,2.568,0,0,1,0-5.136h89.5a2.568,2.568,0,1,1,0,5.136" transform="translate(62.56 200.279)" fill="#8a8c8d"/>
        <path id="Path_289" data-name="Path 289" d="M131.967,157.189h-89.5a2.571,2.571,0,0,1,0-5.141h89.5a2.571,2.571,0,0,1,0,5.141" transform="translate(62.558 238.411)" fill="#383838"/>
        <path id="Path_290" data-name="Path 290" d="M125.747,145.509H100.489a2.571,2.571,0,1,1,0-5.141h25.259a2.571,2.571,0,1,1,0,5.141" transform="translate(153.535 220.097)" fill="#383838"/>
        <path id="Path_291" data-name="Path 291" d="M125.746,132.866H100.487a2.568,2.568,0,1,1,0-5.136h25.259a2.568,2.568,0,1,1,0,5.136" transform="translate(153.537 200.28)" fill="#8a8c8d"/>
        <path id="Path_292" data-name="Path 292" d="M125.747,157.19H100.489a2.571,2.571,0,0,1,0-5.141h25.259a2.571,2.571,0,1,1,0,5.141" transform="translate(153.535 238.412)" fill="#383838"/>
        <path id="Path_293" data-name="Path 293" d="M147.193,145.509H121.937a2.571,2.571,0,1,1,0-5.141h25.256a2.571,2.571,0,1,1,0,5.141" transform="translate(187.166 220.097)" fill="#383838"/>
        <path id="Path_294" data-name="Path 294" d="M147.191,132.866H121.935a2.568,2.568,0,1,1,0-5.136h25.256a2.568,2.568,0,1,1,0,5.136" transform="translate(187.167 200.28)" fill="#8a8c8d"/>
        <path id="Path_295" data-name="Path 295" d="M147.193,157.19H121.937a2.571,2.571,0,1,1,0-5.141h25.256a2.571,2.571,0,1,1,0,5.141" transform="translate(187.166 238.412)" fill="#383838"/>
        <path id="Path_296" data-name="Path 296" d="M82.36,184.729a17.7,17.7,0,1,1-17.7-17.7,17.7,17.7,0,0,1,17.7,17.7" transform="translate(73.625 261.895)" fill="#7ad300"/>
        <path id="Path_297" data-name="Path 297" d="M82.36,205.665a17.7,17.7,0,1,1-17.7-17.7,17.7,17.7,0,0,1,17.7,17.7" transform="translate(73.625 294.722)" fill="#5cab05"/>
        <path id="Path_298" data-name="Path 298" d="M82.36,226.6a17.7,17.7,0,1,1-17.7-17.7,17.7,17.7,0,0,1,17.7,17.7" transform="translate(73.625 327.55)" fill="#3d830b"/>
        <path id="Path_299" data-name="Path 299" d="M314.371,188.531H26.668a2.568,2.568,0,1,1,0-5.136h287.7a2.568,2.568,0,1,1,0,5.136" transform="translate(37.789 287.563)" fill="#8a8c8d"/>
        <path id="Path_300" data-name="Path 300" d="M314.371,209.524H26.668a2.568,2.568,0,1,1,0-5.136h287.7a2.568,2.568,0,1,1,0,5.136" transform="translate(37.789 320.48)" fill="#8a8c8d"/>
        <path id="Path_301" data-name="Path 301" d="M314.371,231.474H26.668a2.568,2.568,0,1,1,0-5.136h287.7a2.568,2.568,0,1,1,0,5.136" transform="translate(37.789 354.897)" fill="#8a8c8d"/>
        <path id="Path_302" data-name="Path 302" d="M67.941,323.907a2.566,2.566,0,0,1-2.568-2.568V169.758a2.568,2.568,0,1,1,5.136,0V321.339a2.566,2.566,0,0,1-2.568,2.568" transform="translate(102.505 262.154)" fill="#8a8c8d"/>
        <path id="Path_303" data-name="Path 303" d="M107.408,177.066H74.214a2.568,2.568,0,0,1,0-5.136h33.194a2.568,2.568,0,0,1,0,5.136" transform="translate(112.341 269.586)" fill="#8a8c8d"/>
        <path id="Path_304" data-name="Path 304" d="M133.468,182.236H74.214a2.568,2.568,0,0,1,0-5.136h59.254a2.568,2.568,0,0,1,0,5.136" transform="translate(112.341 277.692)" fill="#8a8c8d"/>
        <path id="Path_305" data-name="Path 305" d="M114.945,196.342H74.214a2.568,2.568,0,0,1,0-5.136h40.731a2.568,2.568,0,1,1,0,5.136" transform="translate(112.341 299.811)" fill="#8a8c8d"/>
        <path id="Path_306" data-name="Path 306" d="M133.468,201.512H74.214a2.568,2.568,0,1,1,0-5.136h59.254a2.568,2.568,0,1,1,0,5.136" transform="translate(112.341 307.917)" fill="#8a8c8d"/>
        <path id="Path_307" data-name="Path 307" d="M131.01,218.044h-56.8a2.568,2.568,0,0,1,0-5.136h56.8a2.568,2.568,0,1,1,0,5.136" transform="translate(112.341 333.839)" fill="#8a8c8d"/>
        <path id="Path_308" data-name="Path 308" d="M108.063,223.214H74.214a2.568,2.568,0,0,1,0-5.136h33.849a2.568,2.568,0,0,1,0,5.136" transform="translate(112.341 341.946)" fill="#8a8c8d"/>
        <path id="Path_309" data-name="Path 309" d="M65.608,182.034H29.3a5.177,5.177,0,0,1,0-10.354H65.608a5.177,5.177,0,0,1,0,10.354" transform="translate(37.828 269.194)" fill="#7ad300"/>
        <path id="Path_310" data-name="Path 310" d="M57.085,203.1H29.3a5.177,5.177,0,1,1,0-10.354H57.085a5.177,5.177,0,1,1,0,10.354" transform="translate(37.828 302.221)" fill="#5cab05"/>
        <path id="Path_311" data-name="Path 311" d="M65.608,224.034H29.3a5.177,5.177,0,0,1,0-10.354H65.608a5.177,5.177,0,0,1,0,10.354" transform="translate(37.828 335.05)" fill="#3d830b"/>
        <path id="Path_312" data-name="Path 312" d="M138.393,177.1H119.216a2.571,2.571,0,1,1,0-5.141h19.178a2.571,2.571,0,0,1,0,5.141" transform="translate(182.899 269.623)" fill="#383838"/>
        <path id="Path_313" data-name="Path 313" d="M168.157,182.24H119.312a2.571,2.571,0,1,1,0-5.141h48.846a2.571,2.571,0,1,1,0,5.141" transform="translate(183.05 277.691)" fill="#383838"/>
        <path id="Path_314" data-name="Path 314" d="M136.671,169.011l-7.229,12.519H143.9Z" transform="translate(202.965 265.009)" fill="#7ad400"/>
        <path id="Path_315" data-name="Path 315" d="M145.466,185.67H131.011a2.571,2.571,0,0,1-2.226-3.855l7.232-12.519a2.565,2.565,0,0,1,4.448,0l7.229,12.519a2.571,2.571,0,0,1-2.226,3.855m-10-5.141h5.555l-2.776-4.81Z" transform="translate(201.396 263.439)" fill="#7ad400"/>
        <path id="Path_316" data-name="Path 316" d="M138.393,196.818H119.216a2.571,2.571,0,1,1,0-5.141h19.178a2.571,2.571,0,1,1,0,5.141" transform="translate(182.899 300.549)" fill="#383838"/>
        <path id="Path_317" data-name="Path 317" d="M168.157,201.963H119.312a2.571,2.571,0,0,1,0-5.141h48.846a2.571,2.571,0,1,1,0,5.141" transform="translate(183.05 308.617)" fill="#383838"/>
        <path id="Path_318" data-name="Path 318" d="M136.671,201.634l7.229-12.519H129.442Z" transform="translate(202.965 296.532)" fill="#7ad400"/>
        <path id="Path_319" data-name="Path 319" d="M138.24,205.774a2.569,2.569,0,0,1-2.224-1.287l-7.232-12.519a2.571,2.571,0,0,1,2.226-3.855h14.455a2.571,2.571,0,0,1,2.226,3.855l-7.229,12.519a2.566,2.566,0,0,1-2.224,1.287m-2.779-12.519,2.779,4.81,2.776-4.81Z" transform="translate(201.396 294.962)" fill="#7ad400"/>
        <path id="Path_320" data-name="Path 320" d="M138.393,219.51H119.216a2.571,2.571,0,1,1,0-5.141h19.178a2.571,2.571,0,0,1,0,5.141" transform="translate(182.899 336.13)" fill="#383838"/>
        <path id="Path_321" data-name="Path 321" d="M168.157,224.655H119.312a2.571,2.571,0,1,1,0-5.141h48.846a2.571,2.571,0,1,1,0,5.141" transform="translate(183.05 344.197)" fill="#383838"/>
        <path id="Path_322" data-name="Path 322" d="M136.671,211.426l-7.229,12.519H143.9Z" transform="translate(202.965 331.515)" fill="gold"/>
        <path id="Path_323" data-name="Path 323" d="M145.466,228.081H131.011a2.568,2.568,0,0,1-2.226-3.852l7.232-12.519a2.568,2.568,0,0,1,4.448,0l7.229,12.519a2.568,2.568,0,0,1-2.226,3.852m-10.008-5.136h5.56l-2.779-4.815Z" transform="translate(201.396 329.947)" fill="gold"/>
        <path id="Path_324" data-name="Path 324" d="M99.324,246.611H26.894a2.569,2.569,0,1,1,0-5.139h72.43a2.569,2.569,0,1,1,0,5.139" transform="translate(38.138 378.628)" fill="#383838"/>
        <path id="Path_325" data-name="Path 325" d="M158.112,246.613H127.1a2.571,2.571,0,0,1,0-5.141h31.014a2.571,2.571,0,0,1,0,5.141" transform="translate(195.26 378.628)" fill="#383838"/>
        <path id="Path_326" data-name="Path 326" d="M315.507,166.124H168.52a5.126,5.126,0,0,1,0-10.251H315.507a5.126,5.126,0,0,1,0,10.251" transform="translate(256.201 244.409)" fill="#007934"/>
        <path id="Path_327" data-name="Path 327" d="M263.829,173.96H168.521a5.126,5.126,0,1,1,0-10.251h95.309a5.126,5.126,0,1,1,0,10.251" transform="translate(256.203 256.695)" fill="#383838"/>
        <path id="Path_328" data-name="Path 328" d="M227.507,211.307H168.163a5.126,5.126,0,0,1,0-10.251h59.344a5.126,5.126,0,0,1,0,10.251" transform="translate(255.642 315.255)" fill="#383838"/>
        <path id="Path_329" data-name="Path 329" d="M223.562,198.031H173.877a11.634,11.634,0,1,1,0-23.269h49.686a11.634,11.634,0,1,1,0,23.269" transform="translate(254.394 274.026)" fill="#4fb312"/>
        <path id="Path_330" data-name="Path 330" d="M258,198.031H208.316a11.634,11.634,0,1,1,0-23.269H258a11.634,11.634,0,1,1,0,23.269" transform="translate(308.394 274.026)" fill="#229225"/>
        <path id="Path_331" data-name="Path 331" d="M292.417,198.031H242.732a11.634,11.634,0,1,1,0-23.269h49.686a11.634,11.634,0,1,1,0,23.269" transform="translate(362.358 274.026)" fill="#007934"/>
      </g>
    </g>
    <g id="Group_336" data-name="Group 336">
      <g id="Group_335" data-name="Group 335" clip-path="url(#clip-path)">
        <path id="Path_332" data-name="Path 332" d="M195.9,37.325h2.175c.077.018.151.031.229.041a22.9,22.9,0,0,1,5.3.9,23.393,23.393,0,0,1,12.121,8.279,23.035,23.035,0,0,1,4.687,11.145c.069.5.123,1,.185,1.495v3.6a1.993,1.993,0,0,0-.041.229,23,23,0,0,1-1.025,5.18,23.41,23.41,0,0,1-7.663,11.178,23,23,0,0,1-11.962,5.087c-.357.044-.714.087-1.071.136h-3.69a.874.874,0,0,0-.18-.044,22.8,22.8,0,0,1-4.586-.847,23.371,23.371,0,0,1-12.121-8.284,23.023,23.023,0,0,1-4.836-12.48c-.026-.288-.057-.575-.085-.863V59.89a1.349,1.349,0,0,0,.039-.208,21.885,21.885,0,0,1,.6-4.176,23.414,23.414,0,0,1,10.344-14.5,22.838,22.838,0,0,1,10.721-3.6c.285-.026.573-.059.863-.087M178.061,60.966a18.93,18.93,0,1,0,18.934-18.918,18.959,18.959,0,0,0-18.934,18.918" transform="translate(271.794 58.526)" fill="#097b35"/>
        <path id="Path_333" data-name="Path 333" d="M183.944,46.607a2.348,2.348,0,1,1,2.355-2.339,2.349,2.349,0,0,1-2.355,2.339" transform="translate(284.834 65.715)" fill="#097b35"/>
        <path id="Path_334" data-name="Path 334" d="M189.005,57.968h-1.371V45.781a1.156,1.156,0,0,0-1.176-1.217c-1.346-.008-3.21-.008-4.553,0a1.128,1.128,0,0,0-1.135.994,3.2,3.2,0,0,0-.01.5,1.127,1.127,0,0,0,.924,1.081,2.975,2.975,0,0,0,.4.033c.3.015.609.026.914.041v10.76h-1.125a1.183,1.183,0,1,0,0,2.365h7.131a1.183,1.183,0,0,0,0-2.365" transform="translate(283.322 69.866)" fill="#097b35"/>
        <path id="Path_335" data-name="Path 335" d="M393.28,35.306a15.409,15.409,0,0,1,15.408,15.408v76.937a15.409,15.409,0,0,1-15.408,15.408H185A15.407,15.407,0,0,1,169.6,127.651V50.714A15.407,15.407,0,0,1,185,35.306Zm0-5.136H185a20.566,20.566,0,0,0-20.544,20.544v76.937A20.565,20.565,0,0,0,185,148.2H393.28a20.566,20.566,0,0,0,20.544-20.544V50.714A20.568,20.568,0,0,0,393.28,30.17" transform="translate(257.871 47.306)" fill="#007934"/>
        <path id="Path_336" data-name="Path 336" d="M334.971,44.237H201.7a2.568,2.568,0,1,1,0-5.136H334.971a2.568,2.568,0,0,1,0,5.136" transform="translate(312.242 61.31)" fill="#007934"/>
        <path id="Path_337" data-name="Path 337" d="M334.971,71.063H201.7a2.568,2.568,0,1,1,0-5.136H334.971a2.568,2.568,0,0,1,0,5.136" transform="translate(312.242 103.373)" fill="#007934"/>
        <path id="Path_338" data-name="Path 338" d="M256.282,52.763H201.7a2.568,2.568,0,1,1,0-5.136h54.58a2.568,2.568,0,1,1,0,5.136" transform="translate(312.242 74.679)" fill="#007934"/>
        <path id="Path_339" data-name="Path 339" d="M296.751,52.763h-70.4a2.568,2.568,0,0,1,0-5.136h70.4a2.568,2.568,0,0,1,0,5.136" transform="translate(350.885 74.679)" fill="#007934"/>
        <path id="Path_340" data-name="Path 340" d="M236.91,61.29H201.7a2.568,2.568,0,0,1,0-5.136H236.91a2.568,2.568,0,1,1,0,5.136" transform="translate(312.243 88.049)" fill="#007934"/>
        <path id="Path_341" data-name="Path 341" d="M244.747,61.29H219.082a2.568,2.568,0,0,1,0-5.136h25.665a2.568,2.568,0,0,1,0,5.136" transform="translate(339.493 88.049)" fill="#007934"/>
        <path id="Path_342" data-name="Path 342" d="M286.508,61.29H233.15a2.568,2.568,0,0,1,0-5.136h53.358a2.568,2.568,0,0,1,0,5.136" transform="translate(361.552 88.049)" fill="#007934"/>
        <path id="Path_343" data-name="Path 343" d="M228.319,133.217a31.776,31.776,0,0,0-10-18.423,37.128,37.128,0,0,0-8.459-5.978,2.866,2.866,0,0,0-3.968.722c-.041.054-.087.118-.152.2a16.5,16.5,0,0,1-1.656,1.687c-4,3.546-8.767,4.057-12.758,1.366a15,15,0,0,1-2.262-1.893c-.059-.062-.2-.254-.3-.383a6.632,6.632,0,0,0-1.238-1.356,2.408,2.408,0,0,0-1.754-.711h-.059a5.517,5.517,0,0,0-3.074,1.3c-.134.092-.252.177-.341.231a39.1,39.1,0,0,0-4.276,2.969,33.542,33.542,0,0,0-11.88,17.57,26.543,26.543,0,0,0-.534,2.663,2.374,2.374,0,0,0,4.7.691,21.562,21.562,0,0,1,.439-2.188,28.785,28.785,0,0,1,10.236-15.025,34.511,34.511,0,0,1,3.754-2.607c.162-.1.329-.211.5-.331a5.726,5.726,0,0,0,.442.508,19.529,19.529,0,0,0,2.992,2.5c5.811,3.921,12.925,3.251,18.561-1.749.508-.449.991-.922,1.443-1.4a32.518,32.518,0,0,1,6.389,4.687,27,27,0,0,1,8.554,15.624,2.376,2.376,0,0,0,2.35,2.044,2.451,2.451,0,0,0,.331-.023,2.373,2.373,0,0,0,2.021-2.681m-40.3-23.338a2.206,2.206,0,0,1,.1.267,2.585,2.585,0,0,0-.1-.267" transform="translate(259.629 169.835)" fill="#007934"/>
        <path id="Path_344" data-name="Path 344" d="M176.02,113.5a34.87,34.87,0,0,0-6.4,8.307,2.373,2.373,0,1,0,4.163,2.278,30.267,30.267,0,0,1,5.534-7.175,2.373,2.373,0,1,0-3.3-3.41" transform="translate(265.511 176.916)" fill="#007934"/>
        <path id="Path_345" data-name="Path 345" d="M176.335,125.069a31.813,31.813,0,0,0,1.785,3.364c3.359,5.472,7.624,8.487,12.013,8.487a9.911,9.911,0,0,0,3.112-.519l1.025-.342-.837-.683a4.349,4.349,0,0,1-1.641-2.85l-.087-.621-.614.121a5.194,5.194,0,0,1-.958.1c-6.03,0-11.695-11.307-11.695-18.122a11.695,11.695,0,0,1,23.389,0,24.036,24.036,0,0,1-2.725,10.056l-.277.555.568.254a5.644,5.644,0,0,1,2.509,2.224l.534.886.5-.909c.282-.521.555-1.055.809-1.592v1.913a1.256,1.256,0,0,1-1.24,1.24h-2.221a2.349,2.349,0,0,0-.539.064,3.372,3.372,0,1,0-.056,4.6,2.4,2.4,0,0,0,.6.077H202.5a5.994,5.994,0,0,0,5.986-5.986V122.7a2.41,2.41,0,0,0-.085-.627,9.335,9.335,0,0,0,.8-10.747v-3.983c0-9.242-7.118-16.761-15.87-16.761h-5.765c-8.752,0-15.87,7.519-15.87,16.761v3.051a9.343,9.343,0,0,0,4.638,14.676m11.232-29.743h5.765c5.6,0,10.239,4.489,11.009,10.305a16.476,16.476,0,0,0-27.532-1.343,11.33,11.33,0,0,1,10.757-8.962" transform="translate(266.128 142.031)" fill="#007934"/>
        <path id="Path_346" data-name="Path 346" d="M359.289,97.848H198.761a2.568,2.568,0,1,1,0-5.136H359.289a2.568,2.568,0,0,1,0,5.136" transform="translate(307.63 145.372)" fill="#8a8c8d"/>
        <path id="Path_347" data-name="Path 347" d="M359.289,124.673H198.761a2.568,2.568,0,0,1,0-5.136H359.289a2.568,2.568,0,0,1,0,5.136" transform="translate(307.63 187.434)" fill="#8a8c8d"/>
        <path id="Path_348" data-name="Path 348" d="M330.011,133.141H217.433a2.568,2.568,0,1,1,0-5.136H330.011a2.568,2.568,0,1,1,0,5.136" transform="translate(336.908 200.712)" fill="#8a8c8d"/>
        <path id="Path_349" data-name="Path 349" d="M224.055,133.141H199.03a2.568,2.568,0,0,1,0-5.136h25.025a2.568,2.568,0,1,1,0,5.136" transform="translate(308.052 200.712)" fill="#8a8c8d"/>
        <path id="Path_350" data-name="Path 350" d="M229.113,133.141H166.706a2.568,2.568,0,1,1,0-5.136h62.407a2.568,2.568,0,0,1,0,5.136" transform="translate(257.368 200.712)" fill="#8a8c8d"/>
        <path id="Path_351" data-name="Path 351" d="M286.725,141.609H245.039a2.568,2.568,0,0,1,0-5.136h41.686a2.568,2.568,0,0,1,0,5.136" transform="translate(380.194 213.989)" fill="#8a8c8d"/>
        <path id="Path_352" data-name="Path 352" d="M317.9,141.609H185.934a2.568,2.568,0,1,1,0-5.136H317.9a2.568,2.568,0,1,1,0,5.136" transform="translate(287.517 213.989)" fill="#8a8c8d"/>
        <path id="Path_353" data-name="Path 353" d="M195.486,141.609h-28.78a2.568,2.568,0,0,1,0-5.136h28.78a2.568,2.568,0,0,1,0,5.136" transform="translate(257.368 213.989)" fill="#8a8c8d"/>
        <path id="Path_354" data-name="Path 354" d="M259.063,106.373h-60.3a2.568,2.568,0,0,1,0-5.136h60.3a2.568,2.568,0,1,1,0,5.136" transform="translate(307.63 158.739)" fill="#8a8c8d"/>
        <path id="Path_355" data-name="Path 355" d="M313.646,106.373H228.2a2.568,2.568,0,1,1,0-5.136h85.447a2.568,2.568,0,0,1,0,5.136" transform="translate(353.787 158.739)" fill="#8a8c8d"/>
        <path id="Path_356" data-name="Path 356" d="M234.392,114.9H198.761a2.568,2.568,0,1,1,0-5.136h35.631a2.568,2.568,0,1,1,0,5.136" transform="translate(307.63 172.11)" fill="#8a8c8d"/>
        <path id="Path_357" data-name="Path 357" d="M250.528,114.9H219.381a2.568,2.568,0,0,1,0-5.136h31.147a2.568,2.568,0,1,1,0,5.136" transform="translate(339.962 172.11)" fill="#8a8c8d"/>
        <path id="Path_358" data-name="Path 358" d="M301.215,114.9H236.453a2.568,2.568,0,1,1,0-5.136h64.762a2.568,2.568,0,1,1,0,5.136" transform="translate(366.731 172.11)" fill="#8a8c8d"/>
        <path id="Path_359" data-name="Path 359" d="M217.194,192.97H168.541a2.568,2.568,0,1,1,0-5.136h48.653a2.568,2.568,0,1,1,0,5.136" transform="translate(260.245 294.523)" fill="#8a8c8d"/>
        <path id="Path_360" data-name="Path 360" d="M251.714,192.97H202.961a2.568,2.568,0,1,1,0-5.136h48.753a2.568,2.568,0,0,1,0,5.136" transform="translate(314.216 294.523)" fill="#8a8c8d"/>
        <path id="Path_361" data-name="Path 361" d="M286.273,192.97H237.342a2.568,2.568,0,1,1,0-5.136h48.931a2.568,2.568,0,0,1,0,5.136" transform="translate(368.125 294.523)" fill="#8a8c8d"/>
        <rect id="Rectangle_226" data-name="Rectangle 226" width="34.907" height="66.416" transform="translate(529.413 578.819)" fill="#4fb312"/>
        <rect id="Rectangle_227" data-name="Rectangle 227" width="34.907" height="44.185" transform="translate(564.233 601.05)" fill="#229225"/>
        <rect id="Rectangle_228" data-name="Rectangle 228" width="34.907" height="66.457" transform="translate(599.052 578.778)" fill="#007934"/>
        <g id="Group_334" data-name="Group 334" transform="translate(633.874 603.304)" opacity="0.6">
          <g id="Group_333" data-name="Group 333">
            <g id="Group_332" data-name="Group 332" clip-path="url(#clip-path-4)">
              <rect id="Rectangle_229" data-name="Rectangle 229" width="34.907" height="41.933" transform="translate(0 -0.002)" fill="#7ad300"/>
            </g>
          </g>
        </g>
        <path id="Path_362" data-name="Path 362" d="M222.34,224.854h-9.992a2.568,2.568,0,1,1,0-5.136h9.992a2.568,2.568,0,0,1,0,5.136" transform="translate(328.935 344.517)" fill="#8a8c8d"/>
        <path id="Path_363" data-name="Path 363" d="M236.3,233.77h-9.99a2.568,2.568,0,1,1,0-5.136h9.99a2.568,2.568,0,0,1,0,5.136" transform="translate(350.824 358.498)" fill="#8a8c8d"/>
        <path id="Path_364" data-name="Path 364" d="M249.759,224.854h-9.99a2.568,2.568,0,1,1,0-5.136h9.99a2.568,2.568,0,0,1,0,5.136" transform="translate(371.932 344.517)" fill="#8a8c8d"/>
        <path id="Path_365" data-name="Path 365" d="M263.868,234.76h-9.989a2.568,2.568,0,0,1,0-5.136h9.989a2.568,2.568,0,1,1,0,5.136" transform="translate(394.055 360.05)" fill="#8a8c8d"/>
        <path id="Path_366" data-name="Path 366" d="M230.359,260.367H210.411a2.571,2.571,0,1,1,0-5.141h19.948a2.571,2.571,0,0,1,0,5.141" transform="translate(325.893 400.194)" fill="#383838"/>
        <path id="Path_367" data-name="Path 367" d="M244.32,260.367H224.372a2.571,2.571,0,1,1,0-5.141H244.32a2.571,2.571,0,0,1,0,5.141" transform="translate(347.783 400.194)" fill="#383838"/>
        <path id="Path_368" data-name="Path 368" d="M257.783,260.367H237.833a2.571,2.571,0,0,1,0-5.141h19.951a2.571,2.571,0,0,1,0,5.141" transform="translate(368.89 400.194)" fill="#383838"/>
        <path id="Path_369" data-name="Path 369" d="M271.889,260.367H251.941a2.571,2.571,0,1,1,0-5.141h19.948a2.571,2.571,0,1,1,0,5.141" transform="translate(391.012 400.194)" fill="#383838"/>
        <path id="Path_370" data-name="Path 370" d="M347.529,315.634H207.45a2.57,2.57,0,0,1-2.571-2.571V214.417a2.571,2.571,0,0,1,5.141,0v96.077H347.529a2.571,2.571,0,0,1,0,5.141" transform="translate(321.25 332.174)" fill="#383838"/>
        <path id="Path_371" data-name="Path 371" d="M213.549,218.567H202.926a2.571,2.571,0,1,1,0-5.141h10.624a2.571,2.571,0,1,1,0,5.141" transform="translate(314.156 334.651)" fill="#383838"/>
        <path id="Path_372" data-name="Path 372" d="M213.549,224.764H202.926a2.571,2.571,0,1,1,0-5.141h10.624a2.571,2.571,0,1,1,0,5.141" transform="translate(314.156 344.368)" fill="#383838"/>
        <path id="Path_373" data-name="Path 373" d="M213.549,230.961H202.926a2.571,2.571,0,1,1,0-5.141h10.624a2.571,2.571,0,1,1,0,5.141" transform="translate(314.156 354.085)" fill="#383838"/>
        <path id="Path_374" data-name="Path 374" d="M213.549,237.158H202.926a2.571,2.571,0,1,1,0-5.141h10.624a2.571,2.571,0,1,1,0,5.141" transform="translate(314.156 363.802)" fill="#383838"/>
        <path id="Path_375" data-name="Path 375" d="M213.549,243.356H202.926a2.571,2.571,0,1,1,0-5.141h10.624a2.571,2.571,0,1,1,0,5.141" transform="translate(314.156 373.521)" fill="#383838"/>
        <path id="Path_376" data-name="Path 376" d="M213.549,249.552H202.926a2.571,2.571,0,1,1,0-5.141h10.624a2.571,2.571,0,1,1,0,5.141" transform="translate(314.156 383.236)" fill="#383838"/>
        <rect id="Rectangle_231" data-name="Rectangle 231" width="78.645" height="19.106" transform="translate(418.499 626.943)" fill="#007934"/>
        <path id="Path_377" data-name="Path 377" d="M191.085,218.985H167.47a2.568,2.568,0,1,1,0-5.136h23.615a2.568,2.568,0,0,1,0,5.136" transform="translate(258.566 335.315)" fill="#8a8c8d"/>
        <path id="Path_378" data-name="Path 378" d="M203.333,218.989H184.248a2.571,2.571,0,0,1,0-5.141h19.085a2.571,2.571,0,1,1,0,5.141" transform="translate(284.869 335.313)" fill="#383838"/>
        <path id="Path_379" data-name="Path 379" d="M191.087,227.194H167.472a2.571,2.571,0,0,1,0-5.141h23.615a2.571,2.571,0,0,1,0,5.141" transform="translate(258.564 348.179)" fill="#383838"/>
        <path id="Path_380" data-name="Path 380" d="M203.333,227.194H184.248a2.571,2.571,0,0,1,0-5.141h19.085a2.571,2.571,0,0,1,0,5.141" transform="translate(284.869 348.179)" fill="#383838"/>
        <path id="Path_381" data-name="Path 381" d="M191.085,235.394H167.47a2.568,2.568,0,1,1,0-5.136h23.615a2.568,2.568,0,0,1,0,5.136" transform="translate(258.566 361.044)" fill="#8a8c8d"/>
        <path id="Path_382" data-name="Path 382" d="M203.333,235.4H184.248a2.571,2.571,0,0,1,0-5.141h19.085a2.571,2.571,0,0,1,0,5.141" transform="translate(284.869 361.042)" fill="#383838"/>
        <path id="Path_383" data-name="Path 383" d="M191.085,243.6H167.47a2.568,2.568,0,1,1,0-5.136h23.615a2.568,2.568,0,0,1,0,5.136" transform="translate(258.566 373.909)" fill="#8a8c8d"/>
        <path id="Path_384" data-name="Path 384" d="M203.333,243.6H184.248a2.571,2.571,0,0,1,0-5.141h19.085a2.571,2.571,0,1,1,0,5.141" transform="translate(284.869 373.908)" fill="#383838"/>
        <path id="Path_385" data-name="Path 385" d="M191.087,251.807H167.472a2.571,2.571,0,0,1,0-5.141h23.615a2.571,2.571,0,0,1,0,5.141" transform="translate(258.564 386.772)" fill="#383838"/>
        <path id="Path_386" data-name="Path 386" d="M203.333,251.807H184.248a2.571,2.571,0,0,1,0-5.141h19.085a2.571,2.571,0,0,1,0,5.141" transform="translate(284.869 386.772)" fill="#383838"/>
        <path id="Path_387" data-name="Path 387" d="M0,95.7c0-17.527,102.394-28,201.385-28S402.77,78.177,402.77,95.7s-102.394,28-201.385,28S0,113.23,0,95.7m400.2,0c0-12.28-79.888-25.431-198.817-25.431S2.568,83.424,2.568,95.7s79.89,25.431,198.817,25.431S400.2,107.984,400.2,95.7" transform="translate(0 106.161)" fill="red"/>
      </g>
    </g>
  </g>
</svg>
