<svg xmlns="http://www.w3.org/2000/svg" viewBox="0 0 61.78 53.28"><defs><style>.cls-1{fill:#4fb412;fill-rule:evenodd;}</style></defs><g id="Layer_2" data-name="Layer 2"><g id="Capa_1" data-name="Capa 1"><g id="logo-epm-remate"><path id="Path_33" data-name="Path 33" class="cls-1" d="M50.76,5.77A5.25,5.25,0,0,0,56,11h0a5.25,5.25,0,0,0,5.24-5.25h0a5.25,5.25,0,1,0-10.5,0m-.52,0A5.77,5.77,0,0,1,56,0h0a5.77,5.77,0,1,1-5.77,5.76Z"/><path id="Path_34" data-name="Path 34" class="cls-1" d="M54,8.62h.78V6.1h.86l1.46,2.52h1L56.42,6a1.53,1.53,0,0,0,1.4-1.51c0-.71-.37-1.6-1.83-1.6H54Zm.78-5h1c.61,0,1.22.15,1.22.93s-.61.91-1.22.91h-1Z"/><path id="Path_35" data-name="Path 35" class="cls-1" d="M21.34,33.09V25.84a7.26,7.26,0,0,0-7.25-7.26h0a7.26,7.26,0,0,0-7.25,7.25h0v7.23a3.43,3.43,0,0,1-3.43,3.42A3.36,3.36,0,0,1,0,33.18v-.11l0-6.72c0-10,7.37-14.81,14-14.81a13.33,13.33,0,0,1,10.63,5.08,13.71,13.71,0,0,1,10.66-5.08c8.32,0,14.51,7.16,14.83,15.46.3,7.45-2.7,19.87-18.6,26.1A3.38,3.38,0,0,1,27.28,51a3.64,3.64,0,0,1-.17-1.27,3.55,3.55,0,0,1,2.77-3.27A18.51,18.51,0,0,0,43.72,26.52c-.67-4.54-3.35-7.86-8.23-7.93a7.25,7.25,0,0,0-7.49,7v7.49a3.32,3.32,0,0,1-3.25,3.4h-.09a3.29,3.29,0,0,1-3.33-3.23v-.17"/></g></g></g></svg>