<svg xmlns="http://www.w3.org/2000/svg" xmlns:xlink="http://www.w3.org/1999/xlink" width="46.762" height="62.504" viewBox="0 0 46.762 62.504">
  <defs>
    <clipPath id="clip-path">
      <rect id="Rectangle_294" data-name="Rectangle 294" width="46.762" height="62.504" fill="#007934"/>
    </clipPath>
  </defs>
  <g id="icono_abono_de_factura" data-name="icono  abono de factura" clip-path="url(#clip-path)">
    <path id="Path_597" data-name="Path 597" d="M46.753,21.264c0-.477-.063-.955-.11-1.622-5.109,0-10,0-14.889,0-3.148,0-4.491-1.325-4.5-4.42-.007-4.515-.042-9.031.024-13.545C27.3.4,26.936-.011,25.628,0,19.263.063,12.9.011,6.533.036,2.29.052,0,2.384,0,6.638Q0,31.28,0,55.922C0,60.21,2.262,62.5,6.517,62.5q16.891.012,33.783-.006a8.585,8.585,0,0,0,2.1-.212c2.93-.749,4.339-2.785,4.348-6.42q.039-17.3.006-34.6M7.507,9.8c.019-1.126.115-2.09,1.6-2.079q4.476.031,8.952,0c1.578-.011,1.465,1.073,1.493,2.133.028,1.1-.146,1.944-1.554,1.9-1.517-.052-3.038-.012-4.557-.012-1.41,0-2.823-.048-4.231.014-1.448.063-1.726-.75-1.706-1.953m1.643,9.839c-1.444.012-1.644-.907-1.642-2.064s.218-2.041,1.671-2.026c2.929.03,5.86.037,8.789,0,1.526-.021,1.576.947,1.59,2.061.015,1.151-.131,2.078-1.619,2.039-1.464-.038-2.93-.008-4.395-.008s-2.93-.01-4.395,0M24.118,52.98v1.048c0,.753,0,1.539-.884,1.539s-.884-.786-.884-1.539V53.013c-2.652-.066-7.139-.786-7.139-3.6A2.186,2.186,0,0,1,17.4,47.085c1.408,0,3.045,1.048,4.945,1.245V42.861c-3.111-.917-7.041-1.768-7.041-6.451,0-4.192,3.144-6.942,7.041-7.368V28.026c0-.884,0-1.539.884-1.539s.884.655.884,1.539v1.015c1.965.065,5.731.851,5.731,3.209a2.27,2.27,0,0,1-2.194,2.423c-1.146,0-2.063-.72-3.537-.884v4.355c3.176.917,7.433,2.063,7.433,7.335,0,4.356-3.34,7.172-7.433,7.5" transform="translate(0 -0.001)" fill="#007934"/>
    <path id="Path_598" data-name="Path 598" d="M73.888,133.011v4.781a2.624,2.624,0,0,0,2.129-2.653c0-1.081-.884-1.7-2.129-2.129" transform="translate(-49.77 -89.594)" fill="#007934"/>
    <path id="Path_599" data-name="Path 599" d="M63.153,105.614c0,.851.688,1.343,1.736,1.736v-3.733a2.093,2.093,0,0,0-1.736,2" transform="translate(-42.539 -69.794)" fill="#007934"/>
    <path id="Path_600" data-name="Path 600" d="M96.468,2.316V16.972H111.1L96.468,2.316" transform="translate(-64.98 -1.56)" fill="#007934"/>
  </g>
</svg>
