<svg id="icono_direccion_residencia" data-name="icono direccion residencia" xmlns="http://www.w3.org/2000/svg" xmlns:xlink="http://www.w3.org/1999/xlink" width="175.256" height="140.206" viewBox="0 0 175.256 140.206">
  <defs>
    <clipPath id="clip-path">
      <rect id="Rectangle_284" data-name="Rectangle 284" width="175.256" height="140.206" fill="#545454"/>
    </clipPath>
  </defs>
  <g id="Group_403" data-name="Group 403" clip-path="url(#clip-path)">
    <path id="Path_583" data-name="Path 583" d="M101.2,76.865C87.737,64.491,74.341,52.046,60.771,39.794a12.072,12.072,0,0,0-16.646.1C30.958,51.869,17.871,63.934,4.714,75.922A13.89,13.89,0,0,0,0,86.928c.1,16.1.03,32.2.045,48.3.009,9.6,5.085,14.71,14.643,14.727q18.846.032,37.69,0c12.685,0,25.371.02,38.056-.006,9.164-.019,14.317-4.7,14.423-13.763.2-16.706.056-33.418.066-50.128a11.83,11.83,0,0,0-3.725-9.2M66,101.544c-.018,7.015-2.449,9.533-9.37,9.614-3.3.039-6.6.111-9.886-.059-4.951-.256-7.46-2.629-7.724-7.5a113.983,113.983,0,0,1-.005-12.08c.254-4.881,2.749-7.286,7.681-7.538,3.532-.18,7.081-.134,10.618-.051,6.059.144,8.63,2.8,8.682,8.819.013,1.586,0,3.174,0,4.761,0,1.343,0,2.686,0,4.028" transform="translate(0 -9.77)" fill="#545454"/>
    <path id="Path_584" data-name="Path 584" d="M193.133.057Q163.667-.056,134.2.06c-8.787.037-14.1,5.435-14.181,14.23q-.118,12.444.029,24.889c.014,1.256.229,2.916,1.028,3.692,4.955,4.814,10.1,9.43,15.244,14.163,2.769-4.59,2.769-4.59,8.035-4.6,10.964-.021,10.964-.021,10.923,10.858-.021,5.83-1,6.857-6.668,7.07-.82.031-1.636.2-2.566.313a32.581,32.581,0,0,0,.386,5.937,3.553,3.553,0,0,0,2.4,2.2c5.726.681,6.414,1.313,6.448,6.97.01,1.586.023,3.172-.005,4.758-.084,4.667-1.238,6.057-5.77,6.024-2.712-.019-3.264,1.1-3.229,3.494.106,7.319-.011,14.641.053,21.961.053,6.1.278,12.206-4.036,18.133,18.354,0,35.667.167,52.973-.084,6.684-.1,11.228-5.022,11.887-11.683.119-1.211.19-2.434.191-3.651q.014-54.722,0-109.442c-.007-9.84-4.959-15.2-14.205-15.234m-49.7,43.984c-4.935-.082-6.269-1.333-6.388-6.235q-.067-2.736,0-5.474c.113-4.983,1.328-6.15,6.352-6.172.973,0,1.947,0,2.92,0,1.1,0,2.19-.011,3.285,0,4.094.054,5.574,1.369,5.655,5.39.26,12.929.193,12.686-11.823,12.488M172.19,31.9c.114-4.518,1.394-5.7,6.014-5.736,1.094-.008,2.188,0,3.282,0,4.845,0,7.035.07,8.024,1.643a3.356,3.356,0,0,1,.288.582,5.186,5.186,0,0,1,.21.705,29.593,29.593,0,0,1,.314,5.786c0,1.337.036,2.676-.02,4.011-.14,3.337-1.767,5.181-5.248,5.147-2.674-.026-5.348.017-8.022-.019a4.381,4.381,0,0,1-4.754-4.466c-.191-2.539-.152-5.1-.089-7.651m11.8,20.53c5.049.09,6.264,1.241,6.325,6.216.01.853,0,1.705,0,2.558,0,1.983,0,3.536-.105,4.753-.029.347-.067.667-.113.962-.543,3.391-2.431,3.435-8.982,3.434-1.1,0-2.193.018-3.289-.006-4.13-.094-5.564-1.361-5.631-5.441-.21-12.775-.551-12.7,11.793-12.477m6.3,39.038c-.129,3.824-1.519,5.093-5.433,5.16-1.214.021-2.43,0-3.645,0-5.83,0-7.908-.075-8.646-2.7a8.494,8.494,0,0,1-.241-1.288,49.374,49.374,0,0,1-.16-5.29c0-1.335-.052-2.68.079-4,.278-2.8,1.676-4.475,4.7-4.439,2.914.035,5.83.023,8.745,0,3.063-.021,4.416,1.761,4.57,4.539.149,2.665.119,5.345.029,8.014" transform="translate(-32.098 0)" fill="#545454"/>
  </g>
</svg>
