<svg id="icono_teclado" data-name="icono teclado" xmlns="http://www.w3.org/2000/svg" xmlns:xlink="http://www.w3.org/1999/xlink" width="50.371" height="33.648" viewBox="0 0 50.371 33.648">
  <defs>
    <clipPath id="clip-path">
      <rect id="Rectangle_289" data-name="Rectangle 289" width="50.371" height="33.648" fill="#007934"/>
    </clipPath>
  </defs>
  <g id="Group_409" data-name="Group 409" clip-path="url(#clip-path)">
    <path id="Path_594" data-name="Path 594" d="M25.2,33.647q-9.485,0-18.969,0C2.3,33.644,0,31.327,0,27.377Q0,16.78,0,6.183C0,2.407,2.187.054,6,.039Q25.2-.036,44.4.043c3.852.018,5.968,2.321,5.969,6.14q0,10.656,0,21.311c0,3.889-2.28,6.15-6.2,6.152q-9.485,0-18.969,0m.019-5.465c3.235,0,6.47-.011,9.705.006,1.061.006,1.607-.438,1.587-1.531q-.025-1.4,0-2.806c.017-.952-.371-1.447-1.381-1.445q-9.939.019-19.879,0c-.948,0-1.34.449-1.319,1.366.02.9,0,1.793,0,2.689.011,1.466.242,1.712,1.693,1.716,3.2.01,6.392,0,9.589,0M8.27,11.271c2.967,0,2.937,0,2.975-2.693.05-3.505-.231-3.024-3.094-3.035-2.757-.011-2.757,0-2.757,2.8,0,2.924,0,2.924,2.877,2.924m16.9,0h.467c2.443,0,2.459-.017,2.459-2.491V8.546c0-3.005,0-3.005-2.987-3.005-2.818,0-2.818,0-2.818,2.838,0,2.892,0,2.892,2.878,2.892m16.778,0c3.028,0,3.028,0,3.028-2.854,0-2.876,0-2.876-2.891-2.876-2.907,0-2.907,0-2.907,2.966,0,2.763,0,2.763,2.77,2.764m.13,8.4c2.9,0,2.9,0,2.9-2.733,0-2.984,0-2.984-3.021-2.984-2.776,0-2.755,0-2.782,2.761-.032,3.247.06,2.968,2.906,2.956m-33.771,0c.468,0,.937-.026,1.4.005,1.116.074,1.56-.471,1.529-1.542-.027-.935,0-1.871-.008-2.806a1.219,1.219,0,0,0-1.369-1.372c-.818,0-1.637,0-2.455,0-1.749,0-2.008.268-2.015,2.044,0,.234,0,.468,0,.7,0,2.971,0,2.971,2.916,2.971m.117,2.738c-3.033,0-3.033,0-3.033,2.764,0,3.008,0,3.008,2.964,3.008,2.88,0,2.88,0,2.88-2.932,0-2.84,0-2.84-2.811-2.84m33.671,0c-2.917,0-2.917,0-2.916,2.849,0,2.923,0,2.923,2.88,2.923,2.917,0,2.917,0,2.917-2.884s0-2.888-2.881-2.888M25.122,19.673c2.977,0,2.977,0,2.977-2.764,0-2.952,0-2.952-2.935-2.952-2.87,0-2.87,0-2.87,2.91,0,2.806,0,2.806,2.828,2.806M16.906,5.541c-3.154-.018-2.978-.189-2.967,2.979.009,2.75,0,2.75,2.732,2.75,3.008,0,3.008,0,3.008-2.98,0-2.749,0-2.749-2.773-2.749m-.1,14.133c2.875,0,2.875,0,2.875-2.857V16.7c0-2.743,0-2.743-2.8-2.743-2.943,0-2.935,0-2.946,2.894-.011,3.068-.12,2.828,2.866,2.822m16.8-8.4c2.912,0,2.912,0,2.912-2.942,0-2.788,0-2.788-2.828-2.788-2.886,0-2.886,0-2.886,2.937,0,2.793,0,2.793,2.8,2.793m-.063,8.4c3.034.013,3,.257,2.979-3-.019-2.72,0-2.72-2.713-2.72-3.005,0-3.005,0-3.005,2.981,0,2.736,0,2.736,2.739,2.736" transform="translate(0 0)" fill="#007934"/>
  </g>
</svg>
