<svg id="Icono_microfono" data-name="Icono microfono" xmlns="http://www.w3.org/2000/svg" xmlns:xlink="http://www.w3.org/1999/xlink" width="34.226" height="47.358" viewBox="0 0 34.226 47.358">
  <defs>
    <clipPath id="clip-path">
      <rect id="Rectangle_282" data-name="Rectangle 282" width="34.226" height="47.358" fill="#007934"/>
    </clipPath>
  </defs>
  <g id="Group_401" data-name="Group 401" transform="translate(0)" clip-path="url(#clip-path)">
    <path id="Path_578" data-name="Path 578" d="M48.553,16.305c0,2.474.009,4.948,0,7.421-.022,4.829-3.673,8.447-8.84,8.775-4.755.3-9.223-3.146-9.47-7.833-.293-5.551-.1-11.126-.083-16.69A6.555,6.555,0,0,1,30.58,6.05,8.971,8.971,0,0,1,39.949.042c5.159.514,8.563,4.008,8.6,8.47.022,2.6,0,5.2,0,7.792" transform="translate(-22.253 0)" fill="#007934"/>
    <path id="Path_579" data-name="Path 579" d="M14.674,97.178a2.765,2.765,0,0,0,.155-.433c.209-2.7.209-2.7-2.449-3.493A16.935,16.935,0,0,1,.056,77.972C-.012,76.737-.012,75.5.024,74.26a2.225,2.225,0,0,1,2.329-2.315A2.1,2.1,0,0,1,4.442,74.3a19.42,19.42,0,0,0,.977,7.559A12.726,12.726,0,0,0,19,89.653c6.2-1.022,10.492-5.712,10.658-11.676.036-1.279-.033-2.561.029-3.837a2.191,2.191,0,0,1,2.181-2.2,2.155,2.155,0,0,1,2.242,2.113c.552,6.459-.833,12.241-6.467,16.508a17.546,17.546,0,0,1-7,3.108c-.485.105-1.242.408-1.3.716a8.744,8.744,0,0,0,.078,2.56c.012.1.52.21.8.218,1,.027,2-.016,2.991.02a2.971,2.971,0,0,1,3.074,2.635c.087,1.009-.357,1.637-1.437,1.642q-7.739.035-15.477,0c-1.173-.008-1.609-.608-1.469-1.713a2.944,2.944,0,0,1,3.132-2.561c1.206-.031,2.412-.006,3.636-.006" transform="translate(0 -54.123)" fill="#007934"/>
  </g>
</svg>
