<svg id="icono_numero_de_contracto" data-name="icono numero de contracto" xmlns="http://www.w3.org/2000/svg" xmlns:xlink="http://www.w3.org/1999/xlink" width="105.163" height="140.585" viewBox="0 0 105.163 140.585">
  <defs>
    <clipPath id="clip-path">
      <rect id="Rectangle_283" data-name="Rectangle 283" width="105.164" height="140.585" fill="##545454"/>
    </clipPath>
  </defs>
  <g id="Group_402" data-name="Group 402" clip-path="url(#clip-path)">
    <path id="Path_580" data-name="Path 580" d="M96.36,2.41V35.237h33L96.36,2.41" transform="translate(-25.623 -0.641)" fill="#545454"/>
    <path id="Path_581" data-name="Path 581" d="M66.591,126h6.387l1.075-7.664H67.667Z" transform="translate(-17.707 -31.467)" fill="#545454"/>
    <path id="Path_582" data-name="Path 582" d="M105.147,48.211c0-1.187-.137-2.374-.234-3.958h-4.222c-9.175,0-18.351.016-27.526-.005-9.392-.021-12.135-2.8-12.157-12.307-.021-9.3-.1-18.6.048-27.891C61.1,1.169,60.483-.038,57.249,0,43.06.172,28.868.033,14.677.089,5.14.128.007,5.376.006,14.951q-.012,55.417,0,110.833c0,9.64,5.082,14.782,14.655,14.789q37.985.026,75.97-.023a18.929,18.929,0,0,0,5.423-.677c6.288-1.917,9.075-6.39,9.087-14.594q.058-38.534.007-77.069M69.524,86.871H62.8l-1.075,7.664h5.782a3.227,3.227,0,0,1,0,6.454H60.784l-1.479,10.824c-.336,2.42-1.345,3.227-3.362,3.227a2.885,2.885,0,0,1-3.093-2.689,6.788,6.788,0,0,1,.135-1.614l1.345-9.749H47.876L46.4,111.814c-.336,2.42-1.345,3.227-3.362,3.227a2.885,2.885,0,0,1-3.093-2.689,6.788,6.788,0,0,1,.135-1.614l1.345-9.749H35.64a3.227,3.227,0,0,1,0-6.454h6.724l1.075-7.664H37.657a3.227,3.227,0,1,1,0-6.454H44.38l1.479-10.824c.336-2.42,1.345-3.227,3.361-3.227a2.885,2.885,0,0,1,3.093,2.689,6.825,6.825,0,0,1-.134,1.614l-1.345,9.749h6.454l1.479-10.824c.336-2.42,1.345-3.227,3.361-3.227a2.885,2.885,0,0,1,3.093,2.689,6.825,6.825,0,0,1-.134,1.614l-1.345,9.749h5.782a3.227,3.227,0,0,1,0,6.454" transform="translate(0 0)" fill="#545454"/>
  </g>
</svg>
