<svg width="120" height="121" viewBox="0 0 120 121" fill="none" xmlns="http://www.w3.org/2000/svg">
<path fill-rule="evenodd" clip-rule="evenodd" d="M24.3929 14.4719C27.2059 11.6588 31.0212 10.0785 34.9995 10.0785H84.9995C88.9777 10.0785 92.793 11.6588 95.6061 14.4719C98.4191 17.2849 99.9995 21.1002 99.9995 25.0785V105.078C99.9995 106.861 99.0507 108.508 97.5091 109.403C95.9675 110.298 94.0663 110.304 92.5188 109.42L77.4995 100.837L62.4802 109.42C60.943 110.298 59.056 110.298 57.5188 109.42L42.4995 100.837L27.4802 109.42C25.9327 110.304 24.0314 110.298 22.4898 109.403C20.9483 108.508 19.9995 106.861 19.9995 105.078V25.0785C19.9995 21.1002 21.5798 17.2849 24.3929 14.4719ZM34.9995 20.0785C33.6734 20.0785 32.4016 20.6053 31.4639 21.543C30.5263 22.4806 29.9995 23.7524 29.9995 25.0785V96.4626L40.0188 90.7373C41.556 89.8589 43.443 89.8589 44.9802 90.7373L59.9995 99.3197L75.0188 90.7373C76.556 89.8589 78.443 89.8589 79.9802 90.7373L89.9995 96.4626V25.0785C89.9995 23.7524 89.4727 22.4806 88.535 21.543C87.5973 20.6053 86.3256 20.0785 84.9995 20.0785H34.9995ZM42.1962 37.2752C43.6027 35.8687 45.5104 35.0785 47.4995 35.0785C49.4886 35.0785 51.3963 35.8687 52.8028 37.2752C54.2093 38.6817 54.9995 40.5894 54.9995 42.5785C54.9995 44.5676 54.2093 46.4753 52.8028 47.8818C51.3963 49.2883 49.4886 50.0785 47.4995 50.0785C45.5104 50.0785 43.6027 49.2883 42.1962 47.8818C40.7896 46.4753 39.9995 44.5676 39.9995 42.5785C39.9995 40.5894 40.7896 38.6817 42.1962 37.2752ZM71.464 36.543C73.4166 34.5903 76.5824 34.5903 78.535 36.543C80.4876 38.4956 80.4876 41.6614 78.535 43.614L48.535 73.614C46.5824 75.5667 43.4166 75.5667 41.4639 73.614C39.5113 71.6614 39.5113 68.4956 41.4639 66.543L71.464 36.543ZM67.1962 62.2752C68.6027 60.8687 70.5104 60.0785 72.4995 60.0785C74.4886 60.0785 76.3963 60.8687 77.8028 62.2752C79.2093 63.6817 79.9995 65.5894 79.9995 67.5785C79.9995 69.5676 79.2093 71.4753 77.8028 72.8818C76.3963 74.2883 74.4886 75.0785 72.4995 75.0785C70.5104 75.0785 68.6027 74.2883 67.1962 72.8818C65.7896 71.4753 64.9995 69.5676 64.9995 67.5785C64.9995 65.5894 65.7896 63.6817 67.1962 62.2752Z" fill="#007934"/>
</svg>
