<svg id="LogoEPM" xmlns="http://www.w3.org/2000/svg" xmlns:xlink="http://www.w3.org/1999/xlink" width="197.553" height="87.383" viewBox="0 0 197.553 87.383">
  <defs>
    <clipPath id="clip-path">
      <rect id="Rectangle_214" data-name="Rectangle 214" width="197.553" height="87.383" fill="none"/>
    </clipPath>
  </defs>
  <g id="Group_318" data-name="Group 318" clip-path="url(#clip-path)">
    <path id="Path_180" data-name="Path 180" d="M39.78,14.569a14.806,14.806,0,1,0,0,29.611A15.072,15.072,0,0,0,54.9,29.311,15.046,15.046,0,0,0,39.78,14.569M39.656,5.6a23.376,23.376,0,1,1-.215,46.737,24.272,24.272,0,0,1-13.509-4.8l0,22.927c-.034,3.19-2.107,5.082-4.671,5.082a4.785,4.785,0,0,1-4.677-5.082V28.358A22.948,22.948,0,0,1,39.656,5.6" transform="translate(35.018 11.833)" fill="#007934"/>
    <path id="Path_181" data-name="Path 181" d="M23.035,13.81c-5.434.072-10.78,3.252-12.909,7.793a1.7,1.7,0,0,0,1.665,2.564H34.211c1.491,0,1.755-1.522,1.058-2.866A13.639,13.639,0,0,0,23.035,13.81M9.759,35.1c1.466,4.332,7.015,8.8,13.086,8.785a17.263,17.263,0,0,0,10.1-3.012c5.15-3.566,9.495,2.894,5.592,6.19a26.078,26.078,0,0,1-15.865,5.287C9.591,52.206,0,41.6,0,28.847A23.343,23.343,0,0,1,22.718,5.61,22.46,22.46,0,0,1,42.7,16.947c3.33,5.9,4.26,15.059-4.565,15.1H11.353c-2.511,0-2.02,1.786-1.593,3.056" transform="translate(0 11.829)" fill="#007934"/>
    <path id="Path_182" data-name="Path 182" d="M57.882,8.714a8.711,8.711,0,1,1,8.711,8.711,8.713,8.713,0,0,1-8.711-8.711m.8.006A7.926,7.926,0,1,0,66.6.8,7.922,7.922,0,0,0,58.679,8.72" transform="translate(122.25 -0.001)" fill="#007934"/>
    <path id="Path_183" data-name="Path 183" d="M60.868,2.439H62.4c.924,0,1.855.215,1.855,1.391S63.327,5.218,62.4,5.218H60.868m-1.173,4.827h1.173V6.239h1.3l2.2,3.806h1.463L63.383,6.1A2.3,2.3,0,0,0,65.5,3.83c0-1.089-.557-2.418-2.76-2.418h-3.04Z" transform="translate(126.079 2.981)" fill="#007934"/>
    <path id="Path_184" data-name="Path 184" d="M65.732,38.143V27.191a10.948,10.948,0,1,0-21.9,0V38.118a5.17,5.17,0,0,1-5.172,5.154,5.077,5.077,0,0,1-5.157-5.154l.056-10.158c.352-15.016,11.07-21.924,21.128-22.2a20.027,20.027,0,0,1,16.061,7.513,20.671,20.671,0,0,1,16.1-7.671c12.563,0,21.906,10.818,22.394,23.35.442,11.25-4.077,30.013-28.077,39.414a5.1,5.1,0,0,1-6.706-5.129A5.36,5.36,0,0,1,78.644,58.3c19.8-5.648,21.809-23.82,20.888-30.075-1.011-6.859-5.057-11.863-12.42-11.981A10.957,10.957,0,0,0,75.8,27.191V38.146a5.015,5.015,0,0,1-5.045,5.126,4.951,4.951,0,0,1-5.02-5.129" transform="translate(70.757 11.839)" fill="#7ad300"/>
  </g>
</svg>
