<svg width="54" height="54" viewBox="0 0 54 54" fill="none" xmlns="http://www.w3.org/2000/svg">
<path d="M8.48599 45C7.21314 45 6.12388 44.5597 5.21822 43.6792C4.31102 42.7972 3.85742 41.7375 3.85742 40.5V13.5C3.85742 12.2625 4.31102 11.2035 5.21822 10.323C6.12388 9.441 7.21314 9 8.48599 9H45.5146C46.7874 9 47.8775 9.441 48.7847 10.323C49.6903 11.2035 50.1431 12.2625 50.1431 13.5V40.5C50.1431 41.7375 49.6903 42.7972 48.7847 43.6792C47.8775 44.5597 46.7874 45 45.5146 45H8.48599ZM27.0003 29.25L8.48599 18V40.5H45.5146V18L27.0003 29.25ZM27.0003 24.75L45.5146 13.5H8.48599L27.0003 24.75ZM8.48599 18V13.5V40.5V18Z" fill="white"/>
</svg>
