<svg width="100" height="100" viewBox="0 0 100 100" fill="none" xmlns="http://www.w3.org/2000/svg">
<path d="M50 9.52393C59.4997 9.52151 68.7309 12.7005 76.2423 18.561C83.7536 24.4216 89.1191 32.6313 91.4952 41.8996C93.8713 51.1679 93.1233 60.9691 89.3687 69.7623C85.6141 78.5555 79.066 85.842 70.7537 90.4763H29.2463C20.934 85.842 14.3858 78.5555 10.6312 69.7623C6.87667 60.9691 6.12864 51.1679 8.50474 41.8996C10.8808 32.6313 16.2463 24.4216 23.7577 18.561C31.269 12.7005 40.5002 9.52151 50 9.52393ZM74.2617 77.1462C77.4575 73.943 79.9911 70.133 81.7157 65.9365C83.4404 61.7401 84.3219 57.2406 84.3092 52.6985H76.7789V47.3017H83.8968C83.3149 43.5289 82.1111 39.8807 80.3352 36.5081H71.4231V31.1112H76.8003C72.6451 25.8483 67.0495 21.9286 60.7062 19.8373V25.7144H55.3504V18.542C51.8012 17.9857 48.188 17.9857 44.6388 18.542V25.7144H39.283V19.8373C32.9414 21.932 27.3467 25.8511 23.1889 31.1112H28.5661V36.5081H19.6541C17.8781 39.8807 16.6743 43.5289 16.0925 47.3017H23.2103V52.6985H15.6801C15.6801 61.9325 19.247 70.616 25.7275 77.1462C26.6219 78.0474 27.5646 78.8947 28.534 79.6827H44.6335L47.6916 36.5081H52.2815L55.3397 79.6827H71.4392C72.4139 78.8947 73.3512 78.0474 74.2456 77.1462H74.2617Z" fill="white"/>
</svg>
