<svg width="120" height="120" viewBox="0 0 120 120" fill="none" xmlns="http://www.w3.org/2000/svg">
<g clip-path="url(#clip0_1166_2426)">
<path d="M14.2857 53.8876V16.2587C14.2857 7.26243 21.2874 0.0893329 30.1879 0.0295571C40.7201 -0.000330866 60.0638 -0.000330866 70.5664 0.0295571C72.5245 0.0295571 74.2453 0.687091 75.6693 2.12171C85.9939 12.5526 96.3481 22.9536 106.702 33.3247C107.919 34.4903 108.601 36.1342 108.542 37.8378C108.542 55.9797 108.631 86.4654 108.512 104.637C108.453 112.767 101.332 119.91 93.2626 119.94C74.987 120.03 47.8405 120.03 29.5352 119.94C21.3468 119.88 14.3747 112.587 14.3154 104.219C14.2857 91.5464 14.2857 66.5601 14.2857 53.8876ZM97.8612 43.098H95.9624C91.0078 43.098 86.0829 43.1578 81.1283 43.0383C74.0376 42.8888 67.2732 37.2699 66.2348 30.2164C65.6711 26.2712 65.9085 22.1765 65.8195 18.1715C65.7602 15.7805 65.8195 13.3895 65.8195 11.0881C65.5228 10.9685 65.4338 10.8789 65.3151 10.8789C56.5333 10.8789 38.9104 10.7892 30.1286 10.8789C27.1617 10.8789 25.085 13.1802 24.9663 16.169C24.9663 16.7967 24.9663 17.3944 24.9663 18.0221C24.9663 42.0221 24.9663 78.3957 24.9663 102.426C24.9663 107.267 26.8947 109.18 31.7603 109.18C48.7009 109.18 74.5123 109.18 91.4529 109.18C95.8438 109.18 97.8612 107.148 97.8612 102.695C97.8612 92.5626 97.8612 70.0868 97.8612 59.9548V43.1279V43.098ZM76.5297 18.8888C76.5297 21.7282 76.4704 24.4779 76.5297 27.1977C76.5891 29.499 78.2208 31.7406 80.4756 31.9797C83.5314 32.2786 86.6169 32.0694 89.6134 32.0694L76.5297 18.8888Z" fill="#097B35"/>
<path d="M64.0388 71.9701C58.4909 71.9701 50.1541 71.9701 44.6061 71.9701C40.8086 71.9701 38.1978 69.5193 38.2571 66.0523C38.2868 62.675 40.8976 60.3138 44.6061 60.3138C55.9394 60.3138 68.0144 60.3138 79.3477 60.3138C82.2255 60.3138 84.2429 61.8381 85.0736 64.4383C85.8153 66.8294 85.044 69.4894 82.8782 70.8344C81.7508 71.5218 80.4751 71.8804 79.1697 71.9103C73.4437 72.0299 69.7648 71.9402 64.0388 71.9402V71.9701Z" fill="#097B35"/>
<path d="M64.2169 84.3138C69.8242 84.3138 73.3843 84.3138 78.9916 84.3138C82.8189 84.3138 85.4 86.7646 85.3407 90.2316C85.311 93.6089 82.7299 95.9701 78.9916 95.9701C67.7177 95.9701 55.7021 95.9701 44.4281 95.9701C40.8679 95.9701 38.2868 93.5492 38.2571 90.2316C38.1978 86.8244 40.7789 84.3437 44.4281 84.3138C50.0948 84.3138 58.5502 84.3138 64.2169 84.3138Z" fill="#097B35"/>
<path d="M53.715 47.731C52.6766 47.731 44.7849 47.7907 43.7762 47.731C40.572 47.5815 38.1095 44.8318 38.2875 41.6039C38.4359 38.5853 40.839 36.1942 43.8355 36.0747C45.8826 35.985 54.8127 35.985 56.8599 36.0747C60.153 36.1942 62.5562 38.7048 62.5562 41.9327C62.5562 45.1606 60.153 47.6114 56.8302 47.7609C55.8215 47.8206 54.7831 47.7609 53.7447 47.7609L53.715 47.731Z" fill="#097B35"/>
</g>
<defs>
<clipPath id="clip0_1166_2426">
<rect width="120" height="120" fill="white"/>
</clipPath>
</defs>
</svg>
