<svg width="100" height="100" viewBox="0 0 100 100" fill="none" xmlns="http://www.w3.org/2000/svg">
<path d="M16.6666 16.6667C16.6666 14.4566 17.5446 12.337 19.1074 10.7742C20.6702 9.21135 22.7898 8.33337 25 8.33337H58.3333C59.4383 8.33361 60.4979 8.77275 61.2791 9.55421L82.1125 30.3875C82.8939 31.1688 83.3331 32.2284 83.3333 33.3334V83.3334C83.3333 85.5435 82.4553 87.6631 80.8925 89.2259C79.3297 90.7887 77.2101 91.6667 75 91.6667H25C22.7898 91.6667 20.6702 90.7887 19.1074 89.2259C17.5446 87.6631 16.6666 85.5435 16.6666 83.3334V16.6667ZM73.275 33.3334L58.3333 18.3917V33.3334H73.275ZM50 16.6667H25V83.3334H75V41.6667H54.1666C53.0616 41.6667 52.0018 41.2277 51.2204 40.4463C50.4389 39.6649 50 38.6051 50 37.5V16.6667Z" fill="white"/>
<path fill-rule="evenodd" clip-rule="evenodd" d="M47.5606 50.0172C47.8375 50.0508 48.1048 50.1372 48.3474 50.2714C48.59 50.4056 48.803 50.585 48.9743 50.7994C49.1456 51.0138 49.2718 51.259 49.3458 51.5209C49.4197 51.7829 49.4399 52.0564 49.4053 52.3259L48.9069 56.2046H54.5358L55.1006 51.8132C55.1705 51.2691 55.4594 50.7742 55.904 50.4376C56.3486 50.1009 56.9123 49.9499 57.4712 50.0179C58.0301 50.0859 58.5383 50.3673 58.8842 50.8001C59.23 51.2329 59.385 51.7818 59.3152 52.3259L58.8168 56.2046H62.1621C62.7253 56.2046 63.2655 56.4224 63.6637 56.8101C64.062 57.1978 64.2857 57.7237 64.2857 58.2721C64.2857 58.8204 64.062 59.3463 63.6637 59.734C63.2655 60.1217 62.7253 60.3396 62.1621 60.3396H58.2859L57.5781 65.8529H61.4543C62.0175 65.8529 62.5576 66.0707 62.9559 66.4584C63.3541 66.8462 63.5778 67.372 63.5778 67.9204C63.5778 68.4687 63.3541 68.9946 62.9559 69.3823C62.5576 69.77 62.0175 69.9879 61.4543 69.9879H57.0472L56.4838 74.3792C56.4139 74.9234 56.1249 75.4182 55.6804 75.7549C55.2358 76.0916 54.6721 76.2425 54.1132 76.1745C53.5543 76.1065 53.046 75.8252 52.7002 75.3923C52.3544 74.9595 52.1994 74.4106 52.2692 73.8665L52.7661 69.9879H47.1373L46.5739 74.3792C46.5393 74.6487 46.4505 74.9088 46.3127 75.1449C46.1748 75.3809 45.9906 75.5882 45.7704 75.7549C45.5503 75.9216 45.2986 76.0444 45.0297 76.1164C44.7608 76.1884 44.48 76.2082 44.2033 76.1745C43.9265 76.1408 43.6593 76.0544 43.4169 75.9202C43.1745 75.786 42.9615 75.6066 42.7903 75.3923C42.6191 75.178 42.4929 74.9329 42.4189 74.6711C42.345 74.4093 42.3247 74.1359 42.3593 73.8665L42.8562 69.9879H40.2188C39.6556 69.9879 39.1154 69.77 38.7172 69.3823C38.3189 68.9946 38.0952 68.4687 38.0952 67.9204C38.0952 67.372 38.3189 66.8462 38.7172 66.4584C39.1154 66.0707 39.6556 65.8529 40.2188 65.8529H43.3871L44.095 60.3396H40.9266C40.3634 60.3396 39.8233 60.1217 39.425 59.734C39.0268 59.3463 38.8031 58.8204 38.8031 58.2721C38.8031 57.7237 39.0268 57.1978 39.425 56.8101C39.8233 56.4224 40.3634 56.2046 40.9266 56.2046H44.6258L45.1907 51.8132C45.225 51.5436 45.3136 51.2833 45.4512 51.0471C45.5889 50.8109 45.7731 50.6034 45.9932 50.4365C46.2132 50.2695 46.4649 50.1465 46.7339 50.0743C47.0028 50.0021 47.2838 49.9823 47.5606 50.0159V50.0172ZM53.2998 65.8529L54.0077 60.3396H48.3775L47.6696 65.8529H53.2984H53.2998Z" fill="white"/>
</svg>
