<svg width="100" height="100" viewBox="0 0 100 100" fill="none" xmlns="http://www.w3.org/2000/svg">
<path d="M79.1667 8.33337H37.5C32.9042 8.33337 29.1667 12.0709 29.1667 16.6667V39.9417L9.55417 59.5542C8.97163 60.1369 8.57494 60.8793 8.41424 61.6874C8.25354 62.4955 8.33606 63.3332 8.65135 64.0944C8.96664 64.8557 9.50056 65.5064 10.1856 65.9642C10.8706 66.4221 11.676 66.6665 12.5 66.6667V87.5C12.5 88.6051 12.939 89.6649 13.7204 90.4463C14.5018 91.2277 15.5616 91.6667 16.6667 91.6667H83.3333C84.4384 91.6667 85.4982 91.2277 86.2796 90.4463C87.061 89.6649 87.5 88.6051 87.5 87.5V16.6667C87.5 12.0709 83.7625 8.33337 79.1667 8.33337ZM45.8333 83.3334H20.8333V60.0584L33.3333 47.5584L45.8333 60.0584V83.3334ZM79.1667 83.3334H54.1667V66.6667C54.9915 66.6685 55.7983 66.4252 56.4847 65.9677C57.171 65.5102 57.7059 64.8591 58.0216 64.097C58.3372 63.3349 58.4193 62.4963 58.2575 61.6875C58.0956 60.8786 57.6971 60.1361 57.1125 59.5542L37.5 39.9417V16.6667H79.1667V83.3334Z" fill="white"/>
<path d="M45.8334 25H54.1667V33.3333H45.8334V25ZM62.5001 25H70.8334V33.3333H62.5001V25ZM62.5001 41.7958H70.8334V50H62.5001V41.7958ZM62.5001 58.3333H70.8334V66.6667H62.5001V58.3333ZM29.1667 62.5H37.5001V70.8333H29.1667V62.5Z" fill="white"/>
</svg>
