<svg xmlns="http://www.w3.org/2000/svg" viewBox="0 0 61.76 46.71"><defs><style>.cls-1{fill:#fff;}</style></defs><g id="Capa_2" data-name="Capa 2"><g id="OBJECTS"><path class="cls-1" d="M60.49,26.9c.06-.07.1-.14.15-.21l.18-.23.15-.25c0-.07.09-.14.13-.22l.12-.26a2.4,2.4,0,0,0,.11-.23c0-.09.07-.18.1-.27l.09-.25c0-.09,0-.18.07-.28l.06-.25c0-.11,0-.22.05-.33l0-.21a5.15,5.15,0,0,0,0-1.11l0-.21c0-.11,0-.22-.05-.33L61.59,22a2.86,2.86,0,0,1-.07-.28l-.09-.25a2,2,0,0,0-.1-.26,1.63,1.63,0,0,0-.11-.23l-.12-.27L61,20.51l-.15-.26L60.64,20c0-.07-.09-.14-.15-.21s-.24-.28-.37-.41L42.35,1.64a5.59,5.59,0,0,0-7.9,7.9l8.23,8.23H5.59a5.59,5.59,0,1,0,0,11.17H42.68l-8.23,8.23a5.59,5.59,0,0,0,7.9,7.91L60.12,27.31C60.25,27.18,60.37,27,60.49,26.9Z"/></g></g></svg>