<svg width="120" height="121" viewBox="0 0 120 121" fill="none" xmlns="http://www.w3.org/2000/svg">
<g clip-path="url(#clip0_428_336)">
<path d="M32.9389 50.7056C32.9389 49.3709 32.9389 48.4585 32.9389 47.5479C32.9389 38.9046 32.9756 30.2631 32.9113 21.6217C32.8985 19.7968 33.3024 18.9505 35.3714 18.967C46.2434 19.0533 57.1155 19.0331 67.9894 18.9817C69.6508 18.9817 70.3173 19.481 70.2677 21.2104C70.1704 24.6454 70.1814 28.0876 70.2677 31.5244C70.3448 34.66 71.3839 35.6367 74.5508 35.6845C77.8021 35.7322 81.0608 35.813 84.3066 35.6569C86.4546 35.5541 87.3174 36.1728 87.2055 38.4438C87.0384 41.8732 87.2055 45.3191 87.1394 48.7559C87.1081 50.1915 87.6185 50.7753 89.0578 50.7515C91.9383 50.7019 94.8206 50.6927 97.6993 50.7515C99.392 50.7882 99.9611 50.0575 99.9391 48.4034C99.8675 43.2005 100.192 37.972 99.772 32.7985C99.4974 30.4323 98.4874 28.2119 96.8842 26.45C91.305 20.4798 85.5421 14.6582 79.5242 9.13223C77.568 7.32593 75.0652 6.22376 72.412 6.00023C58.3841 5.70649 44.3507 5.77625 30.3191 5.89558C29.0289 5.81376 27.7356 5.99735 26.5192 6.43501C25.3027 6.87266 24.1889 7.55509 23.2466 8.44013C22.3043 9.32517 21.5534 10.394 21.0404 11.5807C20.5274 12.7673 20.2632 14.0465 20.264 15.3393C20.0143 26.4849 20.13 37.6397 20.1942 48.7889C20.1942 49.4315 21.081 50.6009 21.595 50.6248C25.2668 50.7845 28.966 50.7092 32.9389 50.7092M32.9389 99.6004C32.9389 93.9587 32.904 88.7687 32.9609 83.5824C32.9774 81.9962 32.5735 81.1572 30.7817 81.2196C27.9031 81.3206 25.0079 81.1205 22.1439 81.339C21.6907 81.4634 21.2767 81.7014 20.9411 82.0303C20.6054 82.3592 20.3591 82.7683 20.2255 83.2189C20.0933 89.9088 19.9648 96.6208 20.2365 103.296C20.229 104.543 20.4746 105.779 20.9583 106.929C21.442 108.079 22.1539 109.119 23.0509 109.986C23.9478 110.853 25.0113 111.529 26.1769 111.973C27.3425 112.417 28.5861 112.621 29.8326 112.571C50.0076 112.665 70.1826 112.665 90.3576 112.571C91.5787 112.598 92.7931 112.384 93.931 111.941C95.0689 111.497 96.1079 110.833 96.9881 109.986C97.8684 109.139 98.5725 108.127 99.0601 107.007C99.5476 105.888 99.8089 104.682 99.8289 103.461C100.066 96.6832 99.928 89.8886 99.8491 83.1032C99.8491 82.4919 99.1037 81.3775 98.6723 81.361C94.9051 81.2233 91.1305 81.282 87.1595 81.282C87.1595 86.5694 87.0108 91.3977 87.2183 96.2132C87.3321 98.8642 86.5849 99.6867 83.8513 99.6646C67.9545 99.538 52.0558 99.6022 36.1572 99.6022H32.9352M103.73 61.2068H91.7584C87.8921 61.2068 87.1687 61.9099 87.1687 65.6881C87.154 70.03 87.8682 70.8763 91.6905 70.8837C99.2176 70.9002 106.735 70.8837 114.257 70.8837C119.508 70.8837 120.077 70.2209 120.007 64.9171C119.972 62.3266 118.81 61.1792 116.284 61.1921C112.105 61.2141 107.925 61.1921 103.747 61.1921M16.5904 61.1921C12.4101 61.1921 8.22803 61.1627 4.04774 61.2013C0.939609 61.2306 0.0602259 62.2128 0.00882146 65.5027C-0.0480906 69.604 0.743171 70.8267 3.89169 70.8451C12.3465 70.9149 20.8019 70.9149 29.258 70.8451C32.2266 70.8212 32.9903 69.6077 32.9297 65.6294C32.8838 62.11 32.1623 61.2233 29.1184 61.1957C24.9381 61.1554 20.756 61.1866 16.5757 61.1957M59.985 61.1957C57.1045 61.1957 54.2222 61.1609 51.3417 61.2049C50.7394 61.1196 50.1255 61.1755 49.5485 61.3685C48.9716 61.5614 48.4475 61.8859 48.0177 62.3165C47.5879 62.747 47.2642 63.2716 47.0723 63.8488C46.8803 64.4261 46.8253 65.0401 46.9117 65.6422C46.8511 69.0202 48.1968 70.7992 51.1985 70.8488C57.1449 70.9442 63.0968 70.9571 69.0432 70.8396C71.9365 70.7827 73.1427 68.9431 73.0399 65.3467C73.1033 64.7889 73.0404 64.224 72.8557 63.6939C72.6711 63.1637 72.3694 62.682 71.9732 62.2843C71.5769 61.8867 71.0963 61.5833 70.5668 61.3968C70.0373 61.2102 69.4726 61.1453 68.9146 61.2068C65.9424 61.1443 62.9664 61.1921 59.9923 61.1976" fill="#007934"/>
<path d="M32.9382 50.7056C28.9654 50.7056 25.2753 50.7791 21.5944 50.6212C21.0803 50.5992 20.1973 49.4297 20.1954 48.7853C20.1293 37.6342 20.0118 26.4813 20.2652 15.3357C20.2649 14.0432 20.5295 12.7644 21.0427 11.5782C21.5559 10.392 22.3068 9.32358 23.2491 8.43894C24.1914 7.55429 25.305 6.87219 26.5212 6.43476C27.7374 5.99733 29.0304 5.81385 30.3203 5.89565C44.3518 5.77631 58.3871 5.71206 72.4132 5.99846C75.0653 6.22316 77.5668 7.32595 79.5217 9.13229C85.5396 14.6583 91.3043 20.4798 96.8798 26.4538C98.4837 28.2154 99.4944 30.4358 99.7695 32.8022C100.19 37.972 99.865 43.1987 99.9365 48.4071C99.9586 50.0594 99.3858 50.7938 97.6968 50.7552C94.8181 50.6946 91.9358 50.702 89.0553 50.7552C87.616 50.7809 87.1056 50.1953 87.1368 48.7596C87.2103 45.3229 87.034 41.8769 87.2011 38.4475C87.3113 36.1747 86.4484 35.5578 84.3023 35.6607C81.0564 35.8167 77.7996 35.7359 74.5464 35.6882C71.3777 35.6423 70.3386 34.6656 70.2615 31.5281C70.1771 28.0914 70.1679 24.6491 70.2615 21.2142C70.3092 19.4866 69.6447 18.9781 67.9832 18.9854C57.1112 19.0368 46.2391 19.057 35.3671 18.9707C33.298 18.9542 32.8923 19.8005 32.907 21.6254C32.9713 30.2669 32.9364 38.9102 32.9345 47.5516V50.7093" fill="#007934"/>
<path d="M32.935 99.5967H36.1569C52.0556 99.5967 67.9543 99.5324 83.8511 99.6591C86.5847 99.6811 87.3392 98.8568 87.2181 96.2058C87.0125 91.3922 87.1593 86.562 87.1593 81.2747C91.1322 81.2747 94.9049 81.2159 98.6721 81.3536C99.1035 81.3701 99.8434 82.4827 99.8507 83.0958C99.9297 89.8886 100.067 96.6813 99.8305 103.454C99.8105 104.675 99.549 105.881 99.0612 107.001C98.5733 108.121 97.8686 109.134 96.9878 109.981C96.107 110.827 95.0673 111.492 93.9288 111.935C92.7902 112.378 91.5752 112.592 90.3537 112.563C70.1787 112.661 50.0037 112.661 29.8287 112.563C28.5821 112.614 27.3383 112.41 26.1724 111.966C25.0066 111.522 23.9429 110.846 23.0458 109.979C22.1486 109.112 21.4366 108.072 20.9527 106.922C20.4689 105.772 20.2233 104.536 20.2307 103.289C19.9609 96.6042 20.0894 89.9033 20.2216 83.2115C20.355 82.7608 20.6013 82.3517 20.937 82.0227C21.2727 81.6938 21.6868 81.4559 22.1401 81.3316C25.0058 81.1131 27.8992 81.3132 30.7778 81.2122C32.5696 81.1498 32.9809 81.9888 32.9552 83.575C32.8983 88.7613 32.9331 93.9495 32.9331 99.593" fill="#007934"/>
<path d="M103.737 61.205C107.915 61.205 112.095 61.2197 116.274 61.205C118.802 61.1903 119.964 62.3395 119.997 64.93C120.067 70.2338 119.498 70.8965 114.247 70.8965C106.72 70.8965 99.2022 70.9094 91.6806 70.8965C87.8601 70.8965 87.146 70.0429 87.1588 65.701C87.1699 61.9246 87.8932 61.2215 91.7485 61.2197H103.729" fill="#007934"/>
<path d="M16.5808 61.2068C20.7611 61.2068 24.9432 61.1738 29.1235 61.2068C32.1674 61.238 32.8889 62.1247 32.9348 65.6404C32.9862 69.6169 32.2243 70.8323 29.2631 70.8562C20.8082 70.9247 12.3528 70.9247 3.8968 70.8562C0.737258 70.836 -0.0503313 69.6206 0.00290898 65.5193C0.0488058 62.2294 0.920846 61.2472 4.04183 61.2178C8.22211 61.1774 12.4042 61.2087 16.5845 61.205" fill="#007934"/>
<path d="M59.9972 61.2031C62.9713 61.2031 65.9473 61.1517 68.9195 61.2159C69.4774 61.1545 70.0419 61.2194 70.5712 61.4059C71.1005 61.5923 71.5811 61.8955 71.9773 62.2929C72.3735 62.6904 72.6752 63.1719 72.86 63.7018C73.0447 64.2317 73.1079 64.7964 73.0447 65.354C73.1476 68.9505 71.9432 70.79 69.048 70.8469C63.1017 70.9644 57.1498 70.9516 51.2034 70.8561C48.1999 70.8084 46.856 69.0202 46.9166 65.6496C46.8303 65.047 46.8856 64.4327 47.078 63.8552C47.2704 63.2777 47.5947 62.753 48.0251 62.3226C48.4555 61.8922 48.9802 61.5679 49.5577 61.3755C50.1352 61.1831 50.7495 61.1279 51.3521 61.2141C54.2326 61.1701 57.1149 61.2049 59.9954 61.2031" fill="#007934"/>
<path d="M60.0199 81.2766C68.7678 81.2766 86.3353 81.1297 95.0851 81.2766C103.124 81.4106 98.1748 84.6252 98.4025 90.8764C98.7036 99.1947 95.1622 103.448 86.6529 103.581C69.1625 103.854 51.6593 103.825 34.1653 103.603C25.3329 103.492 21.3803 99.3801 21.5547 91.563C21.7107 84.6399 19.2323 81.3831 28.1234 81.2821C36.596 81.1811 51.5547 81.2821 60.0291 81.2821" fill="#007934"/>
<path d="M60.0162 12.7765C68.094 12.7765 68.1491 14.023 76.2214 14.2727C83.6439 14.5004 93.9101 21.361 94.1212 31.943C94.4002 46.0223 97.5065 50.344 89.6472 50.5679C73.4915 51.0306 43.0343 50.9351 26.8842 50.5679C18.7292 50.3843 24.3323 43.408 24.4975 30.1897C24.6407 18.4714 28.3363 13.0023 36.5445 12.8242C44.3672 12.6535 52.1954 12.7875 60.0199 12.7783" fill="#007934"/>
</g>
<defs>
<clipPath id="clip0_428_336">
<rect width="120" height="120" fill="white" transform="translate(0 0.0784912)"/>
</clipPath>
</defs>
</svg>
