<svg width="100" height="100" viewBox="0 0 100 100" fill="none" xmlns="http://www.w3.org/2000/svg">
<path d="M88.311 15H11.6632C5.25232 15 0 20.2811 0 26.7271V73.2729C0 79.7189 5.25232 85.0259 11.6632 85.0259H88.311C94.7219 85.0259 99.9743 79.7448 99.9743 73.2729V26.7271C99.9743 20.2811 94.7219 15 88.311 15ZM11.6632 20.1775H88.311C91.9156 20.1775 94.8507 23.1287 94.8507 26.753V29.73H5.14933V26.753C5.14933 23.1287 8.08445 20.1775 11.689 20.1775H11.6632ZM88.311 79.8484H11.6632C8.0587 79.8484 5.12358 76.8972 5.12358 73.2729V40.0074H94.8507V73.2729C94.8507 76.8972 91.9156 79.8484 88.311 79.8484Z" fill="white"/>
<path d="M88.208 69.3122C86.3028 71.3832 85.3759 71.8233 84.9382 71.8233C84.655 71.8233 84.4233 71.6421 84.2173 71.2796C83.9856 70.8654 83.8826 70.2959 83.8826 69.6228C83.8826 68.9498 84.0371 67.8884 84.3718 66.4646L85.8136 60.7693C86.277 58.8277 86.5088 57.4816 86.5088 56.6791C86.5088 55.6436 86.2255 54.841 85.6849 54.2456C85.1442 53.6761 84.3718 53.3913 83.4449 53.3913C81.8229 53.3913 80.1751 54.3233 78.5788 56.1872C77.24 57.7146 75.6437 60.1998 73.8157 63.5652L74.5108 60.4328C74.8713 58.6724 75.0515 57.4557 75.0515 56.7567C75.0515 54.0385 73.4552 53.469 72.1421 53.469C71.3182 53.469 70.4428 53.7538 69.516 54.3233C76.0814 46.557 86.5602 44.4342 86.5602 44.4342C71.7559 47.0748 66.7611 54.3751 65.1648 56.7826C64.4696 57.844 62.8733 60.1739 62.4871 61.7013C62.3841 57.9476 61.5603 55.9283 59.2688 54.1162C59.2688 54.1162 60.9681 56.3943 60.5304 62.9697C59.9897 71.0984 59.5263 74.7486 59.5263 74.7486C59.6807 74.1014 61.7662 67.8107 64.5469 62.2708C64.6241 62.1154 64.7271 61.986 64.8043 61.8307C65.9887 59.8891 67.1473 58.3876 68.2286 57.378C69.2585 56.3943 70.1339 55.9024 70.829 55.9024C71.2667 55.9024 71.7559 56.0578 71.7559 57.145C71.7559 57.5592 71.6787 58.1288 71.55 58.776L68.4346 74.8263L71.3697 73.8943L71.4212 73.739C72.0906 71.2538 72.7858 69.131 73.5067 67.4224C74.2276 65.7138 75.1802 63.8499 76.3131 61.8825C77.1627 60.4586 77.9351 59.2678 78.6303 58.3876C79.2997 57.5333 79.9434 56.8862 80.5355 56.472C81.102 56.0836 81.6169 55.8765 82.0546 55.8765C82.415 55.8765 82.6983 55.9801 82.9042 56.1872C83.1102 56.3943 83.2132 56.6532 83.2132 56.9897C83.2132 57.378 83.136 57.9475 83.0072 58.6206L82.8012 59.8891L81.5139 67.1635C81.2049 68.7427 81.0505 69.8558 81.0505 70.5548C81.0505 71.7197 81.3337 72.7035 81.8486 73.4801C82.415 74.3085 83.1102 74.7227 83.9341 74.7227C84.552 74.7227 85.1957 74.412 85.8908 73.8166C86.5345 73.2471 87.5386 72.1857 88.8774 70.6066L89.3666 70.0112L88.414 69.131L88.208 69.3381V69.3122Z" fill="white"/>
</svg>
