<svg width="50" height="50" viewBox="0 0 50 50" fill="none" xmlns="http://www.w3.org/2000/svg">
<path d="M44.1555 7.5H5.83162C2.62616 7.5 0 10.1405 0 13.3635V36.6365C0 39.8595 2.62616 42.5129 5.83162 42.5129H44.1555C47.361 42.5129 49.9871 39.8724 49.9871 36.6365V13.3635C49.9871 10.1405 47.361 7.5 44.1555 7.5ZM5.83162 10.0888H44.1555C45.9578 10.0888 47.4253 11.5643 47.4253 13.3765V14.865H2.57467V13.3765C2.57467 11.5643 4.04222 10.0888 5.84449 10.0888H5.83162ZM44.1555 39.9242H5.83162C4.02935 39.9242 2.56179 38.4486 2.56179 36.6365V20.0037H47.4253V36.6365C47.4253 38.4486 45.9578 39.9242 44.1555 39.9242Z" fill="#007934"/>
<path d="M44.1039 34.656C43.1513 35.6915 42.6878 35.9116 42.469 35.9116C42.3274 35.9116 42.2115 35.821 42.1085 35.6397C41.9927 35.4326 41.9412 35.1479 41.9412 34.8113C41.9412 34.4748 42.0184 33.9441 42.1858 33.2322L42.9067 30.3846C43.1384 29.4138 43.2543 28.7407 43.2543 28.3395C43.2543 27.8217 43.1126 27.4204 42.8423 27.1227C42.572 26.838 42.1858 26.6956 41.7223 26.6956C40.9113 26.6956 40.0874 27.1616 39.2893 28.0935C38.6199 28.8572 37.8217 30.0998 36.9077 31.7825L37.2553 30.2163C37.4355 29.3361 37.5256 28.7278 37.5256 28.3783C37.5256 27.0192 36.7275 26.7344 36.0709 26.7344C35.659 26.7344 35.2213 26.8768 34.7579 27.1616C38.0406 23.2784 43.28 22.217 43.28 22.217C35.8778 23.5373 33.3804 27.1875 32.5823 28.3912C32.2347 28.9219 31.4365 30.0869 31.2434 30.8505C31.1919 28.9737 30.78 27.9641 29.6343 27.058C29.6343 27.058 30.4839 28.1971 30.2651 31.4848C29.9947 35.5491 29.763 37.3742 29.763 37.3742C29.8403 37.0506 30.883 33.9053 32.2733 31.1353C32.3119 31.0576 32.3634 30.9929 32.402 30.9153C32.9942 29.9445 33.5735 29.1937 34.1142 28.6889C34.6291 28.1971 35.0668 27.9511 35.4144 27.9511C35.6332 27.9511 35.8778 28.0288 35.8778 28.5724C35.8778 28.7795 35.8392 29.0643 35.7749 29.3879L34.2172 37.413L35.6847 36.9471L35.7105 36.8694C36.0452 35.6268 36.3928 34.5654 36.7532 33.7111C37.1137 32.8568 37.59 31.9249 38.1564 30.9412C38.5812 30.2292 38.9674 29.6338 39.315 29.1937C39.6497 28.7666 39.9716 28.443 40.2676 28.2359C40.5509 28.0417 40.8083 27.9382 41.0272 27.9382C41.2074 27.9382 41.349 27.99 41.452 28.0935C41.555 28.1971 41.6065 28.3265 41.6065 28.4948C41.6065 28.6889 41.5679 28.9737 41.5035 29.3102L41.4005 29.9445L40.7568 33.5817C40.6023 34.3713 40.5251 34.9278 40.5251 35.2773C40.5251 35.8598 40.6667 36.3517 40.9242 36.74C41.2074 37.1542 41.555 37.3613 41.9669 37.3613C42.2759 37.3613 42.5977 37.2059 42.9453 36.9082C43.2671 36.6235 43.7692 36.0928 44.4386 35.3032L44.6832 35.0055L44.2069 34.5654L44.1039 34.669V34.656Z" fill="#007934"/>
</svg>
