<svg width="40" height="29" viewBox="0 0 40 29" fill="none" xmlns="http://www.w3.org/2000/svg">
<path fill-rule="evenodd" clip-rule="evenodd" d="M16.3232 0.126923L35.7146 0.126923C36.6407 0.126923 37.529 0.494836 38.1838 1.14972C38.8387 1.80462 39.2066 2.69284 39.2066 3.61899V24.5714C39.2066 25.4975 38.8387 26.3857 38.1838 27.0406C37.529 27.6955 36.6407 28.0634 35.7146 28.0634H16.3232C15.4391 28.0631 14.5873 27.7274 13.941 27.1242C13.941 27.1241 13.9411 27.1242 13.941 27.1242L1.34865 15.3716C0.994828 15.0414 0.793945 14.5792 0.793945 14.0952C0.793945 13.6112 0.994828 13.1489 1.34865 12.8187L13.9409 1.06629C13.9409 1.06633 13.9409 1.06625 13.9409 1.06629C14.5872 0.463032 15.4391 0.127256 16.3232 0.126923ZM16.3237 3.6191L5.09899 14.0952L16.3237 24.5713L35.7146 24.5714V3.61899L16.3237 3.6191ZM20.5117 8.49547C21.1936 7.8136 22.2991 7.8136 22.981 8.49547L26.1114 11.6259L29.2419 8.49547C29.9237 7.8136 31.0292 7.8136 31.7111 8.49547C32.393 9.17733 32.393 10.2829 31.7111 10.9647L28.5807 14.0952L31.7111 17.2256C32.393 17.9075 32.393 19.013 31.7111 19.6949C31.0292 20.3768 29.9237 20.3768 29.2419 19.6949L26.1114 16.5644L22.981 19.6949C22.2991 20.3768 21.1936 20.3768 20.5117 19.6949C19.8298 19.013 19.8298 17.9075 20.5117 17.2256L23.6421 14.0952L20.5117 10.9647C19.8298 10.2829 19.8298 9.17733 20.5117 8.49547Z" fill="#007934"/>
</svg>
