<svg id="Whatapp" xmlns="http://www.w3.org/2000/svg" xmlns:xlink="http://www.w3.org/1999/xlink" width="62.1" height="62.019" viewBox="0 0 62.1 62.019">
  <defs>
    <clipPath id="clip-path">
      <rect id="Rectangle_261" data-name="Rectangle 261" width="62.1" height="62.019" fill="#36a21d"/>
    </clipPath>
  </defs>
  <g id="Group_377" data-name="Group 377" clip-path="url(#clip-path)">
    <path id="Path_534" data-name="Path 534" d="M0,62.019c.446-1.774.778-3.141,1.135-4.5.33-1.258.6-2.54,1.045-3.758,1.586-4.341,1.4-8.264-.225-12.886A30.434,30.434,0,0,1,26.447.338a31.186,31.186,0,0,1,35.6,29.225c.868,14.221-9.94,28.26-24.034,31.251a30.293,30.293,0,0,1-20.265-2.195,4.682,4.682,0,0,0-3.527-.278q-6,1.606-12.018,3.175c-.584.154-1.178.27-2.208.5m6.942-6.887c2.74-.709,5.018-1.221,7.244-1.9a5.911,5.911,0,0,1,4.89.546c16.456,8.749,36.995-2.887,38.04-21.519.411-7.327-2.274-13.524-7.145-18.918a25.86,25.86,0,0,0-34.384-3.276c-10.777,8.209-13.615,21.7-7.01,33.626a4.374,4.374,0,0,1,.451,3.839c-.778,2.33-1.316,4.74-2.087,7.6" transform="translate(0 0)" fill="#36a21d"/>
    <path id="Path_535" data-name="Path 535" d="M60.581,68.1a24.4,24.4,0,0,1-12.5-4.645A34.439,34.439,0,0,1,37.477,51.465c-2.142-3.957-1.829-8.117.75-10.925a5.677,5.677,0,0,1,2.647-1.466,2.318,2.318,0,0,1,3.054,1.639c.621,1.743,1.368,3.444,2.109,5.141.669,1.532-.316,2.579-1.194,3.433-1.215,1.181-.97,2.113-.22,3.394,2.3,3.933,5.89,6.248,9.835,8.178,1.268.621,1.946-.125,2.664-.947,2.562-2.93,2.567-2.929,6.114-1.314a7.566,7.566,0,0,1,1.474.772c.87.662,2.326,1.352,2.386,2.119a4.635,4.635,0,0,1-2.063,4.675A41.469,41.469,0,0,1,60.581,68.1" transform="translate(-20.723 -22.389)" fill="#36a21d"/>
  </g>
</svg>
